<?xml version="1.0" encoding="UTF-8"?>
<svg version="1.1" xmlns="http://www.w3.org/2000/svg" width="512" height="512">
<path d="M0 0 C0.82849457 0.00215515 1.65698914 0.0043103 2.5105896 0.00653076 C58.12498997 0.23764236 111.95740907 20.30762488 153.01171875 58.13671875 C154.62074789 59.61808938 156.24935634 61.07840904 157.89453125 62.51953125 C199.17842185 98.73013269 223.52879727 154.24489742 228.375 208.3125 C228.528141 211.20598876 228.58372333 214.09502061 228.61328125 216.9921875 C228.6230751 217.79424118 228.63286896 218.59629486 228.64295959 219.4226532 C229.22844191 279.89492467 211.35204054 337.00920876 169.6328125 381.8671875 C167.69001563 383.97132391 165.83883928 386.11832946 164 388.3125 C149.99232276 404.25227065 131.84778946 417.06659676 113.375 427.3125 C112.42439697 427.85632324 112.42439697 427.85632324 111.45458984 428.41113281 C86.09538869 442.90031279 58.19913291 451.27958382 29.375 455.3125 C28.63000244 455.4170752 27.88500488 455.52165039 27.11743164 455.62939453 C4.88050163 458.28973565 -19.69164054 457.65355931 -41.625 453.3125 C-42.61145508 453.11914062 -43.59791016 452.92578125 -44.61425781 452.7265625 C-86.03435796 444.30477872 -123.72598393 425.12663436 -154.625 396.3125 C-156.31216223 394.83294808 -157.99966838 393.35378825 -159.6875 391.875 C-197.52602067 357.62056281 -219.65793232 307.12254053 -226.625 257.3125 C-226.7288501 256.57040283 -226.8327002 255.82830566 -226.93969727 255.0637207 C-233.74955695 197.95529348 -218.34706725 136.46651813 -182.75 90.953125 C-182.04875 90.08171875 -181.3475 89.2103125 -180.625 88.3125 C-179.944375 87.44109375 -179.26375 86.5696875 -178.5625 85.671875 C-169.92624306 74.81305194 -160.46576723 64.02315156 -149.625 55.3125 C-148.52832936 54.40402773 -147.43201038 53.49513088 -146.3359375 52.5859375 C-104.8346313 18.45910262 -53.77048263 -0.25385527 0 0 Z M-39.19140625 51.46484375 C-53.16077272 69.79419745 -63.63266657 92.87413181 -68.625 115.3125 C-47.95175245 118.54677808 -26.50968592 117.46927283 -5.64233398 117.44287109 C-1.10317814 117.4371786 3.43591903 117.44055781 7.97507286 117.44630814 C38.77183704 117.98292008 38.77183704 117.98292008 69.375 115.3125 C62.97635862 90.77901573 52.46629902 67.05399917 36.375 47.3125 C35.82714844 46.58933594 35.27929688 45.86617187 34.71484375 45.12109375 C27.13011529 35.59825285 16.16813222 29.00216173 4.375 26.3125 C-13.99751297 24.67209706 -28.48298666 38.01236589 -39.19140625 51.46484375 Z M61.375 36.3125 C61.77589844 36.9209375 62.17679687 37.529375 62.58984375 38.15625 C77.86738374 61.71345451 87.93546279 86.58935675 96.375 113.3125 C108.65810922 112.80834604 120.78050968 111.69963566 132.9753418 110.15576172 C135.7295585 109.80717691 138.4847562 109.4673622 141.24023438 109.12890625 C143.01047798 108.90934797 144.78066269 108.68931416 146.55078125 108.46875 C147.77260857 108.31714417 147.77260857 108.31714417 149.01911926 108.16247559 C152.84029056 107.67729235 156.60892152 107.13923468 160.375 106.3125 C157.34180632 101.30113652 153.6270267 97.14262959 149.671875 92.83203125 C147.66771297 90.6335882 145.73430213 88.39501858 143.8125 86.125 C140.29733878 82.11564378 136.48316289 78.70336461 132.375 75.3125 C131.87000977 74.88453125 131.36501953 74.4565625 130.84472656 74.015625 C120.96716598 65.65901361 110.58754021 58.74776744 99.375 52.3125 C98.74126465 51.94141113 98.1075293 51.57032227 97.45458984 51.18798828 C80.24499113 40.87415805 80.24499113 40.87415805 61.375 36.3125 Z M-62.625 36.3125 C-90.21053096 46.11408839 -114.46947102 59.61807285 -135.87109375 79.76953125 C-137.80520118 81.55549428 -139.72897969 83.24370133 -141.76171875 84.90625 C-148.62773075 90.67632284 -154.2580339 98.16119193 -159.625 105.3125 C-159.625 105.6425 -159.625 105.9725 -159.625 106.3125 C-145.04674283 108.52040682 -130.47788593 110.54046974 -115.8125 112.0625 C-114.59860596 112.18987549 -113.38471191 112.31725098 -112.1340332 112.44848633 C-106.59580697 113.00515667 -101.19689603 113.3700096 -95.625 113.3125 C-95.37443848 112.5189209 -95.12387695 111.7253418 -94.86572266 110.90771484 C-86.63315832 85.03020762 -76.9126047 60.92977819 -61.625 38.3125 C-62.12 37.3225 -62.12 37.3225 -62.625 36.3125 Z M-175.625 130.3125 C-179.31135732 136.07298415 -182.38921297 141.76384497 -185.0625 148.0625 C-185.45010498 148.97499512 -185.83770996 149.88749023 -186.23706055 150.82763672 C-194.64906643 171.09950652 -200.625 193.29350735 -200.625 215.3125 C-170.595 215.3125 -140.565 215.3125 -109.625 215.3125 C-108.965 204.7525 -108.305 194.1925 -107.625 183.3125 C-107.03218698 177.71088013 -106.4221026 172.1891498 -105.625 166.625 C-105.46 165.39974609 -105.295 164.17449219 -105.125 162.91210938 C-104.05242508 155.03119756 -102.85764713 147.1698059 -101.625 139.3125 C-102.22760651 139.24399338 -102.83021301 139.17548676 -103.45108032 139.10490417 C-109.84549028 138.37746954 -116.23949675 137.64655923 -122.63330078 136.91381836 C-125.0049481 136.64245734 -127.37668992 136.37192059 -129.74853516 136.10229492 C-145.06923492 134.359979 -160.35706919 132.47053537 -175.625 130.3125 Z M171.34790039 130.58862305 C170.53666718 130.69930618 169.72543396 130.80998932 168.88961792 130.92402649 C168.00952057 131.05608994 167.12942322 131.18815338 166.22265625 131.32421875 C165.30259796 131.45229416 164.38253967 131.58036957 163.43460083 131.71232605 C161.45898008 131.98832838 159.48407924 132.26952344 157.50985718 132.55535889 C152.39263467 133.29593929 147.27035935 133.99981783 142.1484375 134.70703125 C141.13611557 134.84778076 140.12379364 134.98853027 139.08079529 135.13354492 C126.87620488 136.8185488 114.63736551 138.12222961 102.375 139.3125 C102.51599121 140.22725098 102.65698242 141.14200195 102.80224609 142.08447266 C107.52991402 172.94789696 107.52991402 172.94789696 108.625 185.1875 C108.72627197 186.31019287 108.72627197 186.31019287 108.82958984 187.45556641 C109.58365827 196.72407679 109.91089274 206.03035485 110.375 215.3125 C140.405 215.3125 170.435 215.3125 201.375 215.3125 C201.375 209.15550675 201.21654658 203.62329343 200.25 197.625 C200.12020752 196.81828857 199.99041504 196.01157715 199.85668945 195.18041992 C196.5561326 175.95564051 190.31089372 157.61771786 182.1875 139.9375 C181.85443848 139.20490967 181.52137695 138.47231934 181.17822266 137.7175293 C178.8300261 132.75255161 177.14196797 129.754391 171.34790039 130.58862305 Z M-74.625 141.3125 C-75.95824395 145.1000933 -76.98574189 148.7363179 -77.625 152.69921875 C-77.78895264 153.70992432 -77.95290527 154.72062988 -78.12182617 155.76196289 C-78.28787354 156.83051514 -78.4539209 157.89906738 -78.625 159 C-78.79942627 160.11560303 -78.97385254 161.23120605 -79.15356445 162.38061523 C-81.86055422 180.04881725 -82.87667394 197.35267459 -83.625 215.3125 C-28.185 215.3125 27.255 215.3125 84.375 215.3125 C83.67254683 196.99814993 83.67254683 196.99814993 82.0625 178.8125 C81.93641357 177.70737061 81.81032715 176.60224121 81.68041992 175.46362305 C80.35663836 164.33734619 78.46495682 153.31790288 76.375 142.3125 C72.39035636 140.98428545 68.7243901 141.41471621 64.59375 141.65234375 C62.72749337 141.74777086 60.86119897 141.84246136 58.99487305 141.93652344 C58.00079437 141.98804565 57.0067157 142.03956787 55.98251343 142.09265137 C12.38617196 144.30014777 -31.04372463 143.42894295 -74.625 141.3125 Z M-200.625 241.3125 C-200.625 247.46949325 -200.46654658 253.00170657 -199.5 259 C-199.37020752 259.80671143 -199.24041504 260.61342285 -199.10668945 261.44458008 C-195.8061326 280.66935949 -189.56089372 299.00728214 -181.4375 316.6875 C-181.10443848 317.42009033 -180.77137695 318.15268066 -180.42822266 318.9074707 C-178.79579295 322.35904592 -177.86519356 324.15237096 -174.625 326.3125 C-172.69321662 326.39641455 -172.69321662 326.39641455 -170.59790039 326.03637695 C-169.78666718 325.92569382 -168.97543396 325.81501068 -168.13961792 325.70097351 C-167.25952057 325.56891006 -166.37942322 325.43684662 -165.47265625 325.30078125 C-164.09256882 325.10866814 -164.09256882 325.10866814 -162.68460083 324.91267395 C-160.70898008 324.63667162 -158.73407924 324.35547656 -156.75985718 324.06964111 C-151.64263467 323.32906071 -146.52035935 322.62518217 -141.3984375 321.91796875 C-140.38611557 321.77721924 -139.37379364 321.63646973 -138.33079529 321.49145508 C-126.12620488 319.8064512 -113.88736551 318.50277039 -101.625 317.3125 C-101.76599121 316.39774902 -101.90698242 315.48299805 -102.05224609 314.54052734 C-106.77991402 283.67710304 -106.77991402 283.67710304 -107.875 271.4375 C-107.94251465 270.68903809 -108.0100293 269.94057617 -108.07958984 269.16943359 C-108.83365827 259.90092321 -109.16089274 250.59464515 -109.625 241.3125 C-139.655 241.3125 -169.685 241.3125 -200.625 241.3125 Z M-83.625 241.3125 C-82.92254683 259.62685007 -82.92254683 259.62685007 -81.3125 277.8125 C-81.18641357 278.91762939 -81.06032715 280.02275879 -80.93041992 281.16137695 C-79.60663836 292.28765381 -77.71495682 303.30709712 -75.625 314.3125 C-71.71917963 315.61444012 -68.17905103 315.21341913 -64.1328125 314.97265625 C-62.32255048 314.87715476 -60.51224529 314.78246919 -58.7019043 314.68847656 C-57.7357016 314.63695435 -56.7694989 314.58543213 -55.77401733 314.53234863 C-12.01545792 312.2554604 31.63291876 313.11648925 75.375 315.3125 C80.8383549 299.62362973 81.7299221 282.22199629 83.125 265.75 C83.22226883 264.61118881 83.22226883 264.61118881 83.32150269 263.44937134 C83.94546324 256.04353593 84.375 248.75866858 84.375 241.3125 C28.935 241.3125 -26.505 241.3125 -83.625 241.3125 Z M110.375 241.3125 C109.715 251.8725 109.055 262.4325 108.375 273.3125 C107.78218698 278.91411987 107.1721026 284.4358502 106.375 290 C106.21 291.22525391 106.045 292.45050781 105.875 293.71289062 C104.80242508 301.59380244 103.60764713 309.4551941 102.375 317.3125 C102.97760651 317.38100662 103.58021301 317.44951324 104.20108032 317.52009583 C110.59549028 318.24753046 116.98949675 318.97844077 123.38330078 319.71118164 C125.7549481 319.98254266 128.12668992 320.25307941 130.49853516 320.52270508 C145.81923492 322.265021 161.10706919 324.15446463 176.375 326.3125 C180.06135732 320.55201585 183.13921297 314.86115503 185.8125 308.5625 C186.20010498 307.65000488 186.58770996 306.73750977 186.98706055 305.79736328 C195.39906643 285.52549348 201.375 263.33149265 201.375 241.3125 C171.345 241.3125 141.315 241.3125 110.375 241.3125 Z M-68.625 341.3125 C-62.22635862 365.84598427 -51.71629902 389.57100083 -35.625 409.3125 C-35.07714844 410.03566406 -34.52929688 410.75882812 -33.96484375 411.50390625 C-25.97113348 421.54023536 -14.13756038 428.68937578 -1.44921875 430.6484375 C9.9357536 431.24164247 20.21778996 425.01044058 28.38671875 417.6796875 C49.26226696 398.06790567 63.21680951 368.99088877 69.375 341.3125 C48.70175245 338.07822192 27.25968592 339.15572717 6.39233398 339.18212891 C1.85317814 339.1878214 -2.68591903 339.18444219 -7.22507286 339.17869186 C-38.02183704 338.64207992 -38.02183704 338.64207992 -68.625 341.3125 Z M96.375 343.3125 C96.12443848 344.1060791 95.87387695 344.8996582 95.61572266 345.71728516 C87.38315832 371.59479238 77.6626047 395.69522181 62.375 418.3125 C62.705 418.9725 63.035 419.6325 63.375 420.3125 C91.01329895 410.49216228 115.28519881 396.95481266 136.71875 376.7578125 C139.375 374.3125 139.375 374.3125 142.015625 372.21484375 C149.10126344 366.50175447 154.82812615 358.46935084 160.375 351.3125 C160.375 350.9825 160.375 350.6525 160.375 350.3125 C145.79674283 348.10459318 131.22788593 346.08453026 116.5625 344.5625 C115.34860596 344.43512451 114.13471191 344.30774902 112.8840332 344.17651367 C107.34580697 343.61984333 101.94689603 343.2549904 96.375 343.3125 Z M-112.73046875 344.3359375 C-113.69092606 344.44217438 -114.65138336 344.54841125 -115.64094543 344.65786743 C-117.66749579 344.88299745 -119.69383509 345.11003456 -121.7199707 345.33886719 C-124.784751 345.68437175 -127.8502953 346.02232562 -130.91601562 346.359375 C-140.53307219 347.42829596 -150.11224429 348.51110231 -159.625 350.3125 C-156.59180632 355.32386348 -152.8770267 359.48237041 -148.921875 363.79296875 C-146.91771297 365.9914118 -144.98430213 368.22998142 -143.0625 370.5 C-139.54733878 374.50935622 -135.73316289 377.92163539 -131.625 381.3125 C-131.12000977 381.74046875 -130.61501953 382.1684375 -130.09472656 382.609375 C-120.21716598 390.96598639 -109.83754021 397.87723256 -98.625 404.3125 C-97.99126465 404.68358887 -97.3575293 405.05467773 -96.70458984 405.43701172 C-88.85768715 410.00857549 -80.78412627 413.60267031 -72.3125 416.875 C-71.38590576 417.23424561 -70.45931152 417.59349121 -69.50463867 417.96362305 C-68.6407251 418.2862915 -67.77681152 418.60895996 -66.88671875 418.94140625 C-66.11287842 419.23088135 -65.33903809 419.52035645 -64.54174805 419.81860352 C-62.55917551 420.55302457 -62.55917551 420.55302457 -60.625 419.3125 C-61.02589844 418.77625 -61.42679687 418.24 -61.83984375 417.6875 C-78.09516464 395.27653605 -87.35417216 369.50143806 -95.625 343.3125 C-101.40098662 343.18369683 -106.99397997 343.68643509 -112.73046875 344.3359375 Z " fill="#000000" transform="translate(255.625,27.6875)"/>
</svg>
