<?xml version="1.0" encoding="UTF-8"?>
<svg version="1.1" xmlns="http://www.w3.org/2000/svg" width="256" height="256">
<path d="M0 0 C3.42707492 2.9070332 6.73344651 5.91433058 10 9 C10.75023437 9.68578125 11.50046875 10.3715625 12.2734375 11.078125 C28.56392439 26.51121784 39.12141646 47.56609001 45 69 C45.50853516 70.76150391 45.50853516 70.76150391 46.02734375 72.55859375 C53.95371142 105.90778125 46.27339082 141.04122771 29 170 C24.07124376 177.64807002 18.23737979 184.3969807 12 191 C11.31421875 191.75023437 10.6284375 192.50046875 9.921875 193.2734375 C-5.51121784 209.56392439 -26.56609001 220.12141646 -48 226 C-49.17433594 226.33902344 -50.34867188 226.67804688 -51.55859375 227.02734375 C-84.90778125 234.95371142 -120.04122771 227.27339082 -149 210 C-156.64807002 205.07124376 -163.3969807 199.23737979 -170 193 C-170.75023437 192.31421875 -171.50046875 191.6284375 -172.2734375 190.921875 C-188.56392439 175.48878216 -199.12141646 154.43390999 -205 133 C-205.33902344 131.82566406 -205.67804688 130.65132812 -206.02734375 129.44140625 C-213.95371142 96.09221875 -206.27339082 60.95877229 -189 32 C-184.07124376 24.35192998 -178.23737979 17.6030193 -172 11 C-171.31421875 10.24976563 -170.6284375 9.49953125 -169.921875 8.7265625 C-163.65753756 2.11420632 -156.55293285 -2.98201483 -149 -8 C-148.06671875 -8.6290625 -147.1334375 -9.258125 -146.171875 -9.90625 C-102.03290809 -37.65074348 -40.08782976 -32.76469865 0 0 Z M-72 -10 C-72 4.19 -72 18.38 -72 33 C-61.11 33 -50.22 33 -39 33 C-44.47189835 16.58430494 -52.89606584 -0.66810768 -69 -9 C-69.99 -9.33 -70.98 -9.66 -72 -10 Z M-102.00390625 -1.2109375 C-108.99337273 6.4109865 -121 22.14581533 -121 33 C-110.11 33 -99.22 33 -88 33 C-88 18.81 -88 4.62 -88 -10 C-92.45088303 -10 -98.82420728 -4.04973307 -102.00390625 -1.2109375 Z M-162.13208008 23.80200195 C-165.03287381 26.76319743 -166.81637693 29.36062821 -169 33 C-158.77 33 -148.54 33 -138 33 C-137.154375 30.81375 -136.30875 28.6275 -135.4375 26.375 C-131.41728602 16.19374919 -126.60153424 6.41057753 -121 -3 C-135.60821676 -3 -152.40417879 14.18756395 -162.13208008 23.80200195 Z M-39 -3 C-38.64808594 -2.36835938 -38.29617187 -1.73671875 -37.93359375 -1.0859375 C-34.99780189 4.23374801 -32.13999446 9.58944929 -29.375 15 C-28.82585937 16.0725 -28.27671875 17.145 -27.7109375 18.25 C-25.52245729 23.04666894 -23.80178269 28.04509761 -22 33 C-11.77 33 -1.54 33 9 33 C-1.71535153 18.71286463 -13.47092339 8.9183708 -29.125 0.4375 C-29.76469727 0.09050049 -30.40439453 -0.25649902 -31.06347656 -0.61401367 C-33.9150034 -2.10674129 -35.73355344 -3 -39 -3 Z M-179 48 C-184.86696393 59.34016784 -184.86696393 59.34016784 -188.875 71.0625 C-189.07351562 71.74892578 -189.27203125 72.43535156 -189.4765625 73.14257812 C-191.2999561 79.90022263 -191.44024997 85.72324955 -192 93 C-177.48 93 -162.96 93 -148 93 C-147.731875 89.57625 -147.46375 86.1525 -147.1875 82.625 C-146.49197157 74.19736326 -145.49529187 65.90362776 -143.96557617 57.58642578 C-143.36139876 54.2970586 -143 51.36376457 -143 48 C-154.88 48 -166.76 48 -179 48 Z M-126 48 C-129.17992012 60.0987033 -129.17992012 60.0987033 -131.25 72.1875 C-131.39953125 73.37730469 -131.5490625 74.56710938 -131.703125 75.79296875 C-132.10692711 81.5152697 -132 87.26346931 -132 93 C-117.48 93 -102.96 93 -88 93 C-88 78.15 -88 63.3 -88 48 C-100.54 48 -113.08 48 -126 48 Z M-72 48 C-72 62.85 -72 77.7 -72 93 C-57.48 93 -42.96 93 -28 93 C-27.87055789 82.94739691 -27.87055789 82.94739691 -28.8046875 73.25390625 C-28.97613281 72.14982422 -29.14757812 71.04574219 -29.32421875 69.90820312 C-29.50597656 68.80412109 -29.68773437 67.70003906 -29.875 66.5625 C-30.04902344 65.43134766 -30.22304687 64.30019531 -30.40234375 63.13476562 C-31.25035589 57.7985707 -32.27528367 53.17414898 -34 48 C-46.54 48 -59.08 48 -72 48 Z M-17 48 C-16.21958885 55.11536036 -16.21958885 55.11536036 -15.28125 62.19921875 C-15.15363281 63.09962891 -15.02601563 64.00003906 -14.89453125 64.92773438 C-14.63424636 66.7484401 -14.37128303 68.56876519 -14.10546875 70.38867188 C-13.04037461 77.95729537 -12.54868828 85.31836405 -12 93 C2.52 93 17.04 93 32 93 C31.20356655 81.77177569 31.20356655 81.77177569 28.875 71.0625 C28.6996875 70.37994141 28.524375 69.69738281 28.34375 68.99414062 C26.18802063 61.30210628 22.73096404 55.46192807 19 48 C7.12 48 -4.76 48 -17 48 Z M-192 109 C-191.20356655 120.22822431 -191.20356655 120.22822431 -188.875 130.9375 C-188.6996875 131.62005859 -188.524375 132.30261719 -188.34375 133.00585938 C-186.18802063 140.69789372 -182.73096404 146.53807193 -179 154 C-167.12 154 -155.24 154 -143 154 C-143.78041115 146.88463964 -143.78041115 146.88463964 -144.71875 139.80078125 C-144.84636719 138.90037109 -144.97398437 137.99996094 -145.10546875 137.07226562 C-145.36575364 135.2515599 -145.62871697 133.43123481 -145.89453125 131.61132812 C-146.95962539 124.04270463 -147.45131172 116.68163595 -148 109 C-162.52 109 -177.04 109 -192 109 Z M-132 109 C-132.12944211 119.05260309 -132.12944211 119.05260309 -131.1953125 128.74609375 C-130.93814453 130.4022168 -130.93814453 130.4022168 -130.67578125 132.09179688 C-130.49402344 133.19587891 -130.31226563 134.29996094 -130.125 135.4375 C-129.95097656 136.56865234 -129.77695313 137.69980469 -129.59765625 138.86523438 C-128.74964411 144.2014293 -127.72471633 148.82585102 -126 154 C-113.46 154 -100.92 154 -88 154 C-88 139.15 -88 124.3 -88 109 C-102.52 109 -117.04 109 -132 109 Z M-72 109 C-72 123.85 -72 138.7 -72 154 C-59.46 154 -46.92 154 -34 154 C-32.02292216 146.75071459 -30.33385948 139.99218311 -29.3125 132.625 C-29.18294922 131.78195313 -29.05339844 130.93890625 -28.91992188 130.0703125 C-27.89403858 122.8619897 -28 116.4698358 -28 109 C-42.52 109 -57.04 109 -72 109 Z M-12 109 C-12.268125 112.42375 -12.53625 115.8475 -12.8125 119.375 C-13.50802843 127.80263674 -14.50470813 136.09637224 -16.03442383 144.41357422 C-16.63860124 147.7029414 -17 150.63623543 -17 154 C-5.12 154 6.76 154 19 154 C24.86696393 142.65983216 24.86696393 142.65983216 28.875 130.9375 C29.07351562 130.25107422 29.27203125 129.56464844 29.4765625 128.85742188 C31.2999561 122.09977737 31.44024997 116.27675045 32 109 C17.48 109 2.96 109 -12 109 Z M-169 169 C-158.27624989 183.29833348 -146.49003486 193.05941611 -130.875 201.625 C-130.23530273 201.98037842 -129.59560547 202.33575684 -128.93652344 202.7019043 C-127.33200952 203.55045359 -125.66831807 204.28500654 -124 205 C-123.01 204.67 -122.02 204.34 -121 204 C-121.556875 203.14921875 -122.11375 202.2984375 -122.6875 201.421875 C-129.27512815 191.06200573 -133.6434824 180.48536459 -138 169 C-148.23 169 -158.46 169 -169 169 Z M-121 169 C-115.33688826 185.98933522 -107.05876605 201.78215234 -91 211 C-89.515 211.495 -89.515 211.495 -88 212 C-88 197.81 -88 183.62 -88 169 C-98.89 169 -109.78 169 -121 169 Z M-72 169 C-72 183.19 -72 197.38 -72 212 C-58.51353247 205.25676623 -51.6774948 196.28231145 -44.625 183.25 C-44.29121338 182.63648682 -43.95742676 182.02297363 -43.61352539 181.39086914 C-41.42587647 177.21414165 -40.33345082 173.66707787 -39 169 C-49.89 169 -60.78 169 -72 169 Z M-22 169 C-22.845625 171.18625 -23.69125 173.3725 -24.5625 175.625 C-28.58271398 185.80625081 -33.39846576 195.58942247 -39 205 C-21.90986541 202.60931955 -4.9458315 186.43756429 6 174 C6.99 172.35 7.98 170.7 9 169 C-1.23 169 -11.46 169 -22 169 Z " fill="#FFFFFF" transform="translate(208,27)"/>
</svg>
