<?xml version="1.0" encoding="UTF-8"?>
<svg version="1.1" xmlns="http://www.w3.org/2000/svg" width="1878" height="1538">
<path d="M0 0 C1.17997559 0.18723633 2.35995117 0.37447266 3.57568359 0.56738281 C61.55886134 10.10902269 118.7884514 32.18401239 167 66 C167.53463867 66.37157227 168.06927734 66.74314453 168.62011719 67.12597656 C190.57540406 82.4084557 210.74114662 99.71560087 229.72268677 118.54745483 C231.1444053 119.95726623 232.57006788 121.36309679 233.99584961 122.76879883 C240.1037581 128.86907311 245.61152269 135.26288538 251 142 C251.93501758 143.10162616 252.87635133 144.19797414 253.828125 145.28515625 C289.95591386 186.71557219 315.29759081 237.96899099 331.125 290.3125 C331.50374268 291.56409912 331.88248535 292.81569824 332.27270508 294.10522461 C334.02654702 300.08283784 335.49046846 305.78525919 336 312 C336.86351074 311.98428955 337.72702148 311.9685791 338.61669922 311.95239258 C422.46991782 310.63680852 506.60638082 339.66601288 568.33203125 397.515625 C570.53585299 399.56779283 572.77099825 401.54780784 575.0625 403.5 C582.98200613 410.38007095 590.22807437 417.99941275 597 426 C597.79664063 426.9075 598.59328125 427.815 599.4140625 428.75 C647.36597251 483.73603211 678.86538811 559.76929086 679.203125 633.09765625 C679.21013931 634.12189194 679.21715363 635.14612762 679.22438049 636.20140076 C679.24178709 639.48847909 679.24823279 642.77537727 679.25 646.0625 C679.25101212 647.74714355 679.25101212 647.74714355 679.25204468 649.46582031 C679.23638198 665.85573828 678.82413306 681.8184064 676 698 C675.82839355 699.0430127 675.65678711 700.08602539 675.47998047 701.16064453 C665.03256147 763.89184044 637.15802595 824.72536801 593.484375 871.33203125 C591.43220717 873.53585299 589.45219216 875.77099825 587.5 878.0625 C580.61992905 885.98200613 573.00058725 893.22807437 565 900 C563.63875 901.19496094 563.63875 901.19496094 562.25 902.4140625 C505.53481062 951.87392627 428.36572703 982.27365019 352.98518372 982.12025452 C351.37939219 982.12069124 349.77360074 982.12156801 348.16780967 982.12284368 C343.78024423 982.12506874 339.39270344 982.12109473 335.00514114 982.11606562 C330.26432224 982.11173261 325.52350465 982.11320956 320.78268433 982.1139679 C312.57716864 982.11449133 304.37166092 982.11136342 296.16614723 982.10573006 C284.30246498 982.09759055 272.43878656 982.09499732 260.57510182 982.09374207 C241.32537494 982.0915554 222.07565231 982.08490575 202.82592773 982.07543945 C184.13061545 982.06625538 165.43530432 982.05919088 146.73999023 982.05493164 C145.57516454 982.05466364 144.41033884 982.05439565 143.21021539 982.05411953 C134.1000244 982.05204001 124.98983339 982.05008312 115.87964237 982.04816496 C71.25309101 982.03873744 26.62655029 982.01861767 -18 982 C-18 903.79 -18 825.58 -18 745 C22.26 744.67 62.52 744.34 104 744 C98.72 737.07 93.44 730.14 88 723 C82 715 82 715 79.1171875 711.14453125 C75.4849893 706.30120645 71.80197204 701.49685701 68.125 696.6875 C62.89167752 689.83941636 57.72194192 682.9501844 52.625 676 C47.65404127 669.22210879 42.59840782 662.52697482 37.45214844 655.88085938 C29.18574149 645.17400007 20.99597392 634.41048004 13 623.5 C5.47075018 613.22796734 -2.25829764 603.1123672 -10 593 C-18.33054221 582.11847836 -26.61390911 571.21227084 -34.71582031 560.15917969 C-41.68215647 550.67536463 -48.84704614 541.34333207 -56 532 C-64.33054221 521.11847836 -72.61390911 510.21227084 -80.71582031 499.15917969 C-87.68215647 489.67536463 -94.84704614 480.34333207 -102 471 C-112.13408012 457.76266089 -122.16220399 444.45942782 -132 431 C-136.46572891 435.1657919 -139.93568687 439.80505173 -143.5 444.75 C-144.75136464 446.46704987 -146.00399446 448.18317833 -147.2578125 449.8984375 C-147.8859082 450.75791992 -148.51400391 451.61740234 -149.16113281 452.50292969 C-151.85502014 456.16106559 -154.60729893 459.7725406 -157.375 463.375 C-157.899729 464.05868652 -158.42445801 464.74237305 -158.96508789 465.44677734 C-160.06084232 466.87364555 -161.15696049 468.30023448 -162.25341797 469.7265625 C-170.59414551 480.58326572 -178.90643476 491.45732965 -187 502.5 C-195.19088656 513.67458459 -203.61911483 524.66515956 -212.04101562 535.66601562 C-219.10048323 544.89137933 -226.13227867 554.13066134 -233 563.5 C-241.19093874 574.67454762 -249.61911374 585.66515814 -258.04101562 596.66601562 C-265.10048323 605.89137933 -272.13227867 615.13066134 -279 624.5 C-287.19093874 635.67454762 -295.61911374 646.66515814 -304.04101562 657.66601562 C-311.10048323 666.89137933 -318.13227867 676.13066134 -325 685.5 C-332.5293829 695.77201527 -340.2601988 705.88612695 -348 716 C-350.89769919 719.79024491 -353.7930172 723.58229857 -356.6875 727.375 C-357.6762915 728.66736572 -357.6762915 728.66736572 -358.68505859 729.98583984 C-359.62019287 731.21101318 -359.62019287 731.21101318 -360.57421875 732.4609375 C-361.11651123 733.17040527 -361.65880371 733.87987305 -362.2175293 734.61083984 C-364.52626416 737.70538571 -366.75590333 740.85826466 -369 744 C-308.61 744.495 -308.61 744.495 -247 745 C-247 900.76 -247 1056.52 -247 1217 C-206.41 1217 -165.82 1217 -124 1217 C-125.52305875 1220.80764687 -126.35954037 1222.7585667 -128.765625 1225.7578125 C-129.59513672 1226.80485352 -129.59513672 1226.80485352 -130.44140625 1227.87304688 C-131.03824219 1228.61619141 -131.63507813 1229.35933594 -132.25 1230.125 C-137.29165161 1236.49752237 -142.21245567 1242.93441867 -147 1249.5 C-151.56608409 1255.74933309 -156.22262649 1261.9106811 -161 1268 C-166.33299904 1274.80020459 -171.50228795 1281.70274609 -176.60498047 1288.67700195 C-181.71079565 1295.64225469 -186.93388662 1302.51371788 -192.17919922 1309.37426758 C-196.14591727 1314.56347261 -200.09064358 1319.76745621 -204 1325 C-208.58414706 1331.13572867 -213.22312124 1337.22799746 -217.875 1343.3125 C-223.10832248 1350.16058364 -228.27805808 1357.0498156 -233.375 1364 C-238.34595873 1370.77789121 -243.40159218 1377.47302518 -248.54785156 1384.11914062 C-256.81425851 1394.82599993 -265.00402608 1405.58951996 -273 1416.5 C-281.19083432 1427.67462159 -289.61911592 1438.66516099 -298.04101562 1449.66601562 C-305.68842156 1459.65970142 -313.27569688 1469.68790431 -320.71362305 1479.83862305 C-325.70960967 1486.64183388 -330.81578709 1493.35736313 -335.94458008 1500.06079102 C-341.36179288 1507.14524373 -346.71868213 1514.27326288 -352.04077148 1521.42944336 C-355.24778373 1525.72675934 -358.52151841 1529.91884363 -362 1534 C-366.229517 1529.9823512 -369.76634597 1525.62469146 -373.3125 1521 C-373.91642578 1520.2174585 -374.52035156 1519.43491699 -375.14257812 1518.62866211 C-377.09948045 1516.0891457 -379.05022646 1513.54499275 -381 1511 C-381.65532715 1510.14680176 -382.3106543 1509.29360352 -382.98583984 1508.41455078 C-390.66910087 1498.40656255 -398.25612069 1488.33590708 -405.71533203 1478.15991211 C-412.68171097 1468.67576625 -419.84686938 1459.34356297 -427 1450 C-435.33054221 1439.11847836 -443.61390911 1428.21227084 -451.71582031 1417.15917969 C-458.68215647 1407.67536463 -465.84704614 1398.34333207 -473 1389 C-481.33054221 1378.11847836 -489.61390911 1367.21227084 -497.71582031 1356.15917969 C-504.68215647 1346.67536463 -511.84704614 1337.34333207 -519 1328 C-527.32990049 1317.11931658 -535.61412614 1306.21495735 -543.71362305 1295.16137695 C-548.71768152 1288.34717439 -553.83334834 1281.62177525 -558.96875 1274.90625 C-564.13207375 1268.15115014 -569.24159819 1261.35755374 -574.33325195 1254.54833984 C-579.72104374 1247.35179447 -585.16715337 1240.20051072 -590.63476562 1233.06445312 C-601 1219.50991587 -601 1219.50991587 -601 1217 C-560.41 1217 -519.82 1217 -478 1217 C-478 1139.45 -478 1061.9 -478 982 C-511.5775 982.03480469 -545.155 982.06960938 -579.75 982.10546875 C-601.01432338 982.12079623 -622.27864337 982.13538054 -643.54296875 982.14648438 C-654.00438211 982.15197521 -664.46579537 982.15760625 -674.92720847 982.16357798 C-676.34602723 982.16438752 -677.76484599 982.16519263 -679.18366475 982.16599327 C-701.760395 982.17876987 -724.33710255 982.20126318 -746.9138191 982.22889166 C-770.79768528 982.25806636 -794.68153665 982.27600392 -818.56542015 982.28226548 C-832.85756403 982.28637084 -847.14964275 982.29931222 -861.44176656 982.3237494 C-871.25771787 982.33967267 -881.07363576 982.34438551 -890.88959903 982.34050413 C-896.54311077 982.33859281 -902.19650909 982.34141145 -907.85000038 982.35761642 C-951.48239434 982.47655576 -951.48239434 982.47655576 -971 979 C-972.26684128 978.79106204 -973.53368256 978.58212408 -974.83891296 978.36685467 C-977.62000702 977.89347005 -980.36848759 977.34878035 -983.125 976.75 C-984.09888672 976.54238037 -985.07277344 976.33476074 -986.07617188 976.12084961 C-996.61299539 973.7816952 -1006.8092465 970.52780573 -1017 967 C-1017.69432129 966.76732422 -1018.38864258 966.53464844 -1019.10400391 966.29492188 C-1047.78380332 956.65586213 -1074.62681944 941.09186371 -1098 922 C-1098.57411621 921.54012695 -1099.14823242 921.08025391 -1099.73974609 920.60644531 C-1115.60195261 907.85945247 -1130.83292975 893.19244118 -1142.77734375 876.68017578 C-1144.08712783 874.88026882 -1145.43118725 873.10970907 -1146.78125 871.33984375 C-1170.83557095 839.57278891 -1186.97146743 801.97446471 -1194.875 763 C-1195.16153442 761.58908081 -1195.16153442 761.58908081 -1195.45385742 760.1496582 C-1198.53039276 743.93541006 -1199.37725806 727.84856325 -1199.3125 711.375 C-1199.31067719 710.40922028 -1199.30885437 709.44344055 -1199.30697632 708.44839478 C-1199.26041083 693.77116454 -1198.69540578 679.46089287 -1196 665 C-1195.84966309 664.11924805 -1195.69932617 663.23849609 -1195.54443359 662.33105469 C-1185.97114703 607.07837898 -1157.62804895 557.69863308 -1118.4375 518.1875 C-1117.57503662 517.31561035 -1116.71257324 516.4437207 -1115.82397461 515.54541016 C-1109.85840199 509.60978122 -1103.61109045 504.20345266 -1097 499 C-1096.25371338 498.40936768 -1095.50742676 497.81873535 -1094.73852539 497.21020508 C-1060.55337623 470.51790653 -1020.29556687 452.58994793 -977.8125 444.25 C-976.80485596 444.05124268 -975.79721191 443.85248535 -974.7590332 443.64770508 C-956.72807378 440.28267601 -939.17697151 439.73589137 -920.875 439.875 C-918.54818097 439.88505876 -916.2213577 439.89417945 -913.89453125 439.90234375 C-908.26292612 439.92410717 -902.63148373 439.95735116 -897 440 C-896.72289185 438.87247314 -896.72289185 438.87247314 -896.44018555 437.72216797 C-883.51926032 385.77934185 -861.39101462 338.05197926 -828 296 C-827.26136719 295.06671875 -826.52273438 294.1334375 -825.76171875 293.171875 C-820.95426331 287.19457695 -815.89315561 281.50761197 -810.671875 275.89453125 C-808.31591948 273.3422461 -806.03057999 270.74423754 -803.75 268.125 C-783.9431004 246.0898242 -759.22929505 227.32792379 -734 212 C-732.8560376 211.30342285 -732.8560376 211.30342285 -731.68896484 210.59277344 C-690.06541451 185.50158495 -645.03946463 169.52530776 -597 162 C-596.02353516 161.83628906 -595.04707031 161.67257813 -594.04101562 161.50390625 C-560.95623807 156.11231287 -524.03436927 156.46156449 -491 162 C-489.93845703 162.16628906 -488.87691406 162.33257812 -487.78320312 162.50390625 C-460.69982164 166.79277018 -434.57477835 174.16829997 -409 184 C-408.72019287 183.25161865 -408.44038574 182.5032373 -408.15209961 181.73217773 C-407.13137487 179.31155249 -406.0745904 177.41721815 -404.56640625 175.28515625 C-404.0880835 174.60614258 -403.60976074 173.92712891 -403.11694336 173.22753906 C-402.60397705 172.51307617 -402.09101074 171.79861328 -401.5625 171.0625 C-401.02826416 170.31323242 -400.49402832 169.56396484 -399.94360352 168.79199219 C-385.68143581 148.93397028 -369.66271734 130.62428154 -352.45254517 113.27731323 C-351.04273377 111.8555947 -349.63690321 110.42993212 -348.23120117 109.00415039 C-342.13092689 102.8962419 -335.73711462 97.38847731 -329 92 C-327.89837384 91.06498242 -326.80202586 90.12364867 -325.71484375 89.171875 C-277.65721158 47.26507902 -215.96053531 18.72409182 -154 5 C-153.01338379 4.77860352 -152.02676758 4.55720703 -151.01025391 4.32910156 C-101.86037877 -6.48720639 -49.69393212 -7.94636243 0 0 Z " fill="#01A8FF" transform="translate(1199,4)"/>
</svg>
