<?xml version="1.0" encoding="UTF-8"?>
<svg version="1.1" xmlns="http://www.w3.org/2000/svg" width="256" height="256">
<path d="M0 0 C2.89577115 2.53379976 3.88439638 4.59908682 4.27029419 8.44096375 C4.23642406 17.17570725 3.22816454 25.59086738 1.8671875 34.20703125 C1.63564858 35.7196457 1.40493046 37.23238597 1.17495728 38.74523926 C0.55071618 42.83372189 -0.08595911 46.92017389 -0.72567749 51.00625992 C-1.26285533 54.44497298 -1.79381649 57.88463476 -2.32487106 61.3242979 C-3.59941965 69.57835613 -4.88466535 77.83070243 -6.17675781 86.08203125 C-7.42027304 94.02324378 -8.65330084 101.9660096 -9.87792969 109.91015625 C-11.28255729 119.02121695 -12.6962744 128.13080841 -14.12148476 137.23867321 C-14.88558883 142.12185478 -15.64639222 147.00548823 -16.39849854 151.89053345 C-17.10901103 156.50222869 -17.83129922 161.11193322 -18.56236649 165.72041321 C-18.82895586 167.41314599 -19.09154293 169.10651497 -19.34971237 170.80055237 C-22.64758754 192.39758754 -22.64758754 192.39758754 -28.5625 198.3125 C-34.02173267 201.53204747 -39.5514539 201.60569305 -45.61328125 200.1015625 C-57.98685865 195.91137855 -68.74871661 188.06098532 -79.5 180.8125 C-80.64430736 180.04458814 -81.78883824 179.27700925 -82.93359375 178.50976562 C-85.19023747 176.99683847 -87.44544243 175.48180138 -89.69970703 173.96533203 C-92.92638502 171.79941429 -96.16142936 169.64653254 -99.3984375 167.49609375 C-129.73307396 147.28385207 -129.73307396 147.28385207 -134 138.75 C-134.13182284 134.04204133 -133.54932394 130.582309 -130.9375 126.625 C-128.84780219 124.43627323 -126.57051148 122.48055124 -124.28125 120.50390625 C-120.29028229 117.0263033 -116.41162078 113.44575925 -112.5625 109.8125 C-111.15237603 108.48434073 -109.7422187 107.15621688 -108.33203125 105.828125 C-107.6148291 105.15201172 -106.89762695 104.47589844 -106.15869141 103.77929688 C-104.07436409 101.81990662 -101.98200479 99.8695352 -99.88671875 97.921875 C-89.3512974 88.10628054 -79.12948972 77.99948646 -69.00268555 67.76342773 C-67.38293195 66.13498596 -65.74529595 64.52963156 -64.09765625 62.9296875 C-62.14345194 60.89906179 -60.64994272 58.96276314 -59.1875 56.5625 C-58.76855469 55.88832031 -58.34960938 55.21414062 -57.91796875 54.51953125 C-56.84650375 52.78635585 -56.84650375 52.78635585 -57 50.75 C-66.88427824 51.9525383 -75.16236126 58.0464832 -83.16015625 63.640625 C-84.57626558 64.62238643 -85.99296109 65.60330273 -87.41015625 66.58349609 C-88.15563721 67.09918152 -88.90111816 67.61486694 -89.66918945 68.1461792 C-93.72096371 70.93418779 -97.79984489 73.68182193 -101.87890625 76.4296875 C-102.73679749 77.00791763 -103.59468872 77.58614777 -104.47857666 78.18190002 C-108.11214708 80.630005 -111.74691025 83.07633326 -115.38220215 85.5218811 C-125.09677446 92.05727666 -134.8057392 98.59827783 -144.44921875 105.23828125 C-146.55679384 106.68470181 -148.66471834 108.13061202 -150.77267456 109.57647705 C-152.07739181 110.47453363 -153.37979847 111.37595758 -154.67971802 112.28094482 C-156.46315775 113.5224992 -158.25407067 114.7524926 -160.046875 115.98046875 C-161.03526367 116.66520264 -162.02365234 117.34993652 -163.04199219 118.05541992 C-172.96203501 123.73840253 -184.50896487 122.91483981 -195.18334961 120.05639648 C-198.78263488 119.01320974 -202.35418966 117.89711121 -205.91943359 116.74316406 C-209.33984541 115.640435 -212.77307192 114.58318377 -216.20703125 113.5234375 C-218.65967844 112.74739195 -221.11151284 111.96877261 -223.5625 111.1875 C-225.32062012 110.64234741 -225.32062012 110.64234741 -227.11425781 110.08618164 C-228.76119629 109.54658813 -228.76119629 109.54658813 -230.44140625 108.99609375 C-231.41795166 108.68341553 -232.39449707 108.3707373 -233.40063477 108.04858398 C-236.59931392 106.45059634 -238.0738869 104.74098374 -240 101.75 C-240.16027668 97.26225297 -239.6308362 95.42936206 -236.5625 92.125 C-228.2033033 86.06510081 -218.01599702 82.62197367 -208.49661255 78.82214355 C-204.3596423 77.16997457 -200.22882254 75.50255454 -196.09765625 73.8359375 C-195.24995163 73.49421509 -194.40224701 73.15249268 -193.52885437 72.80041504 C-185.18036339 69.42973629 -176.86803858 65.97490453 -168.5625 62.5 C-165.57176981 61.24962838 -162.58087103 59.99966076 -159.58984375 58.75 C-158.82582245 58.43076569 -158.06180115 58.11153137 -157.27462769 57.78262329 C-147.40274009 53.66107481 -137.51356172 49.581339 -127.625 45.5 C-126.66100281 45.10206238 -125.69700562 44.70412476 -124.70379639 44.29412842 C-119.78038736 42.26179157 -114.85681124 40.22986001 -109.93310547 38.19824219 C-101.14406624 34.5716732 -92.35574376 30.94336922 -83.56774902 27.31427002 C-80.70968604 26.13416073 -77.85143248 24.95451396 -74.99316406 23.77490234 C-65.36842328 19.80158136 -55.74881263 15.8163257 -46.13671875 11.8125 C-44.22373018 11.01640038 -42.31072591 10.2203385 -40.39770508 9.42431641 C-36.79337703 7.92448126 -33.19058821 6.42102681 -29.58862305 4.91552734 C-27.97320331 4.24302286 -26.357728 3.57065184 -24.7421875 2.8984375 C-24.0121904 2.59212402 -23.2821933 2.28581055 -22.53007507 1.97021484 C-15.24828046 -1.05211919 -7.6034117 -3.16808821 0 0 Z " fill="#FFFCFC" transform="translate(246,28.25)"/>
</svg>
