<?xml version="1.0" encoding="UTF-8"?>
<svg version="1.1" xmlns="http://www.w3.org/2000/svg" width="256" height="256">
<path d="M0 0 C3.69210776 0.00008067 7.38408987 -0.00678352 11.07617188 -0.02050781 C30.91051251 -0.0930186 50.68930585 0.08187457 70.50024414 1.11889648 C71.714761 1.18212066 71.714761 1.18212066 72.95381355 1.24662209 C112.77334881 3.37102093 112.77334881 3.37102093 124.01586914 14.87280273 C132.13850189 25.45982648 132.66616585 39.35451497 134.01586914 52.18530273 C134.09952728 52.96341309 134.18318542 53.74152344 134.26937866 54.54321289 C134.97328445 61.55937822 135.19134539 68.5115748 135.21899414 75.56030273 C135.22469421 76.72368164 135.23039429 77.88706055 135.23626709 79.08569336 C135.24566602 81.54304105 135.2522306 84.00040106 135.25610352 86.45776367 C135.2656975 90.11978871 135.29672439 93.78122412 135.32836914 97.44311523 C135.38378937 109.62324977 135.01068301 121.63311061 133.68774414 133.74780273 C133.51266327 135.36041992 133.51266327 135.36041992 133.33404541 137.00561523 C131.88199269 149.00305716 130.03161865 161.89695654 120.76586914 170.49780273 C106.65241709 181.27687905 86.7603495 180.36277485 69.83618164 181.25561523 C69.02018431 181.29904808 68.20418697 181.34248093 67.36346245 181.38722992 C49.18624037 182.33187203 31.02843531 182.49378344 12.83007812 182.44604492 C8.45709624 182.43466065 4.08435836 182.44144147 -0.28861523 182.4529295 C-18.65504287 182.49367348 -36.96849704 182.20424139 -55.31225586 181.25170898 C-56.12257704 181.20994286 -56.93289822 181.16817673 -57.76777458 181.12514496 C-93.73296205 179.22741 -93.73296205 179.22741 -103.98413086 172.18530273 C-104.89163086 171.62842773 -105.79913086 171.07155273 -106.73413086 170.49780273 C-124.7956354 151.93458973 -121.54252532 114.81521275 -121.42163086 90.99780273 C-121.41925415 89.75947693 -121.41687744 88.52115112 -121.41442871 87.24530029 C-121.2400695 29.08150437 -121.2400695 29.08150437 -108.78881836 13.96655273 C-96.34518381 1.68452383 -76.37121022 2.1511319 -59.98413086 1.18530273 C-59.25408844 1.14186737 -58.52404602 1.09843201 -57.7718811 1.05368042 C-38.52791012 -0.03904403 -19.26789757 -0.00221432 0 0 Z M-17.98413086 53.18530273 C-17.98413086 78.26530273 -17.98413086 103.34530273 -17.98413086 129.18530273 C-13.36413086 126.54530273 -8.74413086 123.90530273 -3.98413086 121.18530273 C-1.19561454 119.63721224 1.59490283 118.09464055 4.39086914 116.56030273 C11.86614304 112.43123809 19.26342184 108.17396607 26.64086914 103.87280273 C28.15173096 102.99277588 28.15173096 102.99277588 29.69311523 102.0949707 C32.47357991 100.46866118 35.24635892 98.83018329 38.01586914 97.18530273 C38.83667969 96.70399902 39.65749023 96.22269531 40.50317383 95.72680664 C42.37590271 94.60292258 44.20225363 93.40227751 46.01586914 92.18530273 C46.01586914 91.52530273 46.01586914 90.86530273 46.01586914 90.18530273 C45.04653442 89.62939453 45.04653442 89.62939453 44.05761719 89.06225586 C30.06235169 81.02914307 16.11611863 72.92447792 2.26660156 64.64233398 C1.21577393 64.01584961 0.16494629 63.38936523 -0.91772461 62.74389648 C-1.82578857 62.20047607 -2.73385254 61.65705566 -3.66943359 61.09716797 C-8.39206787 58.37322682 -13.19793872 55.79595299 -17.98413086 53.18530273 Z " fill="#FFFFFF" transform="translate(120.984130859375,36.814697265625)"/>
</svg>
