<?xml version="1.0" encoding="UTF-8"?>
<svg version="1.1" xmlns="http://www.w3.org/2000/svg" width="512" height="512">
<path d="M0 0 C1.07633698 -0.00700928 2.15267395 -0.01401855 3.2616272 -0.02124023 C6.78536522 -0.03870641 10.30828644 -0.02723743 13.83203125 -0.01367188 C16.30102694 -0.01637004 18.7700216 -0.02025516 21.23901367 -0.02526855 C26.4000058 -0.03114824 31.56072 -0.02264969 36.72167969 -0.00390625 C43.31536487 0.01888181 49.90839862 0.00575058 56.50205994 -0.01819611 C61.59636281 -0.03269523 66.69051291 -0.02802915 71.78482056 -0.01768494 C74.21513955 -0.01502904 76.64547271 -0.01824708 79.07577515 -0.02760315 C82.48057456 -0.03783631 85.88433952 -0.0221721 89.2890625 0 C90.27951569 -0.00809692 91.26996887 -0.01619385 92.29043579 -0.02453613 C108.18105454 0.16581342 117.79538689 8.36347257 128.52734375 19.06445312 C129.34524384 19.87569641 130.16314392 20.6869397 131.00582886 21.52276611 C132.72443664 23.23130148 134.44039106 24.9425096 136.15380859 26.65625 C138.75845753 29.25652301 141.37868995 31.84036561 144 34.42382812 C145.67676114 36.09472037 147.35257427 37.7665646 149.02734375 39.43945312 C149.80248322 40.20022156 150.57762268 40.96098999 151.37625122 41.74481201 C162.89696141 53.36203491 165.94619656 63.3315114 165.93505859 79.35644531 C165.94104996 80.75833492 165.9478569 82.16022123 165.95541382 83.56210327 C165.97302098 87.35571258 165.97776701 91.14923155 165.97904539 94.94287777 C165.98047076 97.31779598 165.98474768 99.69269151 165.99003983 102.06760406 C166.00852391 110.36669869 166.01671263 118.66572923 166.01513672 126.96484375 C166.01393635 134.67826556 166.03502228 142.39140709 166.06662405 150.10475802 C166.09285286 156.74536911 166.10350123 163.38588905 166.1022259 170.02655149 C166.10171812 173.98456519 166.10729817 177.94232973 166.128582 181.90029144 C166.14807585 185.62689611 166.14801379 189.35301679 166.13354874 193.07963943 C166.13049107 195.08254619 166.14705946 197.08545358 166.16442871 199.08828735 C166.08087331 211.20622741 163.09834993 220.66199381 154.64453125 229.51757812 C144.50376978 239.19826724 133.8281705 241.11969267 120.16796875 241.03515625 C118.74578133 241.0405892 117.32359955 241.04771838 115.90142822 241.05639648 C112.07074188 241.07449383 108.24049075 241.06761927 104.40979767 241.05488014 C100.3817486 241.04468135 96.35373429 241.05416477 92.32568359 241.0604248 C85.56406026 241.06768134 78.80261227 241.05816615 72.04101562 241.0390625 C64.24795923 241.01729751 56.45532158 241.0243503 48.66227531 241.04636812 C41.94512817 241.06457925 35.22810634 241.06705267 28.51094246 241.05661345 C24.5105415 241.05040976 20.51033672 241.04945595 16.50994873 241.0627594 C12.74713503 241.07440101 8.98485587 241.06614274 5.2220993 241.04318237 C3.20017714 241.03545836 1.17820923 241.04717983 -0.84368896 241.05969238 C-12.99413585 240.94806129 -22.4719255 237.99808728 -31.35546875 229.51757812 C-41.87504213 218.49806463 -42.94975265 206.63908059 -42.87304688 192.10351562 C-42.87847643 190.36606258 -42.88560375 188.62861415 -42.89428711 186.89117432 C-42.91242434 182.20103782 -42.90549286 177.51125578 -42.89277077 172.82111359 C-42.88259309 167.89619543 -42.89204962 162.97130616 -42.89831543 158.04638672 C-42.90557801 149.7782653 -42.89604069 141.51028713 -42.87695312 133.2421875 C-42.85518709 123.70414689 -42.86223944 114.16644839 -42.88425875 104.62841606 C-42.90245243 96.41659571 -42.90495171 88.20487791 -42.89450407 79.9930439 C-42.88829092 75.098394 -42.88737323 70.20390452 -42.90065002 65.30926514 C-42.91226585 60.70601256 -42.90407886 56.10319799 -42.881073 51.49999237 C-42.87581637 49.81787592 -42.87724702 48.13572215 -42.88612366 46.45362091 C-42.95170785 32.75512638 -41.15332249 21.78107244 -31.35546875 11.51757812 C-22.29315471 2.86640877 -12.3374096 -0.10085794 0 0 Z M-8.35546875 35.51757812 C-10.39526826 39.43871545 -10.6084646 42.77328729 -10.61616516 47.1526947 C-10.61999071 47.80610181 -10.62381626 48.45950892 -10.62775773 49.13271624 C-10.63804721 51.31439025 -10.6341034 53.49579909 -10.63012695 55.67749023 C-10.63447567 57.24482974 -10.63965935 58.81216712 -10.64561462 60.37950134 C-10.65899843 64.63156262 -10.65958401 68.88353497 -10.65705132 73.1356132 C-10.65598124 76.68683988 -10.66086592 80.23804859 -10.66565675 83.78927141 C-10.67674969 92.16771481 -10.67719046 100.54611336 -10.67114258 108.92456055 C-10.66510143 117.56502334 -10.67741785 126.20532336 -10.69871265 134.84575838 C-10.71633078 142.26755814 -10.72232969 149.6893061 -10.7190749 157.11112601 C-10.71726231 161.54235451 -10.71989585 165.97346688 -10.73378944 170.40467644 C-10.74636671 174.57192616 -10.74442472 178.73892215 -10.73137856 182.90616798 C-10.72901303 184.43396973 -10.73174662 185.96178934 -10.74000168 187.48957062 C-10.75047337 189.57850005 -10.7423662 191.66657872 -10.72969055 193.75547791 C-10.72985829 194.92334807 -10.73002604 196.09121824 -10.73019886 197.29447842 C-10.29520966 201.03587397 -9.43454098 203.37723671 -7.35546875 206.51757812 C-3.9022746 208.5151987 -0.87641414 208.76958888 3.06480408 208.77827454 C4.14001816 208.78535934 5.21523224 208.79244415 6.32302856 208.79974365 C8.07726639 208.79602753 8.07726639 208.79602753 9.86694336 208.79223633 C11.10649277 208.79734726 12.34604218 208.80245819 13.62315369 208.807724 C17.01579496 208.81923203 20.40819169 208.82169527 23.80083537 208.8191607 C26.63628932 208.81808947 29.47172084 208.82297822 32.30716997 208.82776612 C38.99801001 208.83885334 45.6887939 208.8393031 52.37963867 208.83325195 C59.27510718 208.82721152 66.17037167 208.83952662 73.06580538 208.86082202 C78.99292802 208.87845182 84.9199858 208.88443723 90.8471337 208.88118428 C94.38411195 208.87937352 97.92094465 208.88198676 101.45789909 208.89589882 C105.40292205 208.910836 109.34768616 208.90149493 113.29272461 208.88989258 C114.46019226 208.89753632 115.62765991 208.90518005 116.83050537 208.91305542 C124.71198015 208.94542364 124.71198015 208.94542364 131.64453125 205.51757812 C133.40198254 201.977395 133.89643241 199.10099545 133.90522766 195.17323303 C133.91231247 194.11484726 133.91939728 193.05646149 133.92669678 191.96600342 C133.92421936 190.81521301 133.92174194 189.66442261 133.91918945 188.47875977 C133.92430038 187.2587175 133.92941132 186.03867523 133.93467712 184.78166199 C133.94618424 181.44273671 133.94864855 178.10405991 133.94611382 174.76513219 C133.9450425 171.974414 133.94993158 169.1837186 133.95471925 166.39300531 C133.96580601 159.80764043 133.96625648 153.22233259 133.96020508 146.63696289 C133.9541647 139.85055625 133.96647969 133.06435691 133.98777515 126.27798563 C134.00540588 120.44428026 134.01139021 114.61064079 134.0081374 108.77690977 C134.00632679 105.29582196 134.00893841 101.81488205 134.02285194 98.33381844 C134.03779103 94.45106023 134.02844725 90.56856496 134.0168457 86.68579102 C134.02448944 85.53702484 134.03213318 84.38825867 134.04000854 83.2046814 C133.98874442 75.44885678 132.8810725 70.3889683 127.26220703 64.74707031 C126.59786652 64.07327332 125.933526 63.39947632 125.24905396 62.70526123 C124.53651459 61.99879456 123.82397522 61.29232788 123.08984375 60.56445312 C121.98200027 59.45230438 121.98200027 59.45230438 120.85177612 58.31768799 C119.29370475 56.75758121 117.73186271 55.20123219 116.16650391 53.6484375 C113.77412163 51.27213765 111.39818405 48.88023775 109.0234375 46.48632812 C107.5048674 44.9697401 105.98536714 43.45408277 104.46484375 41.93945312 C103.75635284 41.22488953 103.04786194 40.51032593 102.31790161 39.77410889 C101.31193436 38.78232635 101.31193436 38.78232635 100.28564453 37.77050781 C99.70178986 37.18903992 99.11793518 36.60757202 98.51638794 36.00848389 C93.56672968 32.06615537 88.59080867 32.22532598 82.54321289 32.24291992 C81.63528488 32.23780899 80.72735687 32.23269806 79.79191589 32.22743225 C76.7961057 32.21355295 73.80052599 32.21449173 70.8046875 32.21679688 C68.71870336 32.21290915 66.63272 32.20857432 64.54673767 32.20381165 C60.176396 32.19635309 55.80613513 32.19663818 51.43579102 32.2019043 C45.83922981 32.20769963 40.24299946 32.19076448 34.64649296 32.16755962 C30.33904593 32.1528183 26.03167852 32.15195112 21.72421074 32.15506935 C19.66096783 32.15455638 17.59772044 32.14932322 15.53450203 32.13925743 C12.64786479 32.12690224 9.7618713 32.13367926 6.87524414 32.14526367 C6.0257016 32.13761993 5.17615906 32.1299762 4.3008728 32.12210083 C-0.6072474 32.16557198 -4.20598489 32.60386225 -8.35546875 35.51757812 Z " fill="#000000" transform="translate(58.35546875,15.482421875)"/>
<path d="M0 0 C1.61406738 -0.01029488 1.61406738 -0.01029488 3.26074219 -0.02079773 C6.79522131 -0.03900322 10.32925387 -0.03523673 13.86376953 -0.02954102 C16.33562361 -0.03410601 18.80747641 -0.03941253 21.27932739 -0.04542542 C26.45222133 -0.05434445 31.62496079 -0.05194726 36.79785156 -0.04199219 C43.40726482 -0.03050834 50.01614333 -0.050712 56.62548637 -0.07990932 C61.72835647 -0.0983088 66.83109933 -0.09797127 71.93399429 -0.0922718 C74.36990229 -0.09211903 76.80581915 -0.09812699 79.2416954 -0.11056328 C82.65625715 -0.1255406 86.06984254 -0.11474548 89.484375 -0.09765625 C90.97476791 -0.1121582 90.97476791 -0.1121582 92.49526978 -0.12695312 C103.64559111 -0.01085596 112.79975717 3.69843543 120.87158203 11.40405273 C131.39115541 22.42356623 132.46586593 34.28255027 132.38916016 48.81811523 C132.39458971 50.55556828 132.40171703 52.29301671 132.41040039 54.03045654 C132.42853762 58.72059304 132.42160614 63.41037508 132.40888405 68.10051727 C132.39870637 73.02543543 132.4081629 77.9503247 132.41442871 82.87524414 C132.42169129 91.14336556 132.41215397 99.41134372 132.39306641 107.67944336 C132.37130037 117.21748397 132.37835272 126.75518247 132.40037203 136.2932148 C132.41856571 144.50503515 132.42106499 152.71675295 132.41061735 160.92858696 C132.4044042 165.82323686 132.40348652 170.71772634 132.41676331 175.61236572 C132.42837913 180.2156183 132.42019215 184.81843287 132.39718628 189.42163849 C132.39192965 191.10375494 132.39336031 192.78590871 132.40223694 194.46800995 C132.46782113 208.16650448 130.66943577 219.14055842 120.87158203 229.40405273 C110.73082056 239.08474185 100.05522128 241.00616728 86.39501953 240.92163086 C84.97283211 240.92706381 83.55065033 240.93419299 82.128479 240.94287109 C78.29779267 240.96096844 74.46754153 240.95409388 70.63684845 240.94135475 C66.60879938 240.93115596 62.58078507 240.94063937 58.55273438 240.94689941 C51.79111104 240.95415595 45.02966305 240.94464076 38.26806641 240.92553711 C30.47501001 240.90377212 22.68237236 240.91082491 14.8893261 240.93284273 C8.17217895 240.95105386 1.45515712 240.95352728 -5.26200676 240.94308805 C-9.26240772 240.93688437 -13.2626125 240.93593056 -17.26300049 240.94923401 C-21.02581419 240.96087562 -24.78809335 240.95261735 -28.55084991 240.92965698 C-30.57277207 240.92193297 -32.59473999 240.93365444 -34.61663818 240.94616699 C-46.76708507 240.8345359 -56.24487471 237.88456189 -65.12841797 229.40405273 C-74.75140932 219.3237311 -76.73128578 208.69601263 -76.64599609 195.11108398 C-76.6514293 193.70860064 -76.65855864 192.30612302 -76.66723633 190.90365601 C-76.68533059 187.12668489 -76.67846044 183.35015527 -76.66571999 179.57317734 C-76.65551956 175.60118256 -76.66500506 171.62922299 -76.67126465 167.65722656 C-76.67852072 160.98975918 -76.66900724 154.32246962 -76.64990234 147.6550293 C-76.62813743 139.97103402 -76.63519026 132.28746343 -76.65720797 124.60347843 C-76.67542045 117.97974826 -76.67789186 111.35614518 -76.66745329 104.73239803 C-76.66125033 100.78788744 -76.66029372 96.8435758 -76.67359924 92.89907837 C-76.68524286 89.18879157 -76.67697907 85.47904678 -76.65402222 81.7688179 C-76.64630021 79.7755226 -76.65801796 77.78218089 -76.67053223 75.78890991 C-76.51097005 58.65948315 -69.16853511 49.12968198 -57.51123047 37.48608398 C-56.69524384 36.66581223 -55.8792572 35.84554047 -55.0385437 35.00041199 C-53.32153071 33.27768662 -51.60193259 31.55753431 -49.87988281 29.83984375 C-47.2594199 27.22254742 -44.65258618 24.59218381 -42.04638672 21.96069336 C-40.36881251 20.2808464 -38.6904531 18.60178314 -37.01123047 16.92358398 C-36.24013947 16.14328323 -35.46904846 15.36298248 -34.67459106 14.55903625 C-24.3199817 4.29148833 -14.62780918 -0.06600477 0 0 Z M-11.89892578 38.78637695 C-12.90962128 39.78288773 -12.90962128 39.78288773 -13.94073486 40.79953003 C-15.00043488 41.86833908 -15.00043488 41.86833908 -16.08154297 42.95874023 C-16.82297546 43.69730255 -17.56440796 44.43586487 -18.32830811 45.19680786 C-19.88841488 46.75487923 -21.4447639 48.31672128 -22.99755859 49.88208008 C-25.37385845 52.27446235 -27.76575835 54.65039993 -30.15966797 57.02514648 C-31.67625599 58.54371658 -33.19191332 60.06321684 -34.70654297 61.58374023 C-35.42110657 62.29223114 -36.13567017 63.00072205 -36.87188721 63.73068237 C-37.86366974 64.73664963 -37.86366974 64.73664963 -38.87548828 65.76293945 C-39.45695618 66.34679413 -40.03842407 66.9306488 -40.63751221 67.53219604 C-43.64321131 71.30590067 -44.37849714 75.00697543 -44.38911438 79.74839783 C-44.39619919 80.8067836 -44.403284 81.86516937 -44.4105835 82.95562744 C-44.40810608 84.10641785 -44.40562866 85.25720825 -44.40307617 86.44287109 C-44.4081871 87.66291336 -44.41329803 88.88295563 -44.41856384 90.13996887 C-44.43007096 93.47889415 -44.43253527 96.81757094 -44.43000054 100.15649867 C-44.42892922 102.94721686 -44.4338183 105.73791225 -44.43860596 108.52862555 C-44.44969272 115.11399043 -44.4501432 121.69929827 -44.4440918 128.28466797 C-44.43805142 135.07107461 -44.45036641 141.85727395 -44.47166187 148.64364523 C-44.4892926 154.4773506 -44.49527693 160.31099007 -44.49202412 166.14472109 C-44.49021351 169.6258089 -44.49282513 173.10674881 -44.50673866 176.58781242 C-44.52167775 180.47057063 -44.51233397 184.3530659 -44.50073242 188.23583984 C-44.50837616 189.38460602 -44.5160199 190.53337219 -44.52389526 191.71694946 C-44.53959114 199.52928695 -44.53959114 199.52928695 -41.12841797 206.40405273 C-37.56407942 208.17831414 -34.66418699 208.65603082 -30.70814514 208.66474915 C-29.63293106 208.67183395 -28.55771698 208.67891876 -27.44992065 208.68621826 C-25.69568283 208.68250214 -25.69568283 208.68250214 -23.90600586 208.67871094 C-22.66645645 208.68382187 -21.42690704 208.6889328 -20.14979553 208.69419861 C-16.75715426 208.70570664 -13.36475753 208.70816988 -9.97211385 208.70563531 C-7.1366599 208.70456408 -4.30122838 208.70945283 -1.46577924 208.71424073 C5.22506079 208.72532795 11.91584468 208.72577771 18.60668945 208.71972656 C25.50215796 208.71368613 32.39742245 208.72600123 39.29285616 208.74729663 C45.2199788 208.76492643 51.14703659 208.77091184 57.07418448 208.76765889 C60.61116273 208.76584813 64.14799543 208.76846137 67.68494987 208.78237343 C71.62997283 208.79731061 75.57473695 208.78796954 79.51977539 208.77636719 C80.68724304 208.78401093 81.85471069 208.79165466 83.05755615 208.79953003 C90.93903093 208.83189825 90.93903093 208.83189825 97.87158203 205.40405273 C99.8953163 201.47185379 100.12456851 198.15367401 100.13227844 193.76893616 C100.13610399 193.11552905 100.13992954 192.46212194 100.14387101 191.78891462 C100.15416049 189.60724061 100.15021668 187.42583177 100.14624023 185.24414062 C100.15058895 183.67680112 100.15577263 182.10946374 100.16172791 180.54212952 C100.17511171 176.29006824 100.17569729 172.03809589 100.17316461 167.78601766 C100.17209452 164.23479098 100.1769792 160.68358227 100.18177003 157.13235945 C100.19286298 148.75391605 100.19330375 140.37551749 100.18725586 131.99707031 C100.18121471 123.35660752 100.19353113 114.7163075 100.21482593 106.07587248 C100.23244406 98.65407272 100.23844297 91.23232476 100.23518819 83.81050485 C100.2333756 79.37927635 100.23600913 74.94816398 100.24990273 70.51695442 C100.26247999 66.3497047 100.260538 62.18270871 100.24749184 58.01546288 C100.24512632 56.48766112 100.2478599 54.95984152 100.25611496 53.43206024 C100.26658665 51.34313081 100.25847948 49.25505213 100.24580383 47.16615295 C100.24597157 45.99828279 100.24613932 44.83041262 100.24631214 43.62715244 C99.82019041 39.96202709 98.77273447 37.54962377 96.87158203 34.40405273 C92.60907994 31.67225579 87.67272072 32.11513208 82.77026367 32.12939453 C81.86233566 32.1242836 80.95440765 32.11917267 80.01896667 32.11390686 C77.02315648 32.10002756 74.02757677 32.10096634 71.03173828 32.10327148 C68.94575414 32.09938376 66.85977078 32.09504893 64.77378845 32.09028625 C60.40344679 32.0828277 56.03318591 32.08311279 51.6628418 32.08837891 C46.06628059 32.09417424 40.47005025 32.07723909 34.87354374 32.05403423 C30.56609671 32.03929291 26.2587293 32.03842573 21.95126152 32.04154396 C19.88801862 32.04103099 17.82477123 32.03579783 15.76155281 32.02573204 C12.87491557 32.01337685 9.98892209 32.02015387 7.10229492 32.03173828 C6.25275238 32.02409454 5.40320984 32.01645081 4.52792358 32.00857544 C-2.32006711 32.06922799 -6.97163899 33.87920535 -11.89892578 38.78637695 Z " fill="#000000" transform="translate(364.12841796875,255.595947265625)"/>
<path d="M0 0 C2.26536188 0.00840535 4.52810667 -0.02009208 6.79321289 -0.05200195 C25.45669506 -0.14236932 40.66031487 5.49909226 54.13891602 18.66088867 C72.22236762 37.13295313 73.30674883 58.26893397 73.55297852 82.82104492 C73.58621279 85.11793866 73.6207079 87.41481452 73.65649414 89.71166992 C73.74069166 95.28967208 73.80932773 100.86769357 73.86547852 106.44604492 C74.9521582 105.3071582 74.9521582 105.3071582 76.06079102 104.14526367 C77.0369406 103.14095592 78.01352647 102.13707209 78.99047852 101.13354492 C79.46485352 100.6340332 79.93922852 100.13452148 80.42797852 99.61987305 C84.26976599 95.7002115 88.07340297 92.88132636 93.64672852 92.01245117 C99.54796641 92.00397238 103.3415705 92.25315456 107.86547852 96.44604492 C111.4861867 100.75175195 113.16081085 104.84457492 112.86547852 110.44604492 C111.84568984 118.27894441 106.39019145 122.59455878 100.96704102 127.90307617 C99.96962217 128.89623949 98.97316671 129.89037119 97.97763062 130.88542175 C95.8953938 132.96151232 93.80519587 135.02909908 91.70825195 137.09033203 C89.0241237 139.72910134 86.35558291 142.382969 83.69219398 145.04265308 C81.63746808 147.09294593 79.5773545 149.13774912 77.51530075 151.18066978 C76.52949646 152.15761411 75.54474639 153.13562344 74.56108475 154.11472511 C73.18537847 155.48136414 71.80219359 156.84046244 70.41870117 158.19921875 C69.63419586 158.97308426 68.84969055 159.74694977 68.04141235 160.54426575 C64.11024837 163.98012656 61.18210039 164.75499375 55.99047852 164.82104492 C54.98243164 164.8494043 53.97438477 164.87776367 52.93579102 164.90698242 C45.06064289 163.72470828 39.5072553 156.37799542 34.16235352 151.00854492 C32.78385223 149.63291382 32.78385223 149.63291382 31.37750244 148.22949219 C29.44119284 146.29611797 27.50851357 144.35920627 25.57836914 142.41967773 C23.10818849 139.93807145 20.62909295 137.46559618 18.14722824 134.99568176 C15.77239865 132.62982357 13.40522509 130.25636726 11.03735352 127.88354492 C10.14779968 126.99803955 9.25824585 126.11253418 8.34173584 125.20019531 C7.52038147 124.37253662 6.6990271 123.54487793 5.8527832 122.69213867 C5.12919617 121.96696045 4.40560913 121.24178223 3.66009521 120.49462891 C-0.48519537 115.76271266 -0.62559489 111.5622242 -0.51342773 105.43041992 C0.04712355 101.01535616 1.60349186 98.4130647 4.86547852 95.44604492 C9.36506694 92.12492013 13.67692157 92.06648796 19.08422852 91.94995117 C25.23488251 93.04704816 29.55403121 97.86170682 33.74047852 102.19604492 C34.23805664 102.70264648 34.73563477 103.20924805 35.24829102 103.73120117 C36.45871054 104.964898 37.66277704 106.20482276 38.86547852 107.44604492 C38.91530161 101.52361241 38.95139665 95.60130472 38.9753418 89.67871094 C38.98533516 87.66827262 38.99893439 85.65784859 39.01635742 83.64746094 C39.69903674 62.29090594 39.69903674 62.29090594 30.86547852 43.44604492 C22.8859194 35.63135273 13.48392324 33.54157438 2.58032227 33.27026367 C1.63737305 33.24641602 0.69442383 33.22256836 -0.27709961 33.19799805 C-2.22739568 33.15494803 -4.17798836 33.12374179 -6.12866211 33.10424805 C-11.94089788 32.93318293 -15.57894084 32.42405592 -20.13452148 28.44604492 C-23.75399549 23.68357913 -24.84313806 19.93184757 -24.58764648 13.94604492 C-23.66133432 8.8353571 -21.15583732 4.94110648 -17.00024414 1.86743164 C-11.73360131 -0.74480167 -5.77055695 -0.0325673 0 0 Z " fill="#000000" transform="translate(344.134521484375,55.553955078125)"/>
<path d="M0 0 C7.83394001 7.07327405 15.3403383 14.46899285 22.8372345 21.89645386 C24.59893865 23.636477 26.36688413 25.37020321 28.14094543 27.09762573 C30.72165895 29.61131082 33.2820189 32.14424562 35.83894348 34.68209839 C36.6295668 35.44489105 37.42019012 36.20768372 38.23477173 36.99359131 C42.9000241 41.67646047 46.16822555 45.95170358 47.16316223 52.62741089 C46.77041041 59.05176818 44.8048974 63.20157038 40.16316223 67.62741089 C36.61953504 69.3576047 33.65646214 69.94665486 29.72566223 70.00241089 C28.81945129 70.03077026 27.91324036 70.05912964 26.97956848 70.08834839 C20.8038558 69.07762149 16.47557534 64.21274892 12.28816223 59.87741089 C11.79058411 59.37080933 11.29300598 58.86420776 10.78034973 58.34225464 C9.56993021 57.10855782 8.3658637 55.86863305 7.16316223 54.62741089 C7.11333914 60.5498434 7.0772441 66.47215109 7.05329895 72.39474487 C7.04330559 74.40518319 7.02970636 76.41560722 7.01228333 78.42599487 C6.329604 99.78254987 6.329604 99.78254987 15.16316223 118.62741089 C23.14272134 126.44210308 32.54471751 128.53188143 43.44831848 128.80319214 C44.3912677 128.82703979 45.33421692 128.85088745 46.30574036 128.87545776 C48.25603643 128.91850778 50.20662911 128.94971402 52.15730286 128.96920776 C59.73096543 129.19211501 63.25591007 130.56714545 68.53816223 136.12741089 C70.93619799 141.29241097 70.91697759 146.02763969 70.16316223 151.62741089 C67.8538425 156.60133031 64.88755365 158.95396935 60.16316223 161.62741089 C56.6431427 162.12911987 56.6431427 162.12911987 52.78034973 162.12350464 C52.08483002 162.12495987 51.3893103 162.1264151 50.67271423 162.12791443 C49.20529482 162.12626186 47.73785691 162.11477257 46.27058411 162.09396362 C44.06472416 162.06525657 41.8613126 162.07331741 39.65534973 162.08639526 C21.34106127 162.0618854 5.62236063 156.68172628 -7.75505066 143.97042847 C-18.11556181 133.55668639 -25.80227699 119.06576802 -26.04216003 104.1244812 C-26.07207787 102.47322235 -26.07207787 102.47322235 -26.1026001 100.78860474 C-26.11931259 99.60619202 -26.13602509 98.4237793 -26.15324402 97.20553589 C-26.17402512 95.99041321 -26.19480621 94.77529053 -26.21621704 93.52334595 C-26.28160605 89.64142516 -26.34054828 85.75943669 -26.39933777 81.87741089 C-26.44253309 79.24589347 -26.48614771 76.6143829 -26.53019714 73.98287964 C-26.6372766 67.53112829 -26.73906291 61.07930959 -26.83683777 54.62741089 C-27.72886902 55.54264526 -28.62090027 56.45787964 -29.53996277 57.40084839 C-30.72198581 58.6016337 -31.90429238 59.80213998 -33.08683777 61.00241089 C-33.67336121 61.60569214 -34.25988464 62.20897339 -34.86418152 62.83053589 C-35.43781433 63.41061401 -36.01144714 63.99069214 -36.60246277 64.58834839 C-37.12614441 65.12250366 -37.64982605 65.65665894 -38.18937683 66.20700073 C-42.51706618 69.93825393 -46.54809225 70.06137245 -52.07902527 69.93600464 C-56.39849113 69.45266497 -58.41211515 68.35321052 -61.83683777 65.62741089 C-65.80870818 60.63711217 -66.29498241 56.66970364 -66.36808777 50.37350464 C-64.88383093 42.70120644 -57.68670642 37.1874811 -52.39933777 31.92428589 C-51.48225037 31.00528503 -50.56516296 30.08628418 -49.62028503 29.13943481 C-47.68691081 27.20312522 -45.74999911 25.27044594 -43.81047058 23.34030151 C-41.3288643 20.87012087 -38.85638902 18.39102532 -36.38647461 15.90916061 C-34.02061641 13.53433103 -31.64716011 11.16715747 -29.27433777 8.79928589 C-28.3888324 7.90973206 -27.50332703 7.02017822 -26.59098816 6.10366821 C-25.76332947 5.28231384 -24.93567078 4.46095947 -24.08293152 3.61471558 C-23.3577533 2.89112854 -22.63257507 2.1675415 -21.88542175 1.42202759 C-15.66396887 -4.02813863 -6.83037556 -5.10404309 0 0 Z " fill="#000000" transform="translate(121.83683776855469,294.3725891113281)"/>
<path d="M0 0 C1.33285034 -0.01051392 1.33285034 -0.01051392 2.69262695 -0.02124023 C5.6183229 -0.03878886 8.54304489 -0.02720857 11.46875 -0.01367188 C13.50846542 -0.01636769 15.54817959 -0.02025085 17.58789062 -0.02526855 C21.85819765 -0.03115936 26.1281695 -0.02261394 30.3984375 -0.00390625 C35.86619751 0.01888287 41.33317211 0.00575757 46.80090332 -0.01819611 C51.01145319 -0.03266525 55.22181752 -0.02804293 59.43237305 -0.01768494 C61.44816176 -0.01502075 63.46396743 -0.01827656 65.47973633 -0.02760315 C68.29944337 -0.03778699 71.11788682 -0.02224194 73.9375 0 C74.76677002 -0.00809692 75.59604004 -0.01619385 76.45043945 -0.02453613 C81.75936306 0.05286148 84.73551987 1.03808214 88.96875 4.51757812 C92.59708663 8.33687985 93.27875458 11.40036819 93.46875 16.51757812 C93.27875458 21.63478806 92.59708663 24.6982764 88.96875 28.51757812 C83.89454676 32.68831046 80.22694792 33.0965659 73.9375 33.03515625 C73.04893311 33.04216553 72.16036621 33.0491748 71.24487305 33.05639648 C68.3191771 33.07394511 65.39445511 33.06236482 62.46875 33.04882812 C60.42903458 33.05152394 58.38932041 33.0554071 56.34960938 33.0604248 C52.07930235 33.06631561 47.8093305 33.05777019 43.5390625 33.0390625 C38.07130249 33.01627338 32.60432789 33.02939868 27.13659668 33.05335236 C22.92604681 33.0678215 18.71568248 33.06319918 14.50512695 33.05284119 C12.48933824 33.050177 10.47353257 33.05343281 8.45776367 33.0627594 C5.63805663 33.07294324 2.81961318 33.05739819 0 33.03515625 C-0.82927002 33.04325317 -1.65854004 33.0513501 -2.51293945 33.05969238 C-7.82186306 32.98229477 -10.79801987 31.99707411 -15.03125 28.51757812 C-18.65958663 24.6982764 -19.34125458 21.63478806 -19.53125 16.51757812 C-19.34125458 11.40036819 -18.65958663 8.33687985 -15.03125 4.51757812 C-9.95704676 0.34684579 -6.28944792 -0.06140965 0 0 Z " fill="#000000" transform="translate(355.03125,399.482421875)"/>
<path d="M0 0 C1.33285034 -0.01051392 1.33285034 -0.01051392 2.69262695 -0.02124023 C5.6183229 -0.03878886 8.54304489 -0.02720857 11.46875 -0.01367188 C13.50846542 -0.01636769 15.54817959 -0.02025085 17.58789062 -0.02526855 C21.85819765 -0.03115936 26.1281695 -0.02261394 30.3984375 -0.00390625 C35.86619751 0.01888287 41.33317211 0.00575757 46.80090332 -0.01819611 C51.01145319 -0.03266525 55.22181752 -0.02804293 59.43237305 -0.01768494 C61.44816176 -0.01502075 63.46396743 -0.01827656 65.47973633 -0.02760315 C68.29944337 -0.03778699 71.11788682 -0.02224194 73.9375 0 C74.76677002 -0.00809692 75.59604004 -0.01619385 76.45043945 -0.02453613 C81.75936306 0.05286148 84.73551987 1.03808214 88.96875 4.51757812 C92.59708663 8.33687985 93.27875458 11.40036819 93.46875 16.51757812 C93.27875458 21.63478806 92.59708663 24.6982764 88.96875 28.51757812 C83.89454676 32.68831046 80.22694792 33.0965659 73.9375 33.03515625 C73.04893311 33.04216553 72.16036621 33.0491748 71.24487305 33.05639648 C68.3191771 33.07394511 65.39445511 33.06236482 62.46875 33.04882812 C60.42903458 33.05152394 58.38932041 33.0554071 56.34960938 33.0604248 C52.07930235 33.06631561 47.8093305 33.05777019 43.5390625 33.0390625 C38.07130249 33.01627338 32.60432789 33.02939868 27.13659668 33.05335236 C22.92604681 33.0678215 18.71568248 33.06319918 14.50512695 33.05284119 C12.48933824 33.050177 10.47353257 33.05343281 8.45776367 33.0627594 C5.63805663 33.07294324 2.81961318 33.05739819 0 33.03515625 C-0.82927002 33.04325317 -1.65854004 33.0513501 -2.51293945 33.05969238 C-7.82186306 32.98229477 -10.79801987 31.99707411 -15.03125 28.51757812 C-18.65958663 24.6982764 -19.34125458 21.63478806 -19.53125 16.51757812 C-19.34125458 11.40036819 -18.65958663 8.33687985 -15.03125 4.51757812 C-9.95704676 0.34684579 -6.28944792 -0.06140965 0 0 Z " fill="#000000" transform="translate(83.03125,159.482421875)"/>
<path d="M0 0 C1.30904297 -0.0038269 2.61808594 -0.00765381 3.96679688 -0.01159668 C6.73066196 -0.01747605 9.49400802 -0.00898041 12.2578125 0.00976562 C15.78862831 0.03255558 19.31822777 0.01942391 22.84899902 -0.00452423 C26.23276177 -0.02250956 29.61620276 -0.00989232 33 0 C34.89395508 -0.01214539 34.89395508 -0.01214539 36.82617188 -0.02453613 C47.68018545 0.09130219 47.68018545 0.09130219 52.5 4.53125 C56.12833663 8.35055172 56.81000458 11.41404006 57 16.53125 C56.81000458 21.64845994 56.12833663 24.71194828 52.5 28.53125 C46.74545317 33.83226051 40.50898761 33.11065296 33 33.0625 C31.69095703 33.0663269 30.38191406 33.07015381 29.03320312 33.07409668 C26.26933804 33.07997605 23.50599198 33.07148041 20.7421875 33.05273438 C17.21137169 33.02994442 13.68177223 33.04307609 10.15100098 33.06702423 C6.76723823 33.08500956 3.38379724 33.07239232 0 33.0625 C-1.26263672 33.07059692 -2.52527344 33.07869385 -3.82617188 33.08703613 C-14.68018545 32.97119781 -14.68018545 32.97119781 -19.5 28.53125 C-23.12833663 24.71194828 -23.81000458 21.64845994 -24 16.53125 C-23.81000458 11.41404006 -23.12833663 8.35055172 -19.5 4.53125 C-13.74545317 -0.76976051 -7.50898761 -0.04815296 0 0 Z " fill="#000000" transform="translate(391.5,335.46875)"/>
<path d="M0 0 C1.30904297 -0.0038269 2.61808594 -0.00765381 3.96679688 -0.01159668 C6.73066196 -0.01747605 9.49400802 -0.00898041 12.2578125 0.00976562 C15.78862831 0.03255558 19.31822777 0.01942391 22.84899902 -0.00452423 C26.23276177 -0.02250956 29.61620276 -0.00989232 33 0 C34.89395508 -0.01214539 34.89395508 -0.01214539 36.82617188 -0.02453613 C47.68018545 0.09130219 47.68018545 0.09130219 52.5 4.53125 C56.12833663 8.35055172 56.81000458 11.41404006 57 16.53125 C56.81000458 21.64845994 56.12833663 24.71194828 52.5 28.53125 C46.74545317 33.83226051 40.50898761 33.11065296 33 33.0625 C31.69095703 33.0663269 30.38191406 33.07015381 29.03320312 33.07409668 C26.26933804 33.07997605 23.50599198 33.07148041 20.7421875 33.05273438 C17.21137169 33.02994442 13.68177223 33.04307609 10.15100098 33.06702423 C6.76723823 33.08500956 3.38379724 33.07239232 0 33.0625 C-1.26263672 33.07059692 -2.52527344 33.07869385 -3.82617188 33.08703613 C-14.68018545 32.97119781 -14.68018545 32.97119781 -19.5 28.53125 C-23.12833663 24.71194828 -23.81000458 21.64845994 -24 16.53125 C-23.81000458 11.41404006 -23.12833663 8.35055172 -19.5 4.53125 C-13.74545317 -0.76976051 -7.50898761 -0.04815296 0 0 Z " fill="#000000" transform="translate(87.5,95.46875)"/>
<path d="M0 0 C0.8765625 -0.01546875 1.753125 -0.0309375 2.65625 -0.046875 C8.2728791 -0.01303988 11.55876791 0.76001508 16 4.5 C19.62833663 8.31930172 20.31000458 11.38279006 20.5 16.5 C20.31000458 21.61720994 19.62833663 24.68069828 16 28.5 C10.74745529 32.92319554 6.56789127 33.11590396 0 33 C-0.8765625 33.01546875 -1.753125 33.0309375 -2.65625 33.046875 C-8.2728791 33.01303988 -11.55876791 32.23998492 -16 28.5 C-19.62833663 24.68069828 -20.31000458 21.61720994 -20.5 16.5 C-20.31000458 11.38279006 -19.62833663 8.31930172 -16 4.5 C-10.74745529 0.07680446 -6.56789127 -0.11590396 0 0 Z " fill="#000000" transform="translate(220,423.5)"/>
<path d="M0 0 C0.8765625 -0.01546875 1.753125 -0.0309375 2.65625 -0.046875 C8.2728791 -0.01303988 11.55876791 0.76001508 16 4.5 C19.62833663 8.31930172 20.31000458 11.38279006 20.5 16.5 C20.31000458 21.61720994 19.62833663 24.68069828 16 28.5 C10.74745529 32.92319554 6.56789127 33.11590396 0 33 C-0.8765625 33.01546875 -1.753125 33.0309375 -2.65625 33.046875 C-8.2728791 33.01303988 -11.55876791 32.23998492 -16 28.5 C-19.62833663 24.68069828 -20.31000458 21.61720994 -20.5 16.5 C-20.31000458 11.38279006 -19.62833663 8.31930172 -16 4.5 C-10.74745529 0.07680446 -6.56789127 -0.11590396 0 0 Z " fill="#000000" transform="translate(292,55.5)"/>
</svg>
