<?xml version="1.0" encoding="UTF-8"?>
<svg version="1.1" xmlns="http://www.w3.org/2000/svg" width="512" height="512">
<path d="M0 0 C6.10429793 6.54031921 6.04411514 12.88586127 5.93383789 21.43115234 C5.92967613 23.1626931 5.92967613 23.1626931 5.9254303 24.92921448 C5.91737146 27.43581534 5.90231105 29.94240129 5.88105965 32.44892502 C5.8471373 36.45979597 5.83119861 40.47037495 5.82041931 44.48135376 C5.79630378 52.32873164 5.74986237 60.17589986 5.70082855 68.02315521 C5.62757105 79.91900724 5.56846855 91.81490353 5.53515625 103.7109375 C5.53222565 104.73364384 5.53222565 104.73364384 5.52923584 105.77701092 C5.46957684 128.43960825 5.94688502 150.99624244 7.47655869 173.60889435 C7.62548083 175.81963786 7.76882937 178.03068217 7.91079712 180.24188232 C8.4424783 188.466782 9.03765594 196.68429125 9.69238281 204.90039062 C9.95563589 208.24830118 10.20336242 211.59668678 10.44434166 214.94622803 C10.68551194 218.23614123 10.94973019 221.52411784 11.2109375 224.8125 C11.29338715 225.99360352 11.37583679 227.17470703 11.46078491 228.39160156 C12.19840076 237.14908871 14.11760468 245.48098023 20.625 251.8125 C27.41143185 256.22807118 32.45663922 257.9319762 40.56851196 257.95967102 C41.61661153 257.96518605 41.61661153 257.96518605 42.68588483 257.9708125 C45.02708825 257.98182482 47.36824724 257.98568903 49.70947266 257.98950195 C51.38839864 257.99576853 53.06732325 258.00241551 54.74624634 258.00941467 C60.2605086 258.03043706 65.77477108 258.04081643 71.2890625 258.05078125 C73.18951812 258.0548297 75.0899736 258.05894665 76.99042892 258.06313133 C85.92104628 258.08218023 94.85165539 258.09641102 103.78228915 258.1047433 C114.07979841 258.11451025 124.37709242 258.1408169 134.67452586 258.18124419 C142.64072843 258.21144215 150.60686942 258.22621573 158.5731281 258.22952431 C163.32760319 258.23187089 168.08184823 258.24078004 172.83626175 258.26598549 C177.31296904 258.28933523 181.78929594 258.29347182 186.26604843 258.28322411 C187.90344765 258.28273028 189.54086604 258.28900515 191.1782074 258.30278015 C201.42949385 258.38415501 210.42510797 257.83806543 219 251.5625 C229.71391036 240.33840343 228.27914266 221.42154282 229.375 206.8671875 C229.61717013 203.66600108 229.87041448 200.46584457 230.125 197.265625 C230.68214102 190.11818237 231.16012232 182.96646317 231.625 175.8125 C231.71964964 174.41536816 231.81439898 173.01824308 231.90924072 171.62112427 C233.41844585 148.99510506 233.77079665 126.41771028 233.6796875 103.74609375 C233.67711473 103.0673789 233.67454195 102.38866405 233.67189121 101.68938208 C233.62326029 89.04052812 233.5484009 76.39182337 233.45000756 63.74326044 C233.39501619 56.67113674 233.35148623 49.59915548 233.32998669 42.52684361 C233.31914287 39.20247775 233.2981926 35.8789049 233.2632103 32.55465508 C233.22477948 28.88450098 233.210993 25.21500587 233.20263672 21.54467773 C233.18511353 20.46901047 233.16759033 19.3933432 233.14953613 18.28507996 C233.16944265 10.62637389 234.55977986 5.1404533 239.8125 -0.5625 C244.36898903 -3.19513811 248.74170426 -4.63684479 254.03125 -3.8125 C259.70049791 -2.14952061 263.51958492 0.45008727 266.71549988 5.55406189 C271.57604515 17.62359373 268.78889019 35.86574953 268.79296875 48.65234375 C268.79619506 51.06474323 268.79956007 53.47714252 268.80305481 55.88954163 C268.80901746 60.94174653 268.81089815 65.99393441 268.81030273 71.04614258 C268.81022218 76.13732511 268.81705376 81.22841631 268.83081055 86.31958008 C268.91200245 116.88005253 268.61200418 147.31135272 266.625 177.8125 C266.53010012 179.29796344 266.43520063 180.7834269 266.34030151 182.26889038 C265.80727449 190.51708317 265.20834306 198.75825614 264.55761719 206.99804688 C264.34892473 209.67063532 264.14597578 212.3428979 263.953125 215.01660156 C262.14139544 240.08409407 260.10467927 261.08078866 240.3984375 278.81640625 C225.57064736 290.94585295 208.42552723 293.43061798 189.90625 293.33007812 C188.19587615 293.33551497 186.48550699 293.34264629 184.77514648 293.35131836 C180.18000538 293.36936921 175.58522828 293.36256062 170.99008179 293.34980202 C166.15027991 293.33957873 161.3105064 293.34909331 156.47070312 293.35534668 C148.34760013 293.3625962 140.22464324 293.35310658 132.1015625 293.33398438 C122.74926288 293.31222088 113.39731224 293.31927416 104.04502106 293.34129 C95.97314751 293.35952126 87.90137818 293.36196477 79.82949066 293.35153532 C75.02697542 293.34534263 70.22462348 293.34434694 65.42211914 293.35768127 C60.9041433 293.36935246 56.38661142 293.36101158 51.86868286 293.33810425 C50.22413871 293.33287666 48.5795563 293.33422688 46.93502808 293.34315491 C26.97278138 293.44142342 8.88633553 289.08617488 -5.6796875 274.66796875 C-18.41207002 261.17902437 -22.20402227 245.61434882 -23.59375 227.59375 C-23.69715698 226.30537231 -23.80056396 225.01699463 -23.90710449 223.6895752 C-24.12629748 220.94977181 -24.34091709 218.20965913 -24.55224609 215.46923828 C-24.86368489 211.43561683 -25.19159156 207.40340827 -25.51953125 203.37109375 C-26.2036771 194.85599139 -26.81084134 186.33635275 -27.375 177.8125 C-27.42471073 177.06565571 -27.47442146 176.31881142 -27.52563858 175.54933548 C-29.56337368 144.5562316 -29.65451726 113.59724304 -29.57061768 82.54736328 C-29.55968329 77.43237483 -29.56015291 72.31741264 -29.56075573 67.20241451 C-29.56048271 62.21180993 -29.55498396 57.22122219 -29.54775429 52.23062325 C-29.54461033 49.87979826 -29.54261043 47.52897142 -29.54186058 45.17814445 C-29.51649521 7.35551535 -29.51649521 7.35551535 -24.83203125 1.2265625 C-17.97457551 -5.42866264 -7.53226516 -5.69146221 0 0 Z " fill="#000000" transform="translate(136.375,177.1875)"/>
<path d="M0 0 C1.26927338 -0.01283524 2.53854675 -0.02567047 3.84628296 -0.03889465 C5.22255047 -0.04706955 6.5988225 -0.05451183 7.97509766 -0.0612793 C8.67777393 -0.06535482 9.38045021 -0.06943035 10.10441971 -0.07362938 C13.83165433 -0.09443729 17.55885283 -0.10875565 21.28613281 -0.11816406 C25.08933623 -0.12915307 28.89194236 -0.16347944 32.69493675 -0.20333576 C35.65854791 -0.22980743 38.62202405 -0.23788301 41.58574295 -0.24144554 C42.98484913 -0.24624171 44.38395228 -0.2576493 45.78293991 -0.27648354 C64.23246005 -0.50921562 81.30447983 3.8140538 95.06494141 16.63793945 C95.87318359 17.47583008 96.68142578 18.3137207 97.51416016 19.17700195 C98.0359082 19.69883057 98.55765625 20.22065918 99.09521484 20.75830078 C104.77730429 26.77213855 108.37793037 33.82759608 112.13916016 41.11450195 C112.78657085 42.35136808 113.43500347 43.58769986 114.08447266 44.82348633 C115.3307405 47.19513079 116.57114348 49.56949598 117.80810547 51.94604492 C119.69067067 55.51128073 121.65668771 59.02017115 123.6796875 62.50732422 C124.51416016 64.17700195 124.51416016 64.17700195 124.51416016 66.17700195 C125.64049362 66.1670092 125.64049362 66.1670092 126.7895813 66.15681458 C133.88086396 66.09659628 140.97205742 66.05097326 148.06352425 66.02156544 C151.70896476 66.00593804 155.35419322 65.9847539 158.99951172 65.95068359 C162.52029365 65.91798478 166.04087217 65.90012694 169.56179428 65.89237022 C171.55258651 65.88416463 173.5432974 65.86076197 175.53396606 65.83711243 C177.36518509 65.83677254 177.36518509 65.83677254 179.23339844 65.83642578 C180.30373322 65.82976395 181.37406799 65.82310211 182.47683716 65.8162384 C186.67220079 66.31455033 190.02810483 67.82155007 193.15869141 70.67700195 C197.05916475 75.68630551 197.9254296 79.32045964 197.86181641 85.53637695 C197.14650386 90.96953743 194.26995232 94.81626303 190.01416016 98.11450195 C185.72386661 99.93787671 181.67583684 100.30217444 177.04585457 100.30563641 C175.40716791 100.31047308 175.40716791 100.31047308 173.73537648 100.31540745 C172.54073965 100.31385885 171.34610283 100.31231025 170.11526489 100.31071472 C168.20516264 100.31411306 168.20516264 100.31411306 166.25647247 100.31758004 C162.72398598 100.32369716 159.19152316 100.32356455 155.65903258 100.32238567 C151.84844965 100.32218164 148.03787432 100.3277006 144.22729492 100.33244324 C136.76261284 100.34074973 129.29793865 100.34349807 121.83325233 100.34405562 C115.76601956 100.34453075 109.6987894 100.34658537 103.63155746 100.34975624 C86.43124766 100.35856261 69.2309441 100.36317561 52.03063203 100.36242577 C51.10335549 100.36238581 50.17607895 100.36234585 49.22070312 100.36230469 C48.292295 100.36226381 47.36388687 100.36222293 46.40734516 100.36218081 C31.35830765 100.36177428 16.30929516 100.37134549 1.26026489 100.38544305 C-14.19058854 100.39980289 -29.64142977 100.40671346 -45.09229004 100.40584928 C-53.76734672 100.40551718 -62.44237716 100.40826969 -71.11742783 100.41902733 C-78.50292055 100.42812713 -85.88837515 100.43031184 -93.27387105 100.42351791 C-97.04179548 100.42025014 -100.80964675 100.42020525 -104.57756424 100.42887115 C-108.66275745 100.43817013 -112.74778085 100.43196686 -116.83297729 100.42424011 C-118.61824036 100.43195546 -118.61824036 100.43195546 -120.43956935 100.43982667 C-133.86178545 100.38359315 -133.86178545 100.38359315 -139.23583984 95.86450195 C-143.60898356 90.64102474 -145.01035077 87.43826725 -144.76708984 80.60668945 C-144.19237896 75.64182596 -142.15569908 72.57791104 -138.48583984 69.36450195 C-134.31354074 66.32220052 -131.58031993 66.05309581 -126.5456543 66.06347656 C-125.32461502 66.06355209 -124.10357574 66.06362762 -122.84553528 66.06370544 C-120.86731026 66.07144737 -120.86731026 66.07144737 -118.84912109 66.0793457 C-117.48577425 66.08121115 -116.12242673 66.08263446 -114.75907898 66.08363342 C-111.17355493 66.08744863 -107.5880715 66.0972704 -104.00256348 66.1083374 C-100.34269765 66.11857295 -96.68282524 66.12313564 -93.02294922 66.12817383 C-85.84389426 66.13889357 -78.66487275 66.15595803 -71.48583984 66.17700195 C-71.03418709 64.78151375 -71.03418709 64.78151375 -70.57341003 63.35783386 C-69.46678213 60.1212636 -68.09367879 57.30034791 -66.47412109 54.2902832 C-65.88050781 53.18620117 -65.28689453 52.08211914 -64.67529297 50.94458008 C-64.05589844 49.8044043 -63.43650391 48.66422852 -62.79833984 47.48950195 C-62.19828125 46.36866211 -61.59822266 45.24782227 -60.97998047 44.09301758 C-50.72761794 25.11898896 -40.10934799 9.66686649 -18.61083984 2.80200195 C-12.3834692 1.00714575 -6.48492101 0.05746594 0 0 Z M-21.48583984 44.17700195 C-23.7141658 47.47339955 -25.58643071 50.90054292 -27.42333984 54.42700195 C-28.16293945 55.79211914 -28.16293945 55.79211914 -28.91748047 57.18481445 C-31.48671328 61.45735731 -31.48671328 61.45735731 -32.48583984 66.17700195 C6.45416016 66.17700195 45.39416016 66.17700195 85.51416016 66.17700195 C81.45771285 54.00766004 75.7308306 42.84922632 64.32666016 36.36450195 C59.92106884 34.5043634 56.31641742 34.04437648 51.52734375 34 C50.31863617 33.98716476 49.10992859 33.97432953 47.86459351 33.96110535 C46.56043488 33.95371841 45.25627625 33.94633148 43.91259766 33.9387207 C43.24472858 33.93464518 42.57685951 33.93056965 41.88875198 33.92637062 C38.3499915 33.90554064 34.81126938 33.8912287 31.27246094 33.88183594 C27.64123292 33.87080953 24.01062412 33.83644566 20.37961388 33.79666424 C17.56721973 33.77034505 14.75496935 33.76213044 11.94246292 33.75855446 C9.96068798 33.75139445 7.97901194 33.72501866 5.99740601 33.69816589 C-4.66858245 33.72358423 -14.26376964 35.7843276 -21.48583984 44.17700195 Z " fill="#000000" transform="translate(229.48583984375,41.822998046875)"/>
</svg>
