<?xml version="1.0" encoding="UTF-8"?>
<svg version="1.1" xmlns="http://www.w3.org/2000/svg" width="512" height="512">
<path d="M0 0 C1.24027954 -0.00686325 2.48055908 -0.0137265 3.75842285 -0.02079773 C7.13021528 -0.03586923 10.50145052 -0.03758714 13.87323475 -0.03185534 C16.69652262 -0.02874739 19.5197613 -0.03487298 22.34304214 -0.04089409 C29.00282566 -0.05489166 35.66248073 -0.05341518 42.32226562 -0.04199219 C49.18098353 -0.03048767 56.03931147 -0.04463626 62.89797807 -0.07138866 C68.80398496 -0.09355808 74.70986952 -0.1001811 80.61591506 -0.09431225 C84.13609033 -0.09094777 87.65601506 -0.09332477 91.17615509 -0.11056328 C95.09675892 -0.12893006 99.01688306 -0.11483256 102.9375 -0.09765625 C104.09711243 -0.10732422 105.25672485 -0.11699219 106.45147705 -0.12695312 C112.54298559 -0.07100965 116.60306149 0.02638647 121.20996094 4.40405273 C123.12147236 6.66536922 124.93487188 8.97850156 126.72454262 11.33759499 C139.79402652 28.45992555 155.24622943 47.6753092 177.78892779 50.73637843 C193.42439145 52.50213777 209.30820561 51.67783958 224.97366679 50.72041571 C233.20665221 50.22488456 241.44410441 50.0078675 249.68847656 49.79663086 C252.60666185 49.72125944 255.52480093 49.64447067 258.44288635 49.56532288 C259.15024793 49.5462381 259.85760951 49.52715332 260.58640629 49.50749022 C265.38900548 49.37004831 270.18232271 49.15282922 274.98033142 48.90135193 C276.25295334 48.84101273 277.52557526 48.78067352 278.83676147 48.71850586 C281.18587037 48.6045187 283.53425085 48.4734555 285.88114929 48.3205719 C299.26733733 47.70955706 309.11928787 52.5840818 319.17480469 61.06030273 C327.5915907 68.86931208 333.09603152 79.6074074 333.59027767 91.16177177 C333.60778256 92.83496145 333.60947434 94.50837071 333.59764099 96.18161011 C333.6057193 97.5783012 333.6057193 97.5783012 333.6139608 99.00320828 C333.62816496 102.09513169 333.62115533 105.18662239 333.61401367 108.27856445 C333.61972119 110.50684958 333.62668693 112.73513179 333.6348114 114.96340942 C333.65271603 120.99653078 333.65157939 127.02950647 333.64586902 133.06264639 C333.64277314 138.107244 333.64887411 143.15181379 333.65490776 148.19640744 C333.66974417 160.78128461 333.66614702 173.36607433 333.65404446 185.95094492 C333.64411545 196.85776434 333.65705074 207.76441404 333.68097865 218.67120729 C333.70541449 229.89487952 333.71456753 241.11847491 333.70832592 252.34218037 C333.70496117 258.6335983 333.70733949 264.92487604 333.72457695 271.21627426 C333.74008466 277.13434983 333.73604781 283.05210227 333.7172718 288.97016525 C333.71359649 291.13563476 333.71666335 293.30112842 333.72715759 295.46657562 C333.80779423 313.48877525 331.56788692 326.49748511 318.89746094 340.15405273 C308.04228574 350.42770069 296.11115464 352.90733955 281.58496094 352.59155273 C280.39 352.57801758 279.19503906 352.56448242 277.96386719 352.55053711 C275.04541293 352.51551566 272.12793746 352.46640266 269.20996094 352.40405273 C269.21884338 353.10403381 269.22772583 353.80401489 269.23687744 354.52520752 C269.31755331 361.17308747 269.37819133 367.82082766 269.41720963 374.46908951 C269.43794494 377.8857768 269.46599856 381.30205431 269.51171875 384.71850586 C269.56413241 388.6605105 269.58302229 392.60235843 269.60058594 396.54467773 C269.62123108 397.75142151 269.64187622 398.95816528 269.66314697 400.20147705 C269.66693411 414.74583309 264.71418952 425.57328631 254.89746094 436.15405273 C244.34683219 446.13946923 232.53448859 448.86491971 218.39529419 448.79173279 C217.1374826 448.79711833 215.87967102 448.80250386 214.58374393 448.8080526 C211.11774454 448.82242894 207.65198451 448.8182872 204.18597245 448.81088579 C200.43807675 448.80613691 196.69023157 448.81867912 192.94235229 448.8289032 C185.60967279 448.8460631 178.27707908 448.84693704 170.94438471 448.84169029 C164.98171187 448.83764203 159.01906431 448.83909994 153.05639267 448.84443855 C152.20640098 448.84518697 151.35640929 448.8459354 150.48066028 448.8467065 C148.75366839 448.84823804 147.02667651 448.84977639 145.29968463 448.85132147 C129.11923449 448.86503641 112.93883276 448.85961595 96.75838374 448.84813625 C81.97166558 448.83820548 67.18507259 448.85114362 52.39837374 448.87507045 C37.19705938 448.8994819 21.99580327 448.90906425 6.79446971 448.90241772 C-1.73258614 448.89892997 -10.25954578 448.90112812 -18.78658676 448.91866875 C-26.04559695 448.93341637 -33.30444315 448.93399285 -40.5634502 448.91659784 C-44.26324585 448.90810634 -47.96274888 448.90589251 -51.66252899 448.92124939 C-55.68238966 448.93772756 -59.70154931 448.92290186 -63.72140503 448.90525818 C-64.87804181 448.91486319 -66.03467859 448.92446819 -67.22636497 448.93436426 C-81.44106256 448.80644778 -92.21447473 443.67150739 -102.54003906 434.09155273 C-112.11419007 423.97546865 -115.25668124 412.42329172 -115.17771912 398.80422974 C-115.18310465 397.67709183 -115.18849019 396.54995392 -115.19403893 395.38866031 C-115.20828083 391.63342429 -115.20122386 387.87854264 -115.1940918 384.12329102 C-115.19979734 381.42209773 -115.20666231 378.72092938 -115.21488953 376.01974487 C-115.23203895 369.45709354 -115.23292556 362.89453812 -115.22767662 356.33187021 C-115.22362636 350.99467318 -115.22508862 345.65750438 -115.23042488 340.32030869 C-115.2311733 339.55912856 -115.23192173 338.79794843 -115.23269283 338.01370224 C-115.23422439 336.46709435 -115.23576274 334.92048646 -115.23730779 333.37387858 C-115.25101897 318.88735046 -115.24560496 304.40087642 -115.23412258 289.91434954 C-115.22419239 276.67959209 -115.2371296 263.44497448 -115.26105677 250.21023859 C-115.28547627 236.59998018 -115.2950486 222.98978682 -115.28840405 209.37950695 C-115.28491806 201.74670842 -115.28710275 194.11401739 -115.30465508 186.4812355 C-115.31941281 179.98345309 -115.31996613 173.48585387 -115.30258416 166.98807491 C-115.29410063 163.67704344 -115.29404646 160.3666058 -115.30723572 157.05554962 C-115.32047597 153.45600874 -115.30886976 149.85734675 -115.29124451 146.25784302 C-115.30084951 145.22571658 -115.31045452 144.19359015 -115.32035059 143.13018715 C-115.18206985 129.33432643 -109.73931641 118.63667596 -100.47753906 108.65405273 C-89.62236387 98.38040478 -77.69123276 95.90076591 -63.16503906 96.21655273 C-61.97007813 96.23008789 -60.77511719 96.24362305 -59.54394531 96.25756836 C-56.62549106 96.29258981 -53.70801558 96.34170281 -50.79003906 96.40405273 C-50.79892151 95.70407166 -50.80780396 95.00409058 -50.81695557 94.28289795 C-50.89763143 87.635018 -50.95826945 80.98727781 -50.99728775 74.33901596 C-51.01802307 70.92232867 -51.04607668 67.50605116 -51.09179688 64.08959961 C-51.14421053 60.14759497 -51.16310042 56.20574704 -51.18066406 52.26342773 C-51.2013092 51.05668396 -51.22195435 49.84994019 -51.2432251 48.60662842 C-51.24701223 34.06227237 -46.29426765 23.23481916 -36.47753906 12.65405273 C-25.9388899 2.67997407 -14.1249272 -0.05521893 0 0 Z M-14.72753906 38.15405273 C-19.12633862 45.08549447 -19.06668768 51.59936876 -18.98535156 59.58764648 C-18.98252167 60.64315201 -18.97969177 61.69865753 -18.97677612 62.78614807 C-18.96563322 66.13806778 -18.9405393 69.48971457 -18.91503906 72.84155273 C-18.90500166 75.12214782 -18.89587714 77.40274711 -18.88769531 79.68334961 C-18.86571318 85.25700952 -18.83229443 90.83051162 -18.79003906 96.40405273 C-17.9263974 96.40769836 -17.06275574 96.41134399 -16.17294312 96.4151001 C-8.02183935 96.45301439 0.12886571 96.50990606 8.27968788 96.58795547 C12.46984008 96.62741381 16.65978265 96.65961018 20.85009766 96.67504883 C24.89632854 96.69022651 28.94198306 96.72469101 32.987957 96.77236176 C34.52920895 96.78716424 36.0705432 96.7950931 37.611866 96.79593658 C39.77620669 96.79831159 41.93896136 96.82542966 44.10302734 96.8581543 C45.33324615 96.86703674 46.56346497 96.87591919 47.83096313 96.8850708 C55.13082802 98.00626064 58.50452888 102.77489205 62.72454262 108.33759499 C75.79402652 125.45992555 91.24622943 144.6753092 113.78892779 147.73637843 C129.42439145 149.50213777 145.30820561 148.67783958 160.97366679 147.72041571 C169.20665221 147.22488456 177.44410441 147.0078675 185.68847656 146.79663086 C188.60666185 146.72125944 191.52480093 146.64447067 194.44288635 146.56532288 C195.15024793 146.5462381 195.85760951 146.52715332 196.58640629 146.50749022 C201.38900548 146.37004831 206.18232271 146.15282922 210.98033142 145.90135193 C212.25295334 145.84101273 213.52557526 145.78067352 214.83676147 145.71850586 C217.18587037 145.6045187 219.53425085 145.4734555 221.88114929 145.3205719 C234.00045088 144.76738431 244.00178438 148.54682282 253.20996094 156.40405273 C261.2886411 164.04259391 267.62236796 173.91138555 268.4064827 185.24444389 C268.49605731 188.78628529 268.52275952 192.32371712 268.52880859 195.86669922 C268.53811772 197.22732634 268.54828785 198.58794781 268.55924988 199.94856262 C268.58645311 203.62570482 268.60167042 207.30280892 268.61467791 210.98002505 C268.630351 214.82909923 268.65712782 218.67809608 268.68270874 222.52711487 C268.72942276 229.80837544 268.76620247 237.08965068 268.79938161 244.37098414 C268.83765525 252.66366051 268.88705162 260.95625908 268.93736577 269.24886978 C269.04057585 286.30054108 269.12987164 303.35225748 269.20996094 320.40405273 C271.76864586 320.43455586 274.32696256 320.45680785 276.88574219 320.47436523 C277.60540161 320.4837915 278.32506104 320.49321777 279.06652832 320.50292969 C285.21147828 320.53452326 290.85450108 320.14489866 295.78808594 316.11499023 C301.16821263 310.33290006 301.50664045 303.17930975 301.47065735 295.72634888 C301.4744829 294.8773391 301.47830844 294.02832933 301.48224992 293.15359199 C301.49253062 290.32181326 301.48859716 287.49023915 301.48461914 284.65844727 C301.48896835 282.62278049 301.4941522 280.58711535 301.50010681 278.55145264 C301.51348576 273.03075929 301.51407668 267.51013444 301.51154351 261.98942804 C301.51047302 257.37715031 301.51535919 252.76488639 301.52014893 248.15261161 C301.53124037 237.26945515 301.5316836 226.38633321 301.52563477 215.50317383 C301.51959487 204.28385455 301.53190727 193.06466067 301.55320483 181.84536278 C301.57083033 172.20523757 301.57682068 162.56515224 301.57356709 152.92501152 C301.57175556 147.17077911 301.57437748 141.41663615 301.58828163 135.66241837 C301.60087066 130.25003566 301.59890557 124.8378482 301.58587074 119.42546844 C301.58350775 117.4425716 301.5862297 115.45966097 301.59449387 113.47677994 C301.60498649 110.76286957 301.59684054 108.04961132 301.58418274 105.33572388 C301.59155702 104.55739704 301.59893131 103.77907021 301.60652906 102.97715771 C301.54878844 97.06292592 300.73450573 90.56774809 296.93505555 85.80637372 C289.87488778 79.39365902 281.13384299 80.11847575 272.2097168 80.14868164 C270.21677228 80.14312436 268.22382776 80.13756275 266.23088372 80.13183761 C264.0995708 80.12751118 261.96830461 80.12796371 259.83698845 80.12965775 C255.38626033 80.13250168 250.93568953 80.11809987 246.48500061 80.10067749 C233.83304174 80.0537498 221.18109484 80.02970487 208.52905273 80.02319336 C201.53268827 80.01944074 194.53650314 80.00139981 187.54021555 79.968099 C183.11860234 79.94791161 178.69745244 79.94550075 174.27581203 79.95637918 C170.87737471 79.95960279 167.47919629 79.93688759 164.08081055 79.91821289 C162.86038055 79.92638535 161.63995056 79.9345578 160.38253784 79.94297791 C154.0594067 79.88105991 149.9127997 79.83476815 145.20996094 75.40405273 C143.56254578 73.29058838 143.56254578 73.29058838 142.24780273 71.00268555 C132.41299346 54.90370796 118.79158133 36.46397823 99.40947723 31.71836853 C82.39620684 28.57100263 64.80582396 29.0686004 47.58496094 29.52905273 C46.38410732 29.55949173 45.18325371 29.58993073 43.94601059 29.62129211 C31.68088485 29.95552654 19.42686879 30.50483404 7.18798828 31.38110352 C5.86499993 31.46609289 5.86499993 31.46609289 4.51528454 31.55279922 C-2.22977233 32.08984905 -9.94870914 32.89972382 -14.72753906 38.15405273 Z M-78.72753906 134.15405273 C-82.20222775 139.62931976 -83.04169793 144.84691818 -83.01708984 151.25732422 C-83.0173819 151.90208206 -83.01767395 152.5468399 -83.01797485 153.21113586 C-83.01659533 155.315949 -83.00110034 157.42039615 -82.98535156 159.52514648 C-82.98161651 160.99487617 -82.97877187 162.46460836 -82.97677612 163.93434143 C-82.96917837 167.78289797 -82.94956353 171.63130102 -82.92736816 175.47979736 C-82.90682614 179.4148145 -82.89775662 183.34985669 -82.88769531 187.28491211 C-82.86631357 194.99136192 -82.83222485 202.69768573 -82.79003906 210.40405273 C-81.89102875 210.24167177 -80.99201843 210.07929081 -80.06576538 209.91198921 C-74.52518549 209.12809698 -68.96294416 209.26638021 -63.37841797 209.27706909 C-61.50250442 209.27472911 -61.50250442 209.27472911 -59.58869362 209.27234185 C-56.12913261 209.26817661 -52.66959928 209.27022653 -49.21003819 209.27332807 C-45.47447588 209.27559337 -41.73891829 209.27209691 -38.00335693 209.26934814 C-30.69001203 209.26490359 -23.37667739 209.26586108 -16.06333208 209.26876079 C-10.11914517 209.27101997 -4.17496114 209.2713251 1.76922607 209.27023697 C3.03866265 209.27000712 3.03866265 209.27000712 4.33374441 209.26977263 C6.05301555 209.2694529 7.77228669 209.26912868 9.49155784 209.26880004 C25.60983283 209.26594909 41.72810212 209.26922623 57.84637618 209.2746004 C71.67395416 209.27906809 85.50152374 209.27829205 99.32910156 209.27368164 C115.39005229 209.26832908 131.45099804 209.26622375 147.51194954 209.2692939 C149.22486496 209.26961245 150.93778038 209.26992682 152.6506958 209.27023697 C153.49346364 209.27039124 154.33623149 209.27054552 155.20453775 209.27070447 C161.14097804 209.27156758 167.07741518 209.27011118 173.01385498 209.26775742 C180.24924061 209.26495166 187.4846154 209.26571409 194.71999979 209.27103816 C198.41095737 209.27366467 202.10189687 209.27469799 205.79285431 209.27138901 C209.79469854 209.26785559 213.79649718 209.27207725 217.79833984 209.27706909 C218.96380529 209.27483837 220.12927074 209.27260765 221.33005333 209.27030933 C226.73158123 209.28340584 231.89016636 209.44318126 237.20996094 210.40405273 C238.37775484 195.30703091 238.37775484 195.30703091 232.92089844 181.83374023 C225.98098128 175.33916535 217.06219861 176.11871825 208.2097168 176.14868164 C206.21677228 176.14312436 204.22382776 176.13756275 202.23088372 176.13183761 C200.0995708 176.12751118 197.96830461 176.12796371 195.83698845 176.12965775 C191.38626033 176.13250168 186.93568953 176.11809987 182.48500061 176.10067749 C169.83304174 176.0537498 157.18109484 176.02970487 144.52905273 176.02319336 C137.53268827 176.01944074 130.53650314 176.00139981 123.54021555 175.968099 C119.11860234 175.94791161 114.69745244 175.94550075 110.27581203 175.95637918 C106.87737471 175.95960279 103.47919629 175.93688759 100.08081055 175.91821289 C98.86038055 175.92638535 97.63995056 175.9345578 96.38253784 175.94297791 C90.0594067 175.88105991 85.9127997 175.83476815 81.20996094 171.40405273 C79.56254578 169.29058838 79.56254578 169.29058838 78.24780273 167.00268555 C68.41299346 150.90370796 54.79158133 132.46397823 35.40947723 127.71836853 C18.39620684 124.57100263 0.80582396 125.0686004 -16.41503906 125.52905273 C-17.61589268 125.55949173 -18.81674629 125.58993073 -20.05398941 125.62129211 C-32.31911515 125.95552654 -44.57313121 126.50483404 -56.81201172 127.38110352 C-58.13500007 127.46609289 -58.13500007 127.46609289 -59.48471546 127.55279922 C-66.22977233 128.08984905 -73.94870914 128.89972382 -78.72753906 134.15405273 Z M-78.72753906 246.15405273 C-83.58422432 253.80701132 -83.08142327 261.44924354 -83.06469727 270.2746582 C-83.06904948 271.67979197 -83.07423432 273.08492336 -83.08018494 274.49005127 C-83.09353205 278.29179963 -83.09415836 282.0934483 -83.09162164 285.89521551 C-83.09054892 289.07594665 -83.09544301 292.25665787 -83.10022706 295.43738472 C-83.1113076 302.9453323 -83.11176796 310.45322985 -83.10571289 317.96118164 C-83.09967485 325.6905023 -83.11198309 333.41964084 -83.13328296 341.14893043 C-83.15093259 347.79969973 -83.15689499 354.45041124 -83.15364522 361.10120308 C-83.15183743 365.06692786 -83.15441781 369.03252273 -83.16835976 372.99822617 C-83.18098825 376.72968947 -83.17894696 380.46087015 -83.16594887 384.19232941 C-83.16247765 386.20276129 -83.1737242 388.213202 -83.18551636 390.22360229 C-83.1886557 401.25512654 -83.1886557 401.25512654 -78.51512623 410.98142815 C-71.82779637 417.14757343 -63.58673631 416.69415122 -55.07522583 416.66474915 C-53.31168489 416.67048747 -53.31168489 416.67048747 -51.51251686 416.67634171 C-48.26200756 416.68485664 -45.01164317 416.68444503 -41.76113009 416.68016112 C-38.25047038 416.67769025 -34.73983702 416.68671254 -31.22918701 416.69419861 C-24.35632808 416.7069377 -17.48350822 416.70874028 -10.61063947 416.70639835 C-5.02306425 416.70461411 0.56449911 416.70636709 6.15207291 416.71062279 C6.94783001 416.71121798 7.74358711 416.71181317 8.56345806 416.71242639 C10.18013175 416.71363816 11.79680543 416.7148523 13.4134791 416.71606877 C28.56944941 416.7269413 43.72539745 416.72478319 58.88136901 416.71868392 C72.73910469 416.71351525 86.59677006 416.72476938 100.45449184 416.74378214 C114.6917898 416.76316557 128.9290545 416.77141564 143.16636574 416.76765889 C151.15624119 416.76574758 159.14605681 416.76822754 167.13592148 416.78237343 C173.93795969 416.79429465 180.73990124 416.79568384 187.54194079 416.78358326 C191.01042365 416.77769969 194.47872976 416.77658051 197.94720078 416.78858566 C201.71202442 416.79903314 205.47637383 416.79096769 209.24118042 416.77827454 C210.33078312 416.78564882 211.42038582 416.79302311 212.54300678 416.80062085 C219.19236896 416.75349462 226.38628185 416.47807341 231.79577625 412.12914735 C238.41873803 404.9015037 237.50196052 395.68356498 237.48461914 386.53344727 C237.48897135 385.1283135 237.4941562 383.7231821 237.50010681 382.3180542 C237.51345393 378.51630584 237.51408024 374.71465716 237.51154351 370.91288996 C237.5104708 367.73215882 237.51536489 364.5514476 237.52014893 361.37072074 C237.53122948 353.86277316 237.53168984 346.35487562 237.52563477 338.84692383 C237.51959672 331.11760317 237.53190496 323.38846463 237.55320483 315.65917504 C237.57085447 309.00840574 237.57681687 302.35769423 237.57356709 295.70690238 C237.57175931 291.74117761 237.57433969 287.77558274 237.58828163 283.8098793 C237.60091012 280.07841599 237.59886884 276.34723532 237.58587074 272.61577606 C237.58239953 270.60534418 237.59364607 268.59490347 237.60543823 266.58450317 C237.60857757 255.55297892 237.60857757 255.55297892 232.9350481 245.82667732 C226.24771825 239.66053204 218.00665818 240.11395425 209.49514771 240.14335632 C208.31945374 240.13953078 207.14375978 240.13570523 205.93243873 240.13176376 C202.68192944 240.12324883 199.43156504 240.12366044 196.18105197 240.12794435 C192.67039225 240.13041522 189.1597589 240.12139293 185.64910889 240.11390686 C178.77624995 240.10116777 171.9034301 240.09936519 165.03056134 240.10170712 C159.44298613 240.10349136 153.85542277 240.10173838 148.26784897 240.09748268 C147.47209187 240.09688749 146.67633477 240.0962923 145.85646381 240.09567908 C144.23979013 240.0944673 142.62311645 240.09325317 141.00644277 240.0920367 C125.85047247 240.08116416 110.69452442 240.08332228 95.53855287 240.08942155 C81.68081719 240.09459021 67.82315181 240.08333609 53.96543004 240.06432333 C39.72813208 240.0449399 25.49086737 240.03668983 11.25355613 240.04044658 C3.26368068 240.04235789 -4.72613493 240.03987793 -12.7159996 240.02573204 C-19.51803781 240.01381082 -26.31997936 240.01242163 -33.12201892 240.02452221 C-36.59050177 240.03040578 -40.05880788 240.03152496 -43.5272789 240.01951981 C-47.29210255 240.00907233 -51.05645196 240.01713778 -54.82125854 240.02983093 C-56.45566259 240.01876951 -56.45566259 240.01876951 -58.1230849 240.00748461 C-65.46105877 240.05949126 -73.46167326 240.40740905 -78.72753906 246.15405273 Z " fill="#000000" transform="translate(146.7900390625,31.595947265625)"/>
</svg>
