<?xml version="1.0" encoding="UTF-8"?>
<svg version="1.1" xmlns="http://www.w3.org/2000/svg" width="512" height="512">
<path d="M0 0 C0.65184613 -0.00367669 1.30369227 -0.00735338 1.97529131 -0.01114148 C4.15203846 -0.02212387 6.32873778 -0.02601292 8.50550842 -0.02983093 C10.06971893 -0.03609995 11.63392796 -0.04274714 13.19813538 -0.04974365 C18.33061189 -0.07074319 23.46308855 -0.08114567 28.59559631 -0.09111023 C30.36749855 -0.09516003 32.13940064 -0.09927701 33.91130257 -0.10346031 C42.24178052 -0.12250695 50.57224966 -0.13673625 58.90274519 -0.14507228 C68.49159544 -0.15482779 78.08021381 -0.18110533 87.66898245 -0.22157317 C95.09684336 -0.25183558 102.52463821 -0.26655091 109.95255953 -0.26985329 C114.38074934 -0.27219321 118.80869131 -0.28101403 123.2368145 -0.30631447 C127.41068907 -0.32977665 131.58415584 -0.33375647 135.75807953 -0.32355309 C137.27930886 -0.32306191 138.80055951 -0.32925704 140.32172585 -0.34310913 C157.7591733 -0.49284732 171.46063844 3.64337425 184.50575256 15.58467102 C191.93453029 23.31012518 197.05737881 33.02471771 200.38075256 43.14717102 C201.37982258 43.14348385 202.37889259 43.13979668 203.40823746 43.13599777 C227.74701808 43.04709687 252.08577759 42.9814193 276.42468643 42.93992233 C288.19493134 42.91931998 299.96506881 42.89124381 311.73524475 42.84541321 C321.99724106 42.80547427 332.25915954 42.7797213 342.52123141 42.77081704 C347.95211598 42.76561427 353.38277795 42.75343428 358.813591 42.72425079 C363.93206887 42.69697023 369.0502338 42.6887515 374.16877747 42.6947403 C376.04077102 42.6936457 377.91277574 42.68576755 379.78470612 42.67034912 C392.3995248 42.5715986 403.49808862 43.31146666 414.31825256 50.64717102 C415.172901 51.21435852 416.02754944 51.78154602 416.90809631 52.36592102 C428.84199629 60.9628537 436.1502257 72.93395739 438.95320249 87.33311725 C439.66645576 92.02761546 439.66281924 96.67623926 439.6481781 101.41636658 C439.65270921 102.50801381 439.65724033 103.59966103 439.66190875 104.72438848 C439.67450607 108.35966318 439.67293537 111.99478715 439.67127991 115.63008118 C439.67726811 118.24595837 439.68407433 120.86183379 439.69163513 123.47770691 C439.70819234 129.83312981 439.7137423 136.18851559 439.71485989 142.54395826 C439.715813 147.71521248 439.71993639 152.88645455 439.72626114 158.05770493 C439.74386017 172.74803662 439.75310226 187.43833919 439.75160019 202.1286815 C439.75152028 202.9193387 439.75144037 203.70999591 439.75135803 204.52461243 C439.75127627 205.3162452 439.75119451 206.10787798 439.75111027 206.92349963 C439.75029805 219.74169389 439.76942319 232.55977047 439.79763477 245.37793072 C439.82643331 258.56783765 439.8401712 271.75768733 439.83844721 284.94762647 C439.83778565 292.34134673 439.84317467 299.73494364 439.86480331 307.12863541 C439.8850307 314.08743872 439.8842705 321.04597859 439.86977005 328.00479507 C439.86768793 330.54915244 439.87234689 333.09352629 439.88449097 335.63785553 C439.97707898 356.39142824 439.09613589 375.06500162 424.06825256 391.02217102 C413.75090954 400.67613158 400.69481632 406.26398964 386.55208492 406.27859879 C385.53579962 406.28167774 385.53579962 406.28167774 384.49898329 406.28481889 C382.22419811 406.29048222 379.9494736 406.28903246 377.67468262 406.28761292 C376.0289988 406.29019694 374.38331561 406.29321021 372.73763329 406.29661632 C368.21146473 406.30468532 363.68531203 406.30647584 359.15913713 406.30721378 C354.27891831 406.30906454 349.39870772 406.31661204 344.51849365 406.323349 C333.84477182 406.33693267 323.17105374 406.34295724 312.49732471 406.34735966 C305.83182429 406.35012232 299.16632532 406.35435974 292.50082588 406.35886383 C274.04430832 406.3710571 255.58779191 406.38135594 237.13127041 406.38473892 C235.35924518 406.38506827 235.35924518 406.38506827 233.55142147 406.38540427 C232.36724828 406.38562255 231.1830751 406.38584083 229.96301788 406.38606572 C227.56344442 406.38650919 225.16387095 406.38695575 222.76429749 406.3874054 C220.97889147 406.38773754 220.97889147 406.38773754 219.15741665 406.38807639 C199.87617542 406.39202334 180.594972 406.40947396 161.31374537 406.43276492 C141.51571037 406.45648698 121.71769434 406.46894118 101.91964489 406.47010684 C90.80476101 406.47102318 79.68992638 406.47676506 68.57505608 406.49492645 C59.10911482 406.51033903 49.64323804 406.51544109 40.17728662 406.50718835 C35.3495064 406.50328582 30.52185598 406.50419208 25.6940918 406.5182457 C21.26922643 406.53100839 16.84458809 406.52976634 12.41972292 406.51765499 C10.82410871 406.51570207 9.22847828 406.51875756 7.63288682 406.52749935 C-10.19248918 406.61892885 -24.15085838 403.05412065 -37.33018494 390.56513977 C-49.42552006 377.78866803 -52.93174296 363.4562848 -52.88667297 346.3210907 C-52.89346964 344.41432869 -52.89346964 344.41432869 -52.90040362 342.46904624 C-52.9125758 338.9610221 -52.91238002 335.45309374 -52.91001487 331.94505334 C-52.90960522 328.15346338 -52.92065998 324.36190353 -52.93013 320.57032776 C-52.94670986 313.14895889 -52.95223821 305.7276218 -52.95335476 298.30623595 C-52.95430679 292.26967523 -52.95842482 286.23312495 -52.96475601 280.19656754 C-52.98236121 263.06041165 -52.99159616 245.92428077 -52.99009506 228.78811578 C-52.99001515 227.86520265 -52.98993524 226.94228951 -52.98985291 225.9914093 C-52.98977114 225.06736166 -52.98968938 224.14331402 -52.98960514 223.19126494 C-52.98879274 208.22545203 -53.0079208 193.25973987 -53.03612964 178.29395609 C-53.06490358 162.9062127 -53.07866741 147.51851839 -53.07694209 132.13074744 C-53.07627968 123.5001758 -53.08170617 114.86970976 -53.10329819 106.23916245 C-53.12156958 98.88909415 -53.12580877 91.5391793 -53.11227934 84.18909805 C-53.10577921 80.44437703 -53.10552427 76.6999499 -53.12298584 72.95525742 C-53.21764472 51.26552387 -53.09932316 32.01341737 -37.30674744 15.27217102 C-27.06638091 5.69023754 -14.04953707 0.05156 0 0 Z M-23.36924744 33.95967102 C-30.56533522 44.15412872 -30.76956631 54.24508362 -30.75296021 66.34841919 C-30.75522576 67.56439197 -30.75749132 68.78036475 -30.75982553 70.03318518 C-30.7650448 73.39156043 -30.76581315 76.74988196 -30.76463115 80.10825741 C-30.76442646 83.7368585 -30.76995241 87.3654517 -30.77468872 90.99404907 C-30.7829808 98.09670499 -30.7857429 105.1993526 -30.7863011 112.30201296 C-30.78677691 118.07737759 -30.78883494 123.85273949 -30.79200172 129.62810326 C-30.80080413 146.01570063 -30.80542171 162.40329146 -30.80467125 178.79089121 C-30.80463129 179.67360271 -30.80459134 180.5563142 -30.80455017 181.46577454 C-30.80450929 182.34956831 -30.80446841 183.23336209 -30.80442629 184.14393749 C-30.80401987 198.4658316 -30.8135895 212.78769941 -30.82768854 227.10958592 C-30.8420635 241.82830569 -30.84895811 256.54701265 -30.84809476 271.26573962 C-30.84776319 279.52393021 -30.85049268 287.78209323 -30.86127281 296.04027748 C-30.87039252 303.07131697 -30.87254097 310.10231638 -30.86576339 317.13335923 C-30.86250569 320.71750224 -30.86241429 324.30156841 -30.87111664 327.88570404 C-30.88047165 331.77882859 -30.87418609 335.67184186 -30.8664856 339.56497192 C-30.87162916 340.6869763 -30.87677272 341.80898068 -30.88207215 342.96498519 C-30.83119486 354.63685689 -29.80046749 365.52526361 -21.53721619 374.37763977 C-13.75048636 381.66028828 -6.56413313 384.26737731 4.09006786 384.27859879 C4.7546836 384.28065142 5.41929935 384.28270405 6.10405496 384.28481889 C8.33491191 384.29048104 10.56570696 384.28903261 12.79656982 384.28761292 C14.41068064 384.290197 16.02479081 384.29321028 17.6389001 384.29661632 C22.07771736 384.30468446 26.51651845 384.30647579 30.95534217 384.30721378 C35.74145242 384.30906466 40.52755427 384.31661217 45.31365967 384.323349 C55.78064221 384.33693149 66.24762092 384.3429569 76.71461082 384.34735966 C83.25010811 384.3501222 89.78560394 384.35435957 96.32110023 384.35886383 C114.41561509 384.37105634 132.51012876 384.38135572 150.60464764 384.38473892 C152.34181621 384.38506827 152.34181621 384.38506827 154.11407911 384.38540427 C155.85540588 384.38573169 155.85540588 384.38573169 157.63191098 384.38606572 C159.98430804 384.38650919 162.33670511 384.38695575 164.68910217 384.3874054 C165.85597255 384.38762683 167.02284293 384.38784826 168.22507302 384.38807639 C187.13260718 384.39202442 206.04010281 384.40947867 224.94762208 384.43276492 C244.35918322 384.45647899 263.77072501 384.4689408 283.18230087 384.47010684 C294.08138078 384.47102356 304.98041047 384.47677525 315.87947655 384.49492645 C325.16029047 384.51032816 334.44103866 384.51544747 343.72186293 384.50718835 C348.45623404 384.50328213 353.19047277 384.50421016 357.92482758 384.5182457 C362.26200323 384.53098606 366.59894705 384.52978589 370.9361224 384.51765499 C372.50209157 384.51569823 374.06807717 384.51877544 375.63402327 384.52749935 C387.77335265 384.59082621 398.23725855 383.87773304 407.38075256 375.14717102 C415.97139084 365.56305757 417.53856049 355.58863938 417.51446533 343.17285156 C417.51673089 342.30398073 417.51899644 341.43510991 417.52133065 340.53990966 C417.52762875 337.64685737 417.526844 334.75385243 417.52601624 331.86079407 C417.52901033 329.77896566 417.53241344 327.6971378 417.53619385 325.61531067 C417.54501227 319.97266082 417.54737105 314.33002614 417.54800963 308.68737006 C417.54872133 305.1588149 417.55085791 301.63026357 417.55350685 298.10170937 C417.56275293 285.78263225 417.56684264 273.46356594 417.5660553 261.14448547 C417.56545461 249.67584606 417.57600659 238.20725369 417.59179896 226.73862618 C417.60488967 216.87934896 417.61023855 207.02008708 417.60959989 197.16080123 C417.60934536 191.27798769 417.61217146 185.39521598 417.62277794 179.51241112 C417.63248474 173.97775316 417.63252039 168.44317682 417.62526131 162.90851593 C417.6242187 160.88291873 417.62655904 158.85731638 417.63262177 156.83172798 C417.94416274 135.03793476 417.94416274 135.03793476 407.78309631 116.33076477 C399.51607677 108.53279598 388.85412357 107.01789138 377.89097595 107.02932739 C377.16981759 107.02862281 376.44865923 107.02791823 375.70564759 107.02719229 C373.30679736 107.02589148 370.90801397 107.03154113 368.50917053 107.0370636 C366.78228251 107.03730592 365.05539434 107.03702794 363.32850647 107.03627014 C359.61866181 107.03516661 355.90882955 107.03658986 352.19898605 107.03963661 C346.33296388 107.04327558 340.46700595 107.03411824 334.60099792 107.02185059 C333.61003549 107.01982866 332.61907306 107.01780673 331.59808147 107.01572353 C329.57238635 107.01155532 327.54669131 107.00735257 325.52099633 107.00311601 C311.87020608 106.97497979 298.21955706 106.95487904 284.56874084 106.97212219 C275.35114756 106.98367001 266.13384404 106.97412581 256.9163028 106.94006461 C252.04067107 106.92289627 247.16556258 106.91664145 242.28992844 106.93618202 C237.70792293 106.95438202 233.12682068 106.94484176 228.54489136 106.91392517 C226.86348281 106.90754969 225.18199943 106.91143581 223.50064468 106.92632103 C221.20486275 106.94513856 218.91219336 106.92712261 216.61656189 106.89993286 C215.33237806 106.89938809 214.04819424 106.89884333 212.72509575 106.89828205 C208.03883321 105.84578735 207.06693935 104.06426187 204.38075256 100.14717102 C203.18859098 98.04837104 202.06925678 95.90685987 201.01844788 93.73384094 C200.72006012 93.1231929 200.42167236 92.51254486 200.11424255 91.88339233 C199.47295292 90.56908404 198.83527462 89.25300852 198.2009201 87.93533897 C197.19074771 85.84003476 196.16848153 83.75104127 195.14265442 81.6633606 C192.22957859 75.73097179 189.33336272 69.79052735 186.45692444 63.84028625 C184.69030282 60.18802693 182.90556528 56.54508461 181.10977936 52.90708351 C180.43481413 51.53074389 179.76660473 50.15106702 179.1057663 48.76788902 C173.91090896 37.90064127 168.12706239 28.40801423 156.42372131 23.80342102 C152.21552511 22.45164863 148.60719968 22.01863379 144.15855408 22.00672913 C142.24093513 21.99816391 142.24093513 21.99816391 140.28457642 21.98942566 C138.86985789 21.98818036 137.45513925 21.98705525 136.04042053 21.98603821 C134.54868446 21.98140816 133.05694958 21.97638324 131.56521606 21.97099304 C127.51325827 21.95788207 123.46131703 21.95142622 119.40934134 21.94698238 C116.87515256 21.94404858 114.34096828 21.93994311 111.80678177 21.93547821 C103.8703507 21.92180456 95.93392994 21.91213817 87.9974879 21.90827632 C78.85066089 21.9038006 69.70398369 21.88627477 60.55720222 21.85727572 C53.4784645 21.83561632 46.39976879 21.82556971 39.32099831 21.8242352 C35.09752967 21.8231899 30.87420189 21.8173413 26.65076828 21.79941559 C22.67312999 21.78286186 18.6957373 21.78081455 14.71807671 21.7895546 C13.2645152 21.79032117 11.81094009 21.7860327 10.35741234 21.77609634 C-3.78662941 21.68514056 -13.34702551 23.70967132 -23.36924744 33.95967102 Z M212.38075256 65.14717102 C213.82398725 69.88506267 215.75301989 74.13575253 218.00575256 78.52217102 C218.49301819 79.48316711 218.49301819 79.48316711 218.99012756 80.46357727 C219.78332663 82.02664603 220.58152287 83.58717724 221.38075256 85.14717102 C222.67697934 85.15075355 222.67697934 85.15075355 223.99939251 85.15440845 C245.06731976 85.21365379 266.13513354 85.28926466 287.20293713 85.38288593 C297.39134878 85.42777039 307.57972605 85.46720189 317.76820374 85.49360657 C326.65286788 85.5166463 335.53742254 85.5501107 344.42199975 85.59587258 C349.12233443 85.61972445 353.82256122 85.63850573 358.52295494 85.64478493 C362.95613181 85.65087234 367.38903293 85.67100273 371.82210732 85.70144653 C373.44047245 85.71016857 375.0588737 85.71396159 376.67726135 85.71217918 C389.46675785 85.70254943 401.06934445 86.84182347 412.45497131 93.15888977 C414.31655402 94.29936205 414.31655402 94.29936205 416.38075256 94.14717102 C415.69859936 84.59702623 412.49550776 78.51687325 405.53700256 71.90888977 C398.90740624 66.49231741 392.53096149 65.02101541 384.10420227 65.0269165 C383.00264191 65.02563487 383.00264191 65.02563487 381.87882781 65.02432734 C379.41753053 65.02267993 376.95630138 65.02818183 374.49501038 65.03364563 C372.73089601 65.03392769 370.96678153 65.03376941 369.20266724 65.03320312 C364.41172432 65.03291587 359.62080638 65.03880098 354.82986927 65.04577708 C349.82369933 65.05202259 344.81752883 65.05261537 339.81135559 65.05380249 C330.33062883 65.05691226 320.84991358 65.0651209 311.36919188 65.07515198 C300.5760775 65.08632408 289.78296257 65.09182634 278.98984385 65.09684741 C256.78680699 65.1073038 234.5837805 65.12489642 212.38075256 65.14717102 Z " fill="#000000" transform="translate(62.61924743652344,52.85282897949219)"/>
</svg>
