<?xml version="1.0" encoding="UTF-8"?>
<svg version="1.1" xmlns="http://www.w3.org/2000/svg" width="512" height="512">
<path d="M0 0 C0.64564687 -0.00297112 1.29129373 -0.00594224 1.95650566 -0.0090034 C4.11806082 -0.01766866 6.27956045 -0.01919682 8.44113159 -0.02069092 C9.99198016 -0.02532075 11.54282759 -0.03034564 13.09367371 -0.03573608 C17.30678341 -0.04884899 21.51987718 -0.05530326 25.73300409 -0.05974674 C28.36769861 -0.06268017 31.00238881 -0.06678557 33.63708115 -0.07125092 C41.88746658 -0.08492495 50.13784209 -0.09459121 58.38823807 -0.09845281 C67.89842585 -0.10292891 77.40846957 -0.12045635 86.91861355 -0.1494534 C94.27760361 -0.1711089 101.63655326 -0.1811592 108.99557483 -0.18249393 C113.38671528 -0.18353948 117.77772028 -0.18939371 122.16882706 -0.20731354 C126.30405148 -0.2238605 130.43903966 -0.22591779 134.57428551 -0.21717453 C136.08589882 -0.2164076 137.59752518 -0.22070115 139.10910606 -0.23063278 C155.49242427 -0.33189917 167.01084907 3.42275145 179.07736206 14.68731689 C183.09477236 18.67299409 186.82911555 22.87951431 190.55001831 27.14044189 C193.53906609 30.48366768 196.54458353 33.81194735 199.55001831 37.14044189 C200.00731323 37.64962158 200.46460815 38.15880127 200.9357605 38.68341064 C202.38672635 40.29754908 203.84289964 41.90685763 205.30001831 43.51544189 C206.18173706 44.49255127 207.06345581 45.46966064 207.97189331 46.47637939 C212.95017412 51.6206029 215.99542394 54.01758202 223.15781212 54.26514053 C224.6403761 54.270183 226.12296473 54.26973022 227.60552979 54.26501465 C228.42394714 54.2664248 229.24236449 54.26783494 230.08558238 54.26928782 C232.83204569 54.27294194 235.57845741 54.26960372 238.32492065 54.26641846 C240.2929183 54.26781327 242.26091564 54.26971262 244.22891235 54.27207947 C248.47081112 54.2765782 252.7127002 54.27843259 256.95460129 54.27854156 C263.67137856 54.27968239 270.38810091 54.29252586 277.1048584 54.30810547 C278.23900031 54.31067832 279.37314223 54.31325118 280.54165208 54.31590199 C282.86118448 54.3211688 285.18071683 54.32645428 287.50024915 54.33175802 C303.13680164 54.3668389 318.77328648 54.39342467 334.40988159 54.39093018 C344.95693792 54.38933806 355.50380732 54.40546229 366.05080378 54.4416368 C371.62812596 54.46004501 377.20513628 54.46948484 382.78248215 54.45716095 C388.03739571 54.44566286 393.2917528 54.45757107 398.54659271 54.48679543 C400.46609876 54.49339645 402.38565638 54.49163773 404.30514145 54.48049736 C421.25982645 54.39032989 434.0700796 57.07970073 446.69845581 69.20294189 C456.66056981 79.57242859 459.86477313 91.87241833 459.81071472 105.89233398 C459.81454027 106.95242621 459.81836582 108.01251843 459.82230729 109.10473466 C459.83259826 112.64500832 459.82865249 116.18511861 459.82467651 119.72540283 C459.82902519 122.26865793 459.83420886 124.81191173 459.84016418 127.35516357 C459.85216039 133.53974825 459.85470737 139.72427305 459.85236392 145.90886709 C459.85057795 150.93908942 459.85233638 155.96929859 459.85658836 160.99951935 C459.85718355 161.71656468 459.85777874 162.43361 459.85839197 163.17238398 C459.85960378 164.62928293 459.86081791 166.08618189 459.86203434 167.54308084 C459.87290239 181.19598049 459.87075113 194.84885542 459.8646495 208.50175646 C459.8594835 220.97356835 459.8707287 233.44530206 459.88974772 245.91709849 C459.90915252 258.74079781 459.91737733 271.5644602 459.91362447 284.3881743 C459.9117161 291.58056349 459.91416408 298.77288619 459.928339 305.96526337 C459.94154052 312.73194035 459.93895695 319.49843611 459.92592812 326.26512146 C459.92356636 328.74342655 459.92628257 331.22174268 459.93455124 333.7000351 C459.94505432 337.09374135 459.93688898 340.48692718 459.92424011 343.88061523 C459.9316144 344.85185074 459.93898868 345.82308624 459.94658643 346.82375312 C459.83569616 361.05162686 455.20852844 372.77180722 445.59298706 383.25762939 C435.89302571 392.19717313 424.38509942 396.25641301 411.36494446 396.27466297 C410.64888792 396.2770152 409.93283139 396.27936743 409.19507617 396.28179094 C406.78920503 396.28846215 404.38338814 396.28802329 401.97750854 396.28761292 C400.23766689 396.29091271 398.49782599 396.29463853 396.75798607 396.29875439 C391.97151392 396.30876938 387.1850543 396.31249039 382.39857316 396.3151437 C377.23816791 396.31904825 372.07777257 396.3286265 366.91737366 396.33735657 C354.45210208 396.35711692 341.98682969 396.36718674 329.52154636 396.37608436 C323.65064504 396.38046804 317.77974461 396.38583465 311.90884399 396.39107323 C292.39118639 396.40808523 272.87352935 396.42257919 253.35586548 396.42982197 C248.29118855 396.43173185 243.22651163 396.43365218 238.16183472 396.43560791 C236.90304221 396.43609165 235.64424971 396.43657539 234.34731197 396.43707379 C213.95772639 396.44537331 193.56819949 396.47070905 173.17863953 396.50318859 C152.24267754 396.53626648 131.30674536 396.5542714 110.3707571 396.55746621 C98.61698709 396.55963064 86.86330264 396.56836966 75.10955811 396.59392738 C65.09905976 396.61564432 55.08866777 396.62367987 45.07814854 396.6139606 C39.97274834 396.6094188 34.86756754 396.61129534 29.76219749 396.63072205 C25.08248899 396.64837485 20.40315961 396.64733876 15.72344697 396.63182475 C14.03629226 396.62945191 12.34911115 396.63375537 10.66199672 396.6456534 C-5.48762546 396.75243174 -19.72176298 393.72209589 -31.76248169 382.26544189 C-41.91112011 371.44295021 -45.06655961 359.26458092 -44.95791626 344.62969971 C-44.96415622 343.32117664 -44.97039618 342.01265358 -44.97682524 340.6644783 C-44.99339018 337.06611153 -44.98533154 333.46817379 -44.97288036 329.86980629 C-44.96377901 325.97606247 -44.97782464 322.08238918 -44.98880005 318.18865967 C-45.00653593 310.57414992 -45.00276737 302.95979837 -44.99114949 295.34528255 C-44.98209595 289.15382024 -44.98089945 282.9624021 -44.98524475 276.77093506 C-44.98585768 275.88791002 -44.98647062 275.00488497 -44.98710212 274.09510159 C-44.98838109 272.30094877 -44.98967795 270.50679595 -44.99099249 268.71264315 C-45.00238384 251.91029827 -44.9893073 235.10804085 -44.96779102 218.30571032 C-44.94992135 203.90552498 -44.95302587 189.50546865 -44.97146606 175.10528564 C-44.99289835 158.36083733 -45.00128534 141.61646557 -44.98901701 124.87200546 C-44.98774289 123.08465323 -44.9864854 121.29730099 -44.98524475 119.50994873 C-44.9843191 118.1910184 -44.9843191 118.1910184 -44.98337474 116.84544301 C-44.97992891 110.66531481 -44.98573361 104.48523539 -44.99516296 98.30511475 C-45.00641056 90.76800363 -45.00328508 83.23105904 -44.98203999 75.69396687 C-44.97156655 71.85239822 -44.9673439 68.01110666 -44.9806366 64.16954041 C-44.99485726 59.99651638 -44.97781608 55.82418489 -44.95791626 51.65118408 C-44.96683915 50.44922016 -44.97576203 49.24725624 -44.98495531 48.00886917 C-44.87506738 36.09217635 -41.60151089 26.62997102 -34.44998169 17.14044189 C-33.58373169 15.84106689 -33.58373169 15.84106689 -32.69998169 14.51544189 C-24.12341837 5.46240283 -12.42811402 0.03198477 0 0 Z M-8.09451294 36.64044189 C-11.49319996 41.00531084 -12.57331408 43.83693018 -12.58699608 49.29738903 C-12.59207062 50.37131442 -12.59714516 51.44523981 -12.60237348 52.5517084 C-12.60287124 53.73592499 -12.603369 54.92014159 -12.60388184 56.14024353 C-12.60826409 57.39489641 -12.61264634 58.64954928 -12.61716139 59.94222194 C-12.62912999 63.43168281 -12.634776 66.92112985 -12.63934255 70.41060722 C-12.64529753 74.17148806 -12.65690762 77.93235236 -12.66763306 81.69322205 C-12.69215908 90.77921556 -12.70678432 99.86521454 -12.71969312 108.95123097 C-12.72340485 111.51724794 -12.7273781 114.08326436 -12.73144579 116.64928079 C-12.75668163 132.58184124 -12.77873605 148.51440254 -12.79117393 164.44697857 C-12.79410366 168.13768708 -12.79706532 171.82839556 -12.80007935 175.519104 C-12.8008254 176.43641837 -12.80157145 177.35373273 -12.80234011 178.29884449 C-12.8149946 193.15985208 -12.84821886 208.02074005 -12.88988118 222.88169172 C-12.93229869 238.13699354 -12.95586874 253.39223411 -12.9610945 268.64759475 C-12.96450878 277.21379582 -12.97626593 285.77980994 -13.00919724 294.34595299 C-13.03719639 301.64111595 -13.04819771 308.93605364 -13.03700177 316.23126616 C-13.03181474 319.95287286 -13.034704 323.67400779 -13.05946732 327.39554596 C-13.08610563 331.43259872 -13.0739012 335.46861305 -13.0579834 339.50572205 C-13.07186549 340.67878503 -13.08574757 341.85184801 -13.10005033 343.06045836 C-13.03272491 349.98258541 -12.12699854 354.85378602 -7.44998169 360.14044189 C-2.34370298 364.00128677 2.18052499 364.2655919 8.45701313 364.27186966 C9.15514129 364.27392229 9.85326945 364.27597493 10.57255301 364.27808976 C12.92340153 364.28376634 15.27419159 364.2823017 17.62504578 364.28088379 C19.32292759 364.28346704 21.02080879 364.28648009 22.71868914 364.28988719 C27.39358891 364.29796502 32.06847332 364.2997472 36.74337924 364.30048466 C41.78166722 364.30233383 46.81994722 364.30988043 51.85823059 364.31661987 C62.87877233 364.33020883 73.89931044 364.33622866 84.91985917 364.34063053 C91.79855505 364.34339175 98.67724952 364.34762886 105.55594444 364.3521347 C124.59404442 364.36432763 143.63214328 364.37462721 162.67024708 364.3780098 C163.8890015 364.37822936 165.10775591 364.37844893 166.36344228 364.37867515 C168.19598922 364.37900256 168.19598922 364.37900256 170.0655573 364.3793366 C172.54125329 364.37978006 175.01694928 364.38022663 177.49264526 364.38067627 C179.33469792 364.38100841 179.33469792 364.38100841 181.21396377 364.38134727 C201.11943237 364.38529659 221.0248644 364.40275461 240.93031887 364.42603579 C261.35771493 364.44973499 281.78509262 364.46221098 302.21250266 364.46337771 C313.68550495 364.46429523 325.15845957 364.47006688 336.63144875 364.48819733 C346.39948851 364.50357892 356.16746587 364.50873022 365.93551544 364.50045922 C370.92063842 364.49654597 375.90563566 364.49751528 380.89074326 364.51151657 C385.45354977 364.5242148 390.01613552 364.52309396 394.57894155 364.51092586 C396.23035089 364.50896178 397.88177565 364.51207995 399.53316329 364.52077022 C401.77754383 364.5318341 404.02114132 364.52439501 406.26550007 364.51237869 C407.51223194 364.51297578 408.75896382 364.51357287 410.04347545 364.51418805 C415.5452795 363.92777625 420.32437101 362.16181235 423.92501831 357.76544189 C424.40712769 357.20083252 424.88923706 356.63622314 425.38595581 356.05450439 C428.4221716 351.06206904 427.69563363 344.81978751 427.69046021 339.17796326 C427.69343133 338.16661467 427.69640245 337.15526609 427.69946361 336.11327058 C427.70814379 332.72021971 427.70965828 329.32720416 427.71115112 325.93414307 C427.71577973 323.50306625 427.72080444 321.07199016 427.72619629 318.64091492 C427.73931704 312.03344739 427.74580128 305.42598719 427.75020695 298.81850982 C427.75297209 294.6911473 427.7572099 290.56378711 427.76171112 286.43642616 C427.77390068 275.00386165 427.78420108 263.57129901 427.78758621 252.13872814 C427.78780578 251.40744865 427.78802534 250.67616916 427.78825156 249.92272969 C427.78846984 249.18972676 427.78868812 248.45672384 427.78891301 247.7015087 C427.78935647 246.21622797 427.78980304 244.73094724 427.79025269 243.2456665 C427.79047412 242.50892003 427.79069555 241.77217356 427.79092368 241.01310144 C427.79487174 229.07512126 427.8123274 217.13720213 427.83561221 205.19924553 C427.85933774 192.93615161 427.87178858 180.6730883 427.87295413 168.40997106 C427.87387014 161.52729517 427.87960386 154.64469885 427.89777374 147.76204491 C427.91480384 141.28846367 427.91641837 134.81499312 427.90763474 128.34139442 C427.90686346 125.96622437 427.91121897 123.59104626 427.92109299 121.21589661 C427.93378831 117.97170799 427.92794841 114.72805635 427.91751099 111.48387146 C427.92556739 110.54562961 427.9336238 109.60738777 427.94192433 108.64071435 C427.89106307 101.87402227 427.17621132 95.7666349 422.17501831 90.76544189 C416.90173115 87.50102604 412.54490326 86.85114813 406.40548706 86.8888855 C405.58959327 86.88591536 404.77369947 86.88294522 403.93308163 86.87988508 C401.2011556 86.87225125 398.46944496 86.87873673 395.73751831 86.8850708 C393.77760167 86.8823205 391.81768614 86.87864035 389.85777283 86.87409973 C385.63661188 86.86598726 381.41550392 86.86381947 377.19433594 86.86604691 C370.51133912 86.86888141 363.82844791 86.85452119 357.14547729 86.83706665 C338.14118039 86.79005802 319.1368903 86.76611181 300.13253784 86.75958252 C289.63678214 86.7558243 279.14114567 86.737731 268.64544106 86.70448816 C262.01133095 86.68433382 255.37752962 86.68187521 248.74340153 86.69276834 C244.60074036 86.69538776 240.4582564 86.68131083 236.3156414 86.6626873 C234.40538621 86.65739427 232.49509778 86.6588122 230.58485603 86.6677227 C214.64930827 86.73601345 199.94019759 85.12183688 187.82492065 73.48321533 C183.57635476 69.17669896 179.53981545 64.68606451 175.55001831 60.14044189 C174.88228394 59.38376221 174.21454956 58.62708252 173.52658081 57.84747314 C172.47805135 56.64805774 171.43360802 55.44505495 170.39376831 54.23809814 C167.78291963 51.26770463 165.10561722 48.36036695 162.42501831 45.45294189 C161.92147827 44.90557373 161.41793823 44.35820557 160.8991394 43.79425049 C159.45770287 42.23502936 158.0045385 40.68744895 156.55001831 39.14044189 C155.285448 37.76952393 155.285448 37.76952393 153.99533081 36.37091064 C149.77886484 32.52490095 146.01377524 31.8904834 140.40843201 31.87974548 C139.173349 31.87266068 137.93826599 31.86557587 136.66575623 31.85827637 C135.30499231 31.86056997 133.94422874 31.86307964 132.58346558 31.86578369 C131.14420304 31.86143443 129.70494282 31.85625056 128.26568604 31.85029602 C124.36278502 31.83691809 120.45998091 31.83632598 116.55706143 31.83885932 C113.29661752 31.83992981 110.03619316 31.83504369 106.77575344 31.8302539 C99.08289909 31.81916298 91.39009358 31.81871903 83.69723511 31.82476807 C75.7656771 31.83080896 67.83429643 31.81849301 59.90276867 31.797198 C53.08818163 31.77957574 46.273651 31.7735816 39.45904201 31.77683574 C35.39110328 31.77864768 31.32329107 31.77602131 27.255373 31.7621212 C23.4295584 31.7495372 19.60402009 31.75149221 15.77820969 31.76453209 C14.37618732 31.76689615 12.97414548 31.76416923 11.57214546 31.75590897 C9.65431863 31.74542651 7.73641295 31.75535315 5.81858826 31.76622009 C4.74658456 31.76605235 3.67458086 31.76588461 2.5700922 31.76571178 C-1.61030396 32.28441443 -4.97266133 33.79295729 -8.09451294 36.64044189 Z " fill="#000000" transform="translate(48.449981689453125,57.85955810546875)"/>
<path d="M0 0 C5.26852458 5.74748136 5.47872417 11.04613176 5.35546875 18.4609375 C5.35122391 19.42907379 5.34697906 20.39721008 5.34260559 21.39468384 C5.32587956 24.47174473 5.28823831 27.54813872 5.25 30.625 C5.23494532 32.71743842 5.22125829 34.80988717 5.20898438 36.90234375 C5.17599588 42.01848418 5.12425528 47.13412921 5.0625 52.25 C5.88815964 52.23667633 5.88815964 52.23667633 6.73049927 52.2230835 C12.47322172 52.13440709 18.21574883 52.07418197 23.95898438 52.03027344 C26.10066634 52.01019112 28.2422937 51.98291963 30.38378906 51.94824219 C33.46693415 51.89957602 36.54935262 51.8769971 39.6328125 51.859375 C40.58616486 51.83872986 41.53951721 51.81808472 42.52175903 51.79681396 C48.21934303 51.79490234 51.59123575 52.35502426 56.0625 56.25 C59.525062 60.89712268 60.6839787 64.31690472 60.37890625 70.11328125 C59.67087942 74.8946476 57.62316319 77.95356273 54.0625 81.0625 C50.46663217 83.68448696 48.10500433 84.37622435 43.7746582 84.36352539 C42.91399246 84.36344986 42.05332672 84.36337433 41.1665802 84.36329651 C40.24149155 84.35813522 39.31640289 84.35297394 38.36328125 84.34765625 C37.41309616 84.3462413 36.46291107 84.34482635 35.4839325 84.34336853 C32.44758971 84.33776875 29.41132052 84.32521632 26.375 84.3125 C24.31705836 84.30748497 22.25911556 84.30292207 20.20117188 84.29882812 C15.15491954 84.2877994 10.10872225 84.27053493 5.0625 84.25 C5.07821045 85.52117676 5.0939209 86.79235352 5.11010742 88.10205078 C5.1645325 92.83196644 5.19889592 97.56185456 5.22729492 102.29199219 C5.24235288 104.33663594 5.26280357 106.38124755 5.28881836 108.42578125 C5.32533311 111.36987252 5.34225651 114.31353557 5.35546875 117.2578125 C5.37095261 118.1674173 5.38643646 119.07702209 5.40238953 120.01419067 C5.40394277 125.91231235 4.70457364 130.35335155 0.5625 134.89453125 C-3.89232053 138.36325869 -7.03679867 139.62858106 -12.74609375 139.5234375 C-16.59864068 139.04272754 -19.95854451 137.74706563 -22.9375 135.25 C-27.07714836 129.40579056 -27.48529594 124.99343652 -27.328125 117.94140625 C-27.32246521 116.97468491 -27.31680542 116.00796356 -27.31097412 115.01194763 C-27.28870531 111.94494681 -27.23852649 108.87914364 -27.1875 105.8125 C-27.16742273 103.72462633 -27.14917412 101.63673422 -27.1328125 99.54882812 C-27.08887159 94.44876208 -27.01990983 89.34958362 -26.9375 84.25 C-28.82855469 84.2814209 -28.82855469 84.2814209 -30.7578125 84.31347656 C-35.46163451 84.38620087 -40.1654074 84.43191736 -44.86962891 84.46972656 C-46.90063857 84.48976836 -48.93159106 84.51700947 -50.96240234 84.55175781 C-53.89174556 84.60060414 -56.820322 84.62304343 -59.75 84.640625 C-60.64928223 84.66127014 -61.54856445 84.68191528 -62.47509766 84.70318604 C-68.46786395 84.70529063 -72.93045836 83.63317158 -77.9375 80.25 C-81.68157512 76.50592488 -82.23462053 73.37270653 -82.4375 68.25 C-82.24750458 63.13279006 -81.56583663 60.06930172 -77.9375 56.25 C-72.57457766 51.67059086 -68.2267709 51.71387387 -61.5078125 51.859375 C-60.51748016 51.86503479 -59.52714783 51.87069458 -58.50680542 51.87652588 C-55.35820225 51.89883326 -52.21075651 51.94901998 -49.0625 52 C-46.92189149 52.02007225 -44.78126506 52.03832175 -42.640625 52.0546875 C-37.4058582 52.09867931 -32.17176181 52.16553472 -26.9375 52.25 C-26.94638245 51.69956024 -26.95526489 51.14912048 -26.9644165 50.58200073 C-27.05309291 44.83927828 -27.11331803 39.09675117 -27.15722656 33.35351562 C-27.17730888 31.21183366 -27.20458037 29.0702063 -27.23925781 26.92871094 C-27.28792398 23.84556585 -27.3105029 20.76314738 -27.328125 17.6796875 C-27.35909271 16.24965897 -27.35909271 16.24965897 -27.39068604 14.79074097 C-27.39259861 9.09030947 -26.82499742 5.7298362 -22.9375 1.25 C-15.41834632 -4.5460143 -8.2744709 -4.92947202 0 0 Z " fill="#000000" transform="translate(266.9375,216.75)"/>
</svg>
