<?xml version="1.0" encoding="UTF-8"?>
<svg version="1.1" xmlns="http://www.w3.org/2000/svg" width="512" height="512">
<path d="M0 0 C4.89872999 2.85759249 7.79346527 7.1303958 9.5625 12.4375 C9.65672445 15.37508793 9.69276178 18.28865324 9.68275452 21.22624207 C9.68403615 22.58990991 9.68403615 22.58990991 9.68534368 23.98112661 C9.68699612 27.039765 9.68148093 30.09834904 9.67602539 33.15698242 C9.67574344 35.34458922 9.6759014 37.53219611 9.6764679 39.71980286 C9.67675557 45.66985692 9.67086364 51.61989094 9.66389394 57.56994033 C9.65765545 63.78395598 9.65705621 69.99797206 9.65586853 76.21199036 C9.65311055 86.64548077 9.64685838 97.0789643 9.63793945 107.51245117 C9.62876201 118.25952111 9.6216828 129.00658905 9.61743164 139.75366211 C9.61703756 140.74714938 9.61703756 140.74714938 9.61663551 141.7607071 C9.61533048 145.08335901 9.61406902 148.40601092 9.61282361 151.72866285 C9.60236253 179.29828037 9.5847659 206.86788967 9.5625 234.4375 C10.69925423 234.43381283 11.83600845 234.43012566 13.00720978 234.42632675 C40.66598177 234.33753148 68.32473527 234.27179835 95.98361969 234.23025131 C98.64630646 234.22614533 101.30899313 234.22200665 103.97167969 234.21777344 C104.63349768 234.2167242 105.29531568 234.21567495 105.97718877 234.21459392 C116.02161813 234.19827922 126.06596887 234.17010723 136.11035156 234.13574219 C147.76839368 234.09587531 159.4263676 234.07006734 171.08447599 234.06114602 C177.25745809 234.05593108 183.4302451 234.04367322 189.60316467 234.01457977 C195.41435509 233.9874133 201.22527021 233.97905764 207.0365181 233.98506927 C209.16819887 233.9839696 211.29988892 233.97602327 213.43151474 233.9606781 C216.34550834 233.94073126 219.25846703 233.94557826 222.17248535 233.95648193 C223.01297314 233.94483057 223.85346093 233.9331792 224.71941805 233.92117476 C231.18522962 233.98642087 236.71011583 235.62145193 241.40234375 240.25390625 C241.76457031 240.83011719 242.12679688 241.40632812 242.5 242 C242.88027344 242.57878906 243.26054687 243.15757812 243.65234375 243.75390625 C246.69010477 249.37311227 246.55816692 256.76672797 244.9140625 262.828125 C242.67839464 267.83449234 239.35343455 270.84750522 234.5625 273.4375 C230.62511352 274.74996216 226.87760541 274.57173479 222.77375793 274.55775452 C221.41009009 274.55903615 221.41009009 274.55903615 220.01887339 274.56034368 C216.960235 274.56199612 213.90165096 274.55648093 210.84301758 274.55102539 C208.65541078 274.55074344 206.46780389 274.5509014 204.28019714 274.5514679 C198.33014308 274.55175557 192.38010906 274.54586364 186.43005967 274.53889394 C180.21604402 274.53265545 174.00202794 274.53205621 167.78800964 274.53086853 C157.35451923 274.52811055 146.9210357 274.52185838 136.48754883 274.51293945 C125.74047889 274.50376201 114.99341095 274.4966828 104.24633789 274.49243164 C103.58401304 274.49216892 102.9216882 274.49190619 102.2392929 274.49163551 C98.91664099 274.49033048 95.59398908 274.48906902 92.27133715 274.48782361 C64.70171963 274.47736253 37.13211033 274.4597659 9.5625 274.4375 C9.56618717 275.57425423 9.56987434 276.71100845 9.57367325 277.88220978 C9.66246852 305.54098177 9.72820165 333.19973527 9.76974869 360.85861969 C9.77385467 363.52130646 9.77799335 366.18399313 9.78222656 368.84667969 C9.7832758 369.50849768 9.78432505 370.17031568 9.78540608 370.85218877 C9.80172078 380.89661813 9.82989277 390.94096887 9.86425781 400.98535156 C9.90412469 412.64339368 9.92993266 424.3013676 9.93885398 435.95947599 C9.94406892 442.13245809 9.95632678 448.3052451 9.98542023 454.47816467 C10.0125867 460.28935509 10.02094236 466.10027021 10.01493073 471.9115181 C10.0160304 474.04319887 10.02397673 476.17488892 10.0393219 478.30651474 C10.05926874 481.22050834 10.05442174 484.13346703 10.04351807 487.04748535 C10.05516943 487.88797314 10.0668208 488.72846093 10.07882524 489.59441805 C10.01357913 496.06022962 8.37854807 501.58511583 3.74609375 506.27734375 C3.16988281 506.63957031 2.59367187 507.00179688 2 507.375 C1.42121094 507.75527344 0.84242188 508.13554687 0.24609375 508.52734375 C-5.37311227 511.56510477 -12.76672797 511.43316692 -18.828125 509.7890625 C-23.83449234 507.55339464 -26.84750522 504.22843455 -29.4375 499.4375 C-30.74996216 495.50011352 -30.57173479 491.75260541 -30.55775452 487.64875793 C-30.55903615 486.28509009 -30.55903615 486.28509009 -30.56034368 484.89387339 C-30.56199612 481.835235 -30.55648093 478.77665096 -30.55102539 475.71801758 C-30.55074344 473.53041078 -30.5509014 471.34280389 -30.5514679 469.15519714 C-30.55175557 463.20514308 -30.54586364 457.25510906 -30.53889394 451.30505967 C-30.53265545 445.09104402 -30.53205621 438.87702794 -30.53086853 432.66300964 C-30.52811055 422.22951923 -30.52185838 411.7960357 -30.51293945 401.36254883 C-30.50376201 390.61547889 -30.4966828 379.86841095 -30.49243164 369.12133789 C-30.49216892 368.45901304 -30.49190619 367.7966882 -30.49163551 367.1142929 C-30.49033048 363.79164099 -30.48906902 360.46898908 -30.48782361 357.14633715 C-30.47736253 329.57671963 -30.4597659 302.00711033 -30.4375 274.4375 C-31.57425423 274.44118717 -32.71100845 274.44487434 -33.88220978 274.44867325 C-61.54098177 274.53746852 -89.19973527 274.60320165 -116.85861969 274.64474869 C-119.52130646 274.64885467 -122.18399313 274.65299335 -124.84667969 274.65722656 C-125.50849768 274.6582758 -126.17031568 274.65932505 -126.85218877 274.66040608 C-136.89661813 274.67672078 -146.94096887 274.70489277 -156.98535156 274.73925781 C-168.64339368 274.77912469 -180.3013676 274.80493266 -191.95947599 274.81385398 C-198.13245809 274.81906892 -204.3052451 274.83132678 -210.47816467 274.86042023 C-216.28935509 274.8875867 -222.10027021 274.89594236 -227.9115181 274.88993073 C-230.04319887 274.8910304 -232.17488892 274.89897673 -234.30651474 274.9143219 C-237.22050834 274.93426874 -240.13346703 274.92942174 -243.04748535 274.91851807 C-243.88797314 274.93016943 -244.72846093 274.9418208 -245.59441805 274.95382524 C-252.06022962 274.88857913 -257.58511583 273.25354807 -262.27734375 268.62109375 C-262.63957031 268.04488281 -263.00179688 267.46867187 -263.375 266.875 C-263.75527344 266.29621094 -264.13554687 265.71742188 -264.52734375 265.12109375 C-267.56510477 259.50188773 -267.43316692 252.10827203 -265.7890625 246.046875 C-263.55339464 241.04050766 -260.22843455 238.02749478 -255.4375 235.4375 C-251.50011352 234.12503784 -247.75260541 234.30326521 -243.64875793 234.31724548 C-242.28509009 234.31596385 -242.28509009 234.31596385 -240.89387339 234.31465632 C-237.835235 234.31300388 -234.77665096 234.31851907 -231.71801758 234.32397461 C-229.53041078 234.32425656 -227.34280389 234.3240986 -225.15519714 234.3235321 C-219.20514308 234.32324443 -213.25510906 234.32913636 -207.30505967 234.33610606 C-201.09104402 234.34234455 -194.87702794 234.34294379 -188.66300964 234.34413147 C-178.22951923 234.34688945 -167.7960357 234.35314162 -157.36254883 234.36206055 C-146.61547889 234.37123799 -135.86841095 234.3783172 -125.12133789 234.38256836 C-124.12785062 234.38296244 -124.12785062 234.38296244 -123.1142929 234.38336449 C-119.79164099 234.38466952 -116.46898908 234.38593098 -113.14633715 234.38717639 C-85.57671963 234.39763747 -58.00711033 234.4152341 -30.4375 234.4375 C-30.44118717 233.30074577 -30.44487434 232.16399155 -30.44867325 230.99279022 C-30.53746852 203.33401823 -30.60320165 175.67526473 -30.64474869 148.01638031 C-30.64885467 145.35369354 -30.65299335 142.69100687 -30.65722656 140.02832031 C-30.6582758 139.36650232 -30.65932505 138.70468432 -30.66040608 138.02281123 C-30.67672078 127.97838187 -30.70489277 117.93403113 -30.73925781 107.88964844 C-30.77912469 96.23160632 -30.80493266 84.5736324 -30.81385398 72.91552401 C-30.81906892 66.74254191 -30.83132678 60.5697549 -30.86042023 54.39683533 C-30.8875867 48.58564491 -30.89594236 42.77472979 -30.88993073 36.9634819 C-30.8910304 34.83180113 -30.89897673 32.70011108 -30.9143219 30.56848526 C-30.93426874 27.65449166 -30.92942174 24.74153297 -30.91851807 21.82751465 C-30.93016943 20.98702686 -30.9418208 20.14653907 -30.95382524 19.28058195 C-30.88857913 12.81477038 -29.25354807 7.28988417 -24.62109375 2.59765625 C-24.04488281 2.23542969 -23.46867188 1.87320312 -22.875 1.5 C-22.29621094 1.11972656 -21.71742188 0.73945312 -21.12109375 0.34765625 C-14.98998289 -2.96684219 -6.30251123 -2.81448021 0 0 Z " fill="#000000" transform="translate(266.4375,1.5625)"/>
</svg>
