<?xml version="1.0" encoding="UTF-8"?>
<svg version="1.1" xmlns="http://www.w3.org/2000/svg" width="512" height="512">
<path d="M0 0 C27.78458412 -0.56908184 55.53682093 4.22194691 81.8046875 13.12109375 C82.48611816 13.34877441 83.16754883 13.57645508 83.86962891 13.81103516 C114.30873468 24.13204004 143.02119951 41.24374852 166.140625 63.59765625 C168.73672242 66.12868099 168.73672242 66.12868099 171.45703125 68.234375 C173.57955981 69.9401675 175.2470655 71.60649482 176.9921875 73.68359375 C178.9559086 75.99360546 180.93113472 78.2542313 183.01953125 80.453125 C194.82247955 92.90647888 204.41309204 107.19626259 212.8046875 122.12109375 C213.17013672 122.75772949 213.53558594 123.39436523 213.91210938 124.05029297 C231.56173641 154.95243459 242.71704529 191.96604752 243.04296875 227.67578125 C243.0527626 228.56680038 243.06255646 229.45781952 243.07264709 230.37583923 C243.24631464 250.28406243 243.07841296 269.58034599 238.8046875 289.12109375 C238.48322754 290.60029297 238.48322754 290.60029297 238.15527344 292.109375 C228.86861023 333.36541008 209.28807759 373.08005421 179.48730469 403.40332031 C177.59857985 405.33150777 175.7381727 407.28540355 173.875 409.23828125 C164.54262937 418.90902488 154.7769983 427.36722167 143.8046875 435.12109375 C143.17353027 435.57033203 142.54237305 436.01957031 141.89208984 436.48242188 C112.08983355 457.5156209 77.81201114 471.32892387 41.8046875 477.12109375 C41.1338916 477.23146973 40.4630957 477.3418457 39.77197266 477.45556641 C31.13665231 478.83020376 22.46609515 479.41237507 13.7421875 479.87109375 C12.27785278 479.95653442 12.27785278 479.95653442 10.78393555 480.04370117 C3.92266795 480.34531489 -1.59401428 480.37555221 -7.0078125 475.68359375 C-10.46287927 471.63622983 -11.48807339 469.52301468 -11.5078125 464.24609375 C-11.52457031 463.21742188 -11.54132813 462.18875 -11.55859375 461.12890625 C-11.12898697 457.57194687 -10.45257294 455.90704044 -8.1953125 453.12109375 C-3.25026574 449.84454127 0.20205839 448.59351223 6.22265625 448.21484375 C7.25885857 448.13999252 7.25885857 448.13999252 8.31599426 448.06362915 C9.78384203 447.95790076 11.25219965 447.85905312 12.72094727 447.7666626 C16.55840754 447.52071122 20.3903658 447.20996604 24.22265625 446.89453125 C24.97400848 446.83296844 25.72536072 446.77140564 26.4994812 446.70797729 C35.45172358 445.94167927 44.09319559 444.28519517 52.8046875 442.12109375 C53.52333984 441.95416016 54.24199219 441.78722656 54.98242188 441.61523438 C104.84465823 429.96434477 150.8592965 396.45553078 178.27734375 353.296875 C180.17761591 350.22085453 181.99496756 347.10281711 183.77099609 343.95361328 C184.45146424 342.747285 185.13912706 341.54498236 185.83447266 340.34716797 C212.26504612 294.75411275 218.12476739 237.33026681 204.68261719 186.75170898 C196.85294683 158.74616626 184.41052975 132.59717 165.8046875 110.12109375 C165.3288623 109.54375488 164.85303711 108.96641602 164.36279297 108.37158203 C154.79043807 96.82303924 144.69293604 86.33333292 132.8046875 77.12109375 C132.26247559 76.69715332 131.72026367 76.27321289 131.16162109 75.83642578 C88.32917523 42.56012594 33.64049145 27.30137088 -20.27050781 33.47314453 C-73.64890656 40.48854251 -123.94651091 66.47257658 -157.78515625 108.96484375 C-182.86888077 141.81354621 -203.79383788 183.83758896 -203.2578125 226.18359375 C-203.24878906 227.12332031 -203.23976563 228.06304687 -203.23046875 229.03125 C-203.21886719 229.72089844 -203.20726562 230.41054687 -203.1953125 231.12109375 C-202.2465625 230.31671875 -201.2978125 229.51234375 -200.3203125 228.68359375 C-195.90353236 224.93893232 -192.7076122 224.78328472 -186.9609375 224.8359375 C-182.1479782 225.33218895 -179.47997221 227.6592396 -176.3828125 231.18359375 C-173.91834842 235.20456146 -173.5186664 239.52151133 -174.1953125 244.12109375 C-176.52889667 250.0296236 -180.48014659 253.85733482 -184.8984375 258.2578125 C-185.65445251 259.01906937 -186.41046753 259.78032623 -187.18939209 260.56465149 C-188.78605706 262.16772295 -190.38658976 263.76695027 -191.99072266 265.36254883 C-194.43533696 267.79865294 -196.86071763 270.25281999 -199.28515625 272.70898438 C-200.8426182 274.26805854 -202.40117634 275.82603856 -203.9609375 277.3828125 C-204.68097961 278.11408859 -205.40102173 278.84536469 -206.1428833 279.59880066 C-210.77144612 284.16448237 -214.89133142 287.60348153 -221.56640625 288.40625 C-230.96408356 287.39364583 -237.03857707 280.58621136 -243.43359375 274.1484375 C-244.0810405 273.50290421 -244.72848724 272.85737091 -245.39555359 272.192276 C-246.74996402 270.83921576 -248.1018957 269.48367004 -249.45141602 268.12573242 C-251.51291842 266.05346115 -253.58495628 263.99215465 -255.65820312 261.93164062 C-256.97980884 260.60871414 -258.30079446 259.28516782 -259.62109375 257.9609375 C-260.23672684 257.34935287 -260.85235992 256.73776825 -261.48664856 256.10765076 C-266.34727675 251.19369099 -269.6235449 247.3845203 -269.6328125 240.18359375 C-269.49384659 235.04185525 -268.843357 231.96632984 -265.1953125 228.12109375 C-259.76266451 224.26986727 -254.66593733 224.06363755 -248.1953125 225.12109375 C-245.08523034 226.71884194 -242.7365211 228.7473739 -240.1953125 231.12109375 C-238.86798152 232.12904725 -237.53533658 233.13007749 -236.1953125 234.12109375 C-236.15567383 233.44868652 -236.11603516 232.7762793 -236.07519531 232.08349609 C-232.57825868 175.17616544 -213.24692319 120.63823655 -173.640625 78.71875 C-171.59893438 76.5498614 -169.66760814 74.34204505 -167.7578125 72.05859375 C-129.65837575 28.49076725 -68.77579664 4.90871693 -12.34448242 0.49682617 C-8.23288789 0.23329522 -4.11630698 0.15599696 0 0 Z " fill="#000000" transform="translate(269.1953125,15.87890625)"/>
<path d="M0 0 C5.06176423 3.33616278 7.24761199 7.02007947 8.75 12.8125 C9.02627235 16.31534907 9.00284752 19.80382251 8.97705078 23.31591797 C8.97734283 24.36042618 8.97763489 25.40493439 8.97793579 26.48109436 C8.97654607 29.92237753 8.96100148 33.3634423 8.9453125 36.8046875 C8.94158111 39.19507733 8.93873473 41.58546869 8.93673706 43.9758606 C8.92911059 50.25915774 8.90947047 56.54236203 8.8873291 62.82562256 C8.86684949 69.24050643 8.85773081 75.65540534 8.84765625 82.0703125 C8.82622374 94.65108122 8.79248551 107.23178566 8.75 119.8125 C10.51526535 119.79917633 10.51526535 119.79917633 12.31619263 119.7855835 C23.41024294 119.70447455 34.50423304 119.64452337 45.59851265 119.60525131 C51.302129 119.58438233 57.00550586 119.55607677 62.70898438 119.51074219 C68.21382881 119.46726061 73.71844297 119.44335771 79.22344589 119.43299103 C81.32300313 119.42560387 83.42254785 119.41117847 85.52200699 119.38957977 C88.46432924 119.36051551 91.40570168 119.35654532 94.34814453 119.35839844 C95.21489304 119.34401733 96.08164154 119.32963623 96.97465515 119.31481934 C102.3917992 119.35170305 105.43958716 120.22765066 109.75 123.8125 C113.29581036 127.84738765 114.05360179 131.37911409 113.96484375 136.75390625 C113.48807026 141.32226317 111.52437114 144.11367726 108.1875 147.125 C104.83828975 149.44368402 103.14401887 149.94122133 99.12155151 149.9798584 C98.14590744 149.99134918 97.17026337 150.00283997 96.16505432 150.01467896 C94.55363808 150.02578201 94.55363808 150.02578201 92.90966797 150.03710938 C91.7810585 150.04849945 90.65244904 150.05988953 89.48963928 150.07162476 C79.07192516 150.16922224 68.65361996 150.22057859 58.2355175 150.25731659 C50.53848138 150.284862 42.8423697 150.33556293 35.14571846 150.41779089 C29.0759358 150.48043225 23.00651924 150.50455133 16.9364357 150.51557922 C14.35842397 150.52598676 11.78043144 150.54842696 9.2026329 150.58317566 C5.58991228 150.62935501 1.97964938 150.6313836 -1.63330078 150.62304688 C-2.69543289 150.64664276 -3.757565 150.67023865 -4.85188293 150.69454956 C-11.52554629 150.62013329 -14.998812 149.2779122 -19.81074333 144.60822296 C-22.38126084 141.40105539 -22.37949563 138.47077422 -22.39717102 134.5188446 C-22.40432632 133.42113739 -22.41148163 132.32343018 -22.41885376 131.19245911 C-22.42154266 129.98772446 -22.42423157 128.78298981 -22.42700195 127.54174805 C-22.43357315 126.27322998 -22.44014435 125.00471191 -22.44691467 123.69775391 C-22.46793545 119.48992168 -22.47831464 115.28208917 -22.48828125 111.07421875 C-22.49232943 109.62469781 -22.49644638 108.17517706 -22.50063133 106.72565651 C-22.51967802 99.91583853 -22.53391059 93.10603136 -22.5422433 86.29619187 C-22.55201661 78.43913449 -22.57834046 70.58235876 -22.61874419 62.72540063 C-22.64891436 56.64971036 -22.66371299 50.57410081 -22.66702431 44.49833709 C-22.66937364 40.87071437 -22.67831841 37.24339272 -22.70348549 33.61585045 C-22.73111869 29.56753202 -22.72693239 25.5198423 -22.7199707 21.47143555 C-22.73918579 19.67344261 -22.73918579 19.67344261 -22.75878906 17.83912659 C-22.71919498 11.53169427 -22.55620534 7.57519221 -18.25 2.8125 C-12.86412785 -1.92053917 -6.58073981 -2.40450109 0 0 Z " fill="#000000" transform="translate(278.25,121.1875)"/>
</svg>
