<?xml version="1.0" encoding="UTF-8"?>
<svg version="1.1" xmlns="http://www.w3.org/2000/svg" width="512" height="512">
<path d="M0 0 C2.59070767 1.9963733 5.07317648 4.08526574 7.546875 6.22583008 C8.21976562 6.79817383 8.89265625 7.37051758 9.5859375 7.96020508 C23.62983706 20.91393892 33.55606174 41.62841563 34.68725586 60.57739258 C35.64723272 86.73855755 29.59962153 108.05662679 12.421875 128.22583008 C-0.51448444 142.13080212 -17.05177967 150.3995888 -35.453125 154.22583008 C-36.5359375 154.45206055 -36.5359375 154.45206055 -37.640625 154.68286133 C-39.59311287 154.99845743 -41.47614733 155.14110246 -43.453125 155.22583008 C-44.525625 155.27739258 -45.598125 155.32895508 -46.703125 155.38208008 C-70.40869608 155.97471936 -92.85290019 148.03685354 -110.19921875 131.62817383 C-117.20531031 124.72145945 -117.20531031 124.72145945 -118.453125 122.22583008 C-123.50689876 123.91272669 -127.6539021 126.81958179 -132.0546875 129.74536133 C-132.90802673 130.30783066 -133.76136597 130.87029999 -134.64056396 131.44981384 C-137.45622075 133.30795436 -140.26726153 135.17294802 -143.078125 137.03833008 C-145.04106412 138.33635446 -147.00411915 139.63420356 -148.96728516 140.93188477 C-164.76466469 151.38776304 -180.48371299 161.9596725 -196.16259766 172.59228516 C-205.51494255 178.9302053 -214.90897738 185.17995924 -224.453125 191.22583008 C-224.02 193.11301758 -224.02 193.11301758 -223.578125 195.03833008 C-219.93927917 211.52568626 -219.57906267 225.74601052 -223.453125 242.22583008 C-223.79062785 243.89165741 -224.12469605 245.55819003 -224.453125 247.22583008 C-223.99737595 247.52474655 -223.54162689 247.82366302 -223.07206726 248.13163757 C-199.28000578 263.7402222 -175.55768017 279.44269954 -152.00854492 295.41601562 C-143.98820827 300.85260418 -135.9509439 306.26123266 -127.83984375 311.56176758 C-127.1219014 312.035065 -126.40395905 312.50836243 -125.66426086 312.9960022 C-122.33310269 315.39544807 -122.33310269 315.39544807 -118.453125 316.22583008 C-116.91855133 314.70863025 -116.91855133 314.70863025 -115.328125 312.72583008 C-101.30804133 296.40737203 -82.33223293 284.6837355 -60.44970703 282.99389648 C-34.44488141 281.75258799 -11.71330799 287.32742052 8.06005859 304.86743164 C25.17433723 320.5035312 33.98166408 341.8643854 35.83203125 364.75317383 C36.49793493 390.02856124 26.72945276 412.51988288 9.484375 430.72583008 C-7.37405857 447.17027756 -29.23252116 454.77758391 -52.62988281 454.57739258 C-75.74978506 453.9757905 -94.82906795 445.10723165 -111.453125 429.22583008 C-112.07960938 428.67411133 -112.70609375 428.12239258 -113.3515625 427.55395508 C-119.04245325 422.35232643 -122.66560117 415.86435652 -126.453125 409.22583008 C-126.86691406 408.51297852 -127.28070313 407.80012695 -127.70703125 407.06567383 C-132.99940447 397.29034917 -137.59965331 383.50519887 -135.84741211 372.38012695 C-135.14514848 367.81417217 -134.82855133 363.62819872 -136.453125 359.22583008 C-141.35931671 353.04855337 -149.06835823 349.38503888 -155.765625 345.47583008 C-157.76440522 344.24720662 -159.75898727 343.01172965 -161.74951172 341.76977539 C-165.89070158 339.19002998 -170.04648916 336.63652024 -174.21240234 334.09692383 C-183.11720555 328.62405965 -191.73307769 322.7309594 -200.35931396 316.83273315 C-204.79509364 313.80316883 -209.24679677 310.79726722 -213.69921875 307.79223633 C-214.53612244 307.22698746 -215.37302612 306.66173859 -216.23529053 306.07936096 C-227.2243257 298.66745957 -238.31739442 291.41516366 -249.453125 284.22583008 C-249.9675415 284.61834961 -250.48195801 285.01086914 -251.01196289 285.4152832 C-270.7232868 300.34706337 -293.52968025 308.15404683 -318.46875 304.72583008 C-340.84390855 301.16135877 -361.76866562 290.35536023 -375.58203125 271.97583008 C-389.90509342 250.92481595 -395.68293363 227.82449338 -391.8359375 202.44848633 C-389.15982274 188.39530616 -382.23028546 175.41518938 -373.453125 164.22583008 C-372.69322266 163.22036133 -372.69322266 163.22036133 -371.91796875 162.19458008 C-359.62573413 146.97274654 -341.26030597 138.13645785 -322.453125 134.22583008 C-321.73125 134.07500977 -321.009375 133.92418945 -320.265625 133.76879883 C-318.31313713 133.45320273 -316.43010267 133.31055769 -314.453125 133.22583008 C-313.380625 133.17426758 -312.308125 133.12270508 -311.203125 133.06958008 C-291.39763212 132.57444276 -272.6359985 137.64519572 -256.453125 149.22583008 C-255.2338784 150.09694472 -254.01455478 150.96795156 -252.79516602 151.83886719 C-252.16828384 152.28660995 -251.54140167 152.73435272 -250.89552307 153.19566345 C-250.41953171 153.53561844 -249.94354034 153.87557343 -249.453125 154.22583008 C-221.58284578 135.95269495 -221.58284578 135.95269495 -193.87109375 117.44067383 C-192.94528503 116.81645538 -192.01947632 116.19223694 -191.06561279 115.54910278 C-186.513242 112.47590468 -181.96929187 109.3910853 -177.43701172 106.28833008 C-169.74392291 101.03548768 -162.07164599 95.88399563 -153.98046875 91.26098633 C-143.11289854 85.79138867 -143.11289854 85.79138867 -135.45898438 77.03930664 C-134.51097785 72.34163174 -135.24293656 68.05821829 -136.14990234 63.41040039 C-136.64789451 59.82261145 -136.05966923 56.55756961 -135.328125 53.03833008 C-135.1943042 52.38485596 -135.0604834 51.73138184 -134.92260742 51.05810547 C-130.16477778 29.76582383 -117.42347916 10.41390905 -99.18212891 -1.69067383 C-68.72581814 -20.77639921 -29.45712362 -21.60987138 0 0 Z M-84.8828125 44.97973633 C-91.87793691 54.98520035 -93.32525477 65.26880451 -92.453125 77.22583008 C-90.35094119 88.17860944 -84.559674 97.52602185 -75.578125 104.16333008 C-65.38310663 110.71390428 -54.26890352 114.0958437 -42.23046875 111.54223633 C-30.13052427 108.1316087 -19.80999529 101.50714746 -13.38671875 90.37817383 C-8.06761783 80.1914086 -6.5769813 69.21680027 -9.578125 57.97583008 C-13.72475802 46.17536509 -21.34620759 36.96861124 -32.453125 31.22583008 C-33.38125 30.74436523 -33.38125 30.74436523 -34.328125 30.25317383 C-52.88008432 22.46280029 -72.63471611 30.3674725 -84.8828125 44.97973633 Z M-338.765625 191.53833008 C-346.92861158 201.82878058 -349.55231443 213.29991893 -348.453125 226.22583008 C-346.18075178 237.45162592 -340.06058442 247.77593247 -330.453125 254.22583008 C-319.52247822 260.56525204 -308.83164754 263.1242704 -296.23046875 260.57348633 C-285.22656037 257.26521452 -275.85644943 250.81819169 -270.05078125 240.80786133 C-264.20419924 229.60614912 -262.30883792 218.30527209 -266.015625 205.97583008 C-270.60427556 193.85791485 -278.44054217 185.67180801 -290.0625 180.26098633 C-307.28779927 172.80231916 -326.20126126 177.98288421 -338.765625 191.53833008 Z M-76.453125 335.22583008 C-77.34 335.80333008 -78.226875 336.38083008 -79.140625 336.97583008 C-87.99889686 345.59468918 -92.56983803 356.02726408 -92.890625 368.35083008 C-92.4852087 380.25176023 -88.32156767 390.34319192 -80.078125 399.03833008 C-76.51813755 402.35630083 -72.7744452 404.99151111 -68.453125 407.22583008 C-67.834375 407.54680664 -67.215625 407.8677832 -66.578125 408.19848633 C-57.44290257 412.03456606 -44.7015769 411.71007316 -35.390625 408.66333008 C-23.6591671 403.54316851 -15.44976994 394.39696139 -10.3984375 382.83911133 C-6.8360772 372.99109876 -7.36838903 361.81648385 -11.0703125 352.10864258 C-16.90775283 339.93906359 -25.65336727 332.69515946 -38.12890625 327.95239258 C-52.06786528 323.59500371 -64.67399711 327.22288891 -76.453125 335.22583008 Z " fill="#000000" transform="translate(434.453125,36.774169921875)"/>
</svg>
