<?xml version="1.0" encoding="UTF-8"?>
<svg version="1.1" xmlns="http://www.w3.org/2000/svg" width="512" height="512">
<path d="M0 0 C7.20463636 6.55128125 11.28294564 14.89262278 15.34963989 23.58526611 C17.14771114 27.42623199 18.98404107 31.24892001 20.81616211 35.07373047 C21.21449753 35.90737122 21.61283295 36.74101196 22.02323914 37.59991455 C28.06374431 50.2010952 34.38598491 62.66456878 40.66571045 75.14767456 C42.22267534 78.24331633 43.77738125 81.34008436 45.33178711 84.43701172 C45.82479309 85.41543533 46.31779907 86.39385895 46.82574463 87.40193176 C49.07619546 91.89000312 51.27469438 96.38675164 53.33129883 100.96728516 C53.68792099 101.75666473 54.04454315 102.54604431 54.41197205 103.35934448 C55.0579475 104.80418204 55.6912345 106.25479723 56.30836487 107.71218872 C58.23393364 112.02457154 59.72205461 113.82621471 63.98413086 115.80419922 C67.44023806 116.61250021 70.92711857 117.07941121 74.44311523 117.55004883 C76.02222687 117.77515388 76.02222687 117.77515388 77.63323975 118.00480652 C79.91712336 118.32891516 82.20174318 118.64786841 84.48698425 118.96226311 C88.11343693 119.46143719 91.73769271 119.97445502 95.36169434 120.49110413 C103.06744344 121.58708606 110.775605 122.66544661 118.48413086 123.74169922 C127.39275542 124.9860286 136.30023842 126.23768979 145.20539856 127.5065937 C148.75854425 128.00923437 152.31329018 128.49915474 155.86828613 128.98851013 C188.72467108 133.59898756 188.72467108 133.59898756 199.29663086 146.61669922 C206.18234979 156.72470444 207.45858297 166.80501994 205.98413086 178.80419922 C203.81640694 188.07955636 198.61236736 194.22587414 191.98413086 200.80419922 C190.99331677 201.81731994 190.0037857 202.83169663 189.01538086 203.84716797 C184.87828338 208.06288784 180.73028443 212.18825592 176.24609375 216.0378418 C172.22794104 219.54247992 168.44623442 223.22881325 164.70288086 227.02294922 C164.04509644 227.68452026 163.38731201 228.34609131 162.70959473 229.02770996 C160.63195812 231.11742657 158.55762459 233.21037237 156.48413086 235.30419922 C153.74754935 238.06761622 151.00750823 240.82753644 148.26538086 243.58544922 C147.65368042 244.205448 147.04197998 244.82544678 146.41174316 245.4642334 C142.10893976 249.79095586 137.60827118 253.82506609 132.98413086 257.80419922 C129.57109016 260.80813723 126.23372996 263.87695973 122.92163086 266.99169922 C122.04313477 267.76578125 121.16463867 268.53986328 120.25952148 269.33740234 C119.02298828 270.51786133 119.02298828 270.51786133 117.76147461 271.72216797 C116.6360022 272.75506958 116.6360022 272.75506958 115.48779297 273.80883789 C110.94574861 282.85679084 116.50547658 298.19351965 118.2381916 307.85718155 C118.81187035 311.06284073 119.3769878 314.26990399 119.93968201 317.47750854 C121.53898143 326.58998805 123.14701201 335.70086132 124.77587891 344.80810547 C125.77580396 350.40234674 126.76048908 355.99910047 127.73597527 361.59765244 C128.10708618 363.71058981 128.48372219 365.82256558 128.86636543 367.93344498 C135.44207074 404.24135932 135.44207074 404.24135932 127.98413086 416.80419922 C120.15883193 427.28828697 111.65498029 433.57411079 98.67163086 435.61669922 C87.34814072 436.47572261 78.49582585 432.49959899 68.73266602 427.26220703 C65.45172593 425.52177585 62.14720631 423.82909193 58.83959961 422.14013672 C47.27143707 416.22542415 35.73125339 410.27729218 24.35913086 403.99169922 C14.956826 398.83250469 5.51314884 393.7496535 -3.98284912 388.76504517 C-5.66245802 387.87926506 -7.33835189 386.98640207 -9.01031494 386.08627319 C-11.36711621 384.81926348 -13.73613689 383.57867322 -16.10961914 382.34326172 C-16.81811005 381.95545029 -17.52660095 381.56763885 -18.25656128 381.16807556 C-21.46927322 379.52720026 -23.44483359 378.70104441 -27.04321289 379.35107422 C-28.02418945 379.83060547 -29.00516602 380.31013672 -30.01586914 380.80419922 C-31.77060547 381.64023682 -31.77060547 381.64023682 -33.56079102 382.49316406 C-34.87105148 383.162638 -36.17888047 383.83688577 -37.48461914 384.51513672 C-38.1927475 384.87897964 -38.90087585 385.24282257 -39.63046265 385.61769104 C-41.92801836 386.80023389 -44.22205454 387.98941799 -46.51586914 389.17919922 C-48.11885673 390.00683156 -49.72188437 390.83438634 -51.32495117 391.66186523 C-60.39652055 396.35447916 -69.40238218 401.14705931 -78.33666992 406.09667969 C-87.59002314 411.18733463 -96.99286143 415.98783115 -106.39086914 420.80419922 C-107.20585876 421.22192596 -108.02084839 421.63965271 -108.86053467 422.07003784 C-118.10200282 426.80374316 -118.10200282 426.80374316 -122.03118896 428.79541016 C-123.4095153 429.49599686 -124.78467509 430.20283447 -126.1572876 430.91455078 C-126.85521423 431.27258789 -127.55314087 431.630625 -128.2722168 431.99951172 C-128.8952066 432.32193848 -129.51819641 432.64436523 -130.1600647 432.9765625 C-138.28518372 436.60013764 -151.27794945 436.31010081 -159.57836914 433.24169922 C-169.90099109 428.13359764 -176.62636909 420.76776508 -181.14477539 410.15185547 C-184.01896859 399.10618925 -182.26079333 389.01351609 -180.32836914 377.99169922 C-180.02173182 376.17981173 -179.71635724 374.36771018 -179.41210938 372.55541992 C-178.51479204 367.23864499 -177.59766384 361.92544288 -176.67626953 356.61279297 C-175.94977016 352.42299991 -175.22566529 348.2327978 -174.50219727 344.04248047 C-174.37021596 343.27821086 -174.23823465 342.51394125 -174.10225391 341.72651196 C-173.41864463 337.76714075 -172.73573643 333.80764994 -172.05387878 329.84797668 C-171.779085 328.25241059 -171.50428947 326.65684479 -171.22949219 325.0612793 C-171.09333842 324.27048635 -170.95718466 323.47969339 -170.81690502 322.66493702 C-169.99553922 317.89854601 -169.16774247 313.13332524 -168.3348217 308.36894035 C-167.80921164 305.35776809 -167.28759074 302.34591322 -166.76677704 299.33390808 C-166.52132247 297.91991781 -166.27410137 296.5062329 -166.02500153 295.09288025 C-165.68083229 293.13898122 -165.34344259 291.1838917 -165.00634766 289.22875977 C-164.81428238 288.12823776 -164.6222171 287.02771576 -164.42433167 285.8938446 C-163.46411491 279.74341646 -163.46411491 279.74341646 -165.81665039 274.30639648 C-166.64551758 273.50258545 -167.47438477 272.69877441 -168.32836914 271.87060547 C-169.23973633 270.9740625 -170.15110352 270.07751953 -171.09008789 269.15380859 C-172.06517329 268.22458844 -173.04043473 267.29555299 -174.01586914 266.36669922 C-174.95043945 265.45082031 -175.88500977 264.53494141 -176.84790039 263.59130859 C-180.76290121 259.777605 -184.71749714 256.04984917 -188.85571289 252.47973633 C-193.07483567 248.80608177 -197.0231182 244.9076024 -200.95336914 240.92919922 C-201.6777417 240.20104004 -202.40211426 239.47288086 -203.1484375 238.72265625 C-206.21129338 235.64362971 -209.26809225 232.55861599 -212.32543945 229.47412109 C-214.57431031 227.20704463 -216.82627152 224.94306956 -219.07836914 222.67919922 C-219.75569092 221.9935791 -220.4330127 221.30795898 -221.13085938 220.6015625 C-225.01824433 216.69455154 -229.00896939 212.97474715 -233.19015503 209.38322449 C-243.55940623 200.41505715 -251.60351682 192.04125619 -256.01586914 178.80419922 C-256.97914718 165.38711225 -256.1414934 154.62065543 -247.20336914 143.86669922 C-237.59215688 133.95065374 -226.03335144 131.85828955 -212.7487793 130.04248047 C-211.14907791 129.81496597 -211.14907791 129.81496597 -209.51705933 129.58285522 C-207.22317281 129.25739002 -204.92884125 128.93504876 -202.63411331 128.61557007 C-199.00146622 128.10924714 -195.37028612 127.59338866 -191.73934937 127.07495117 C-181.42341931 125.60374646 -171.10508199 124.14978214 -160.78588867 122.70166016 C-154.45655567 121.81277874 -148.12883221 120.91309627 -141.80195236 120.00692749 C-139.3951972 119.66456934 -136.98782696 119.32650664 -134.57985306 118.99282837 C-131.22058322 118.52726157 -127.86351049 118.04810305 -124.5065918 117.56591797 C-123.51326843 117.43180511 -122.51994507 117.29769226 -121.496521 117.15951538 C-116.7528562 116.46382931 -112.86349285 115.89002604 -109.01586914 112.80419922 C-107.1288553 109.90344696 -107.1288553 109.90344696 -105.58227539 106.40185547 C-105.27189835 105.7490007 -104.9615213 105.09614594 -104.64173889 104.42350769 C-103.96514268 102.99682986 -103.2950453 101.56705615 -102.63067627 100.13464355 C-100.79751544 96.18379441 -98.91619947 92.25581158 -97.04321289 88.32373047 C-96.64481201 87.48377533 -96.24641113 86.64382019 -95.8359375 85.77841187 C-90.92865843 75.45854328 -85.77770933 65.26112772 -80.64086914 55.05419922 C-71.2478328 36.43086341 -71.2478328 36.43086341 -62.42260742 17.53369141 C-57.37686882 6.58355738 -50.15065567 -1.7579368 -38.95336914 -6.50830078 C-25.4821093 -11.4218302 -11.13514033 -9.18585886 0 0 Z M-28.01586914 24.80419922 C-35.1870045 38.29389622 -42.1359131 51.88266272 -48.95336914 65.55419922 C-49.43487427 66.5180957 -49.91637939 67.48199219 -50.41247559 68.47509766 C-55.77615508 79.21402493 -61.11736227 89.96009005 -66.26586914 100.80419922 C-66.67812744 101.66972412 -67.09038574 102.53524902 -67.51513672 103.42700195 C-69.11101465 106.78130999 -70.70392484 110.1366964 -72.27661133 113.50195312 C-84.86168754 140.33903451 -84.86168754 140.33903451 -97.87220955 145.54731655 C-104.02233311 147.69703875 -110.10675012 148.77400017 -116.54663086 149.67358398 C-117.66478683 149.83662018 -118.78294281 149.99965637 -119.9349823 150.16763306 C-122.34721742 150.51827804 -124.76000452 150.86514261 -127.17327499 151.20858955 C-130.99013584 151.75195169 -134.80538826 152.3055582 -138.62039185 152.86180115 C-146.02177437 153.93921309 -153.4246485 155.00603688 -160.82794952 156.07017517 C-170.91343917 157.51986337 -180.99812341 158.97469865 -191.08075333 160.44416618 C-194.84404683 160.98994797 -198.60858698 161.52646969 -202.3732605 162.06263733 C-204.66939597 162.3960534 -206.96547077 162.72988763 -209.26147461 163.06420898 C-210.31188431 163.21126785 -211.36229401 163.35832672 -212.4445343 163.50984192 C-213.40327957 163.65129639 -214.36202484 163.79275085 -215.349823 163.93849182 C-216.1834178 164.05811563 -217.0170126 164.17773943 -217.87586784 164.3009882 C-220.29598053 164.73851288 -220.29598053 164.73851288 -223.01586914 166.80419922 C-223.76888245 169.61292257 -223.76888245 169.61292257 -223.01586914 172.80419922 C-221.31163521 175.26914395 -219.21308881 177.21666784 -217.01586914 179.24169922 C-216.46286133 179.77601563 -215.90985352 180.31033203 -215.34008789 180.86083984 C-212.39166336 183.68387161 -209.35275745 186.38558317 -206.25805664 189.04663086 C-202.17095921 192.61711434 -198.32701311 196.38063818 -194.51586914 200.24169922 C-193.83588867 200.92546631 -193.1559082 201.6092334 -192.45532227 202.3137207 C-189.58361771 205.20157695 -186.71798476 208.09542997 -183.85180664 210.98876953 C-181.74194127 213.11685646 -179.62897269 215.24182839 -177.51586914 217.36669922 C-176.88229492 218.00857178 -176.2487207 218.65044434 -175.59594727 219.31176758 C-171.82854575 223.09942926 -167.93823774 226.67375189 -163.89532471 230.16519165 C-159.59767279 233.91302381 -155.54974705 237.92717402 -151.48803711 241.92700195 C-150.42588727 242.9675581 -149.35751992 244.00180653 -148.28295898 245.02954102 C-138.50731322 254.38580411 -131.06948459 264.00304561 -130.70727539 278.12158203 C-130.80437846 288.79283582 -133.08032208 299.25360602 -134.95336914 309.72607422 C-135.35810736 312.03985439 -135.76165148 314.35384373 -136.1640625 316.66802979 C-137.22025737 322.7290639 -138.28817332 328.78796255 -139.35998535 334.84625244 C-141.07725434 344.55459123 -142.7840027 354.26472249 -144.47659302 363.9773941 C-145.06825621 367.35582876 -145.66951615 370.73245837 -146.27148438 374.10906982 C-146.63590158 376.18934179 -146.99993555 378.26968093 -147.36352539 380.35009766 C-147.53183868 381.27914413 -147.70015198 382.20819061 -147.87356567 383.16539001 C-148.84548315 388.79374159 -149.34434535 394.08915238 -149.01586914 399.80419922 C-148.35586914 400.46419922 -147.69586914 401.12419922 -147.01586914 401.80419922 C-141.68577448 401.53120735 -137.52626885 399.88499128 -132.88696289 397.40966797 C-132.22464157 397.06660614 -131.56232025 396.72354431 -130.87992859 396.37008667 C-128.73227978 395.25408685 -126.59285432 394.12325909 -124.45336914 392.99169922 C-122.95161941 392.20706247 -121.44949992 391.42313304 -119.94702148 390.63989258 C-111.12265087 386.02721843 -102.36129798 381.30544241 -93.64697266 376.48803711 C-84.81552571 371.63333804 -75.85538507 367.03179565 -66.89086914 362.42919922 C-65.76603119 361.85143234 -65.76603119 361.85143234 -64.61846924 361.26199341 C-59.75596692 358.76613138 -54.88768984 356.28181478 -50.01586914 353.80419922 C-49.41168152 353.49597229 -48.8074939 353.18774536 -48.18499756 352.87017822 C-46.53124193 352.02737167 -44.87518338 351.18908839 -43.21899414 350.35107422 C-42.30537109 349.88797852 -41.39174805 349.42488281 -40.45043945 348.94775391 C-30.2636044 344.16284262 -20.90012285 345.23047493 -10.47851562 348.546875 C-5.01642157 350.53022016 0.00915252 353.16262671 5.10913086 355.92919922 C6.19605225 356.50686035 7.28297363 357.08452148 8.40283203 357.6796875 C10.59195708 358.84372178 12.77878599 360.01208601 14.96313477 361.18505859 C18.32541596 362.98711524 21.7031264 364.75775018 25.0847168 366.52319336 C32.35643635 370.32358984 39.58764962 374.19827159 46.81274414 378.08642578 C50.98261505 380.32884937 55.16069863 382.55583138 59.33935547 384.78182983 C63.24620316 386.86618177 67.13778521 388.97678391 71.02270508 391.10169983 C73.67337588 392.54589018 76.33369782 393.97159818 78.99639893 395.39346313 C80.27305912 396.08028066 81.54557352 396.77486454 82.81365967 397.47738647 C84.57691871 398.45285547 86.35641501 399.3987989 88.13647461 400.34326172 C89.65229126 401.16624756 89.65229126 401.16624756 91.19873047 402.00585938 C94.02377338 403.12796633 94.02377338 403.12796633 96.78710938 401.64550781 C99.23698946 399.91890624 99.23698946 399.91890624 99.98413086 396.80419922 C99.8362363 394.67286749 99.8362363 394.67286749 99.3830719 392.32365417 C99.22457764 391.40579132 99.06608337 390.48792847 98.90278625 389.54225159 C98.72152695 388.53710007 98.54026764 387.53194855 98.35351562 386.49633789 C98.16834381 385.43574158 97.983172 384.37514526 97.79238892 383.28240967 C97.38848755 380.97377255 96.98125916 378.66571565 96.57113838 376.35817528 C95.92100236 372.6966284 95.28075978 369.033478 94.64329529 365.3697052 C92.82860294 354.95059508 90.995996 344.53466989 89.15673828 334.11987305 C88.03268851 327.75092161 86.92026186 321.38002314 85.81452751 315.00786781 C85.39205978 312.58760053 84.96509881 310.16811281 84.53341866 307.74947166 C78.11157621 271.76300395 78.11157621 271.76300395 86.0012207 259.18237305 C90.71453152 252.44818358 96.71199744 246.81021342 102.53295898 241.04956055 C104.35319635 239.24757422 106.16530859 237.43772001 107.97631836 235.62646484 C109.15293183 234.45476887 110.33000037 233.28352965 111.50756836 232.11279297 C112.03804779 231.58342636 112.56852722 231.05405975 113.11508179 230.50865173 C115.97199085 227.68675421 118.89492322 224.98666847 121.93383789 222.36108398 C125.88800325 218.93327732 129.59134051 215.30933167 133.26538086 211.58544922 C133.92316528 210.92387817 134.58094971 210.26230713 135.25866699 209.58068848 C137.3363036 207.49097187 139.41063713 205.39802607 141.48413086 203.30419922 C144.22071236 200.54078222 146.96075349 197.780862 149.70288086 195.02294922 C150.3145813 194.40295044 150.92628174 193.78295166 151.55651855 193.14416504 C155.85869358 188.81807446 160.35545768 184.77709773 164.98413086 180.80419922 C170.76823267 176.03104615 170.76823267 176.03104615 173.67163086 169.42919922 C173.20818064 166.47374741 173.20818064 166.47374741 169.98413086 164.80419922 C167.08368249 164.23636399 164.22707038 163.76425005 161.30371094 163.35546875 C160.41523468 163.22505188 159.52675842 163.09463501 158.61135864 162.96026611 C155.65977736 162.52875349 152.70676365 162.10798337 149.75366211 161.68701172 C147.68541434 161.38630496 145.61727517 161.08485049 143.54924011 160.78268433 C138.07998616 159.98528051 132.60951065 159.19660428 127.13867188 158.41015625 C118.45840213 157.16096848 109.78000626 155.89884591 101.10165977 154.63637924 C98.10501117 154.2017125 95.10783956 153.77082775 92.11054993 153.34060669 C87.37782662 152.65914105 82.64842563 151.9575844 77.92053604 151.24338531 C75.88553927 150.93901918 73.8495665 150.64113499 71.8128624 150.34841156 C68.59600184 149.88394593 65.38324722 149.39671831 62.17041016 148.90527344 C61.19838811 148.76948946 60.22636606 148.63370548 59.2248888 148.49380684 C46.7160677 146.52120459 39.00158939 141.06470218 31.53817749 131.05667114 C29.04071029 127.43678315 27.1204623 123.58829949 25.19116211 119.64404297 C24.76352066 118.7858345 24.33587921 117.92762604 23.89527893 117.04341125 C22.52104911 114.28006534 21.15861396 111.51109873 19.79663086 108.74169922 C18.84290674 106.81727776 17.88863942 104.89312541 16.93383789 102.96923828 C11.93367974 92.87661235 6.99497952 82.75680632 2.18701172 72.57104492 C-2.45109959 62.78926359 -7.30361607 53.11352403 -12.14086914 43.42919922 C-12.57345032 42.56153931 -13.00603149 41.69387939 -13.45172119 40.79992676 C-14.68173377 38.334043 -15.91465637 35.86963938 -17.14868164 33.40576172 C-17.52416138 32.6528183 -17.89964111 31.89987488 -18.28649902 31.12411499 C-19.82288318 27.74241798 -19.82288318 27.74241798 -22.01586914 24.80419922 C-24.01545278 24.76339139 -26.01632168 24.76165566 -28.01586914 24.80419922 Z " fill="#000000" transform="translate(281.015869140625,40.19580078125)"/>
</svg>
