<?xml version="1.0" encoding="UTF-8"?>
<svg version="1.1" xmlns="http://www.w3.org/2000/svg" width="512" height="512">
<path d="M0 0 C0.71004181 0.00215515 1.42008362 0.0043103 2.15164185 0.00653076 C34.73210741 0.16543074 64.07960338 12.43532833 87.796875 34.765625 C92.00440742 39.02542491 95.73448889 43.5148538 99.3125 48.3125 C99.7132373 48.84407715 100.11397461 49.3756543 100.52685547 49.92333984 C116.39026401 71.26244271 123.53958987 95.8544279 123.5625 122.25 C123.56317474 122.94569092 123.56384949 123.64138184 123.56454468 124.3581543 C123.54868579 134.63708739 123.14763644 144.34379445 120.3125 154.3125 C119.9721875 155.5396875 119.631875 156.766875 119.28125 158.03125 C109.24000496 190.86883512 86.97522677 216.79884825 56.9375 233.0625 C50.40318132 236.51746944 43.86261643 239.06437808 36.77734375 241.14453125 C33.20963731 242.20869927 33.20963731 242.20869927 29.92333984 244.35400391 C24.19617562 247.23946323 18.36119276 246.85886762 12.07421875 246.81640625 C10.12392607 246.83081305 8.17363338 246.84523661 6.22334766 246.8605566 C2.81557246 246.88168687 -0.59217408 246.87641567 -4 246.875 C-34.32127346 246.84004951 -34.32127346 246.84004951 -63.875 253.0625 C-64.6990332 253.31926514 -65.52306641 253.57603027 -66.37207031 253.84057617 C-90.26447963 261.50578854 -110.46860884 274.16716569 -128.6875 291.3125 C-129.33847656 291.89902344 -129.98945313 292.48554688 -130.66015625 293.08984375 C-158.02471385 318.76869965 -172.67597908 358.72272344 -174.1875 395.5625 C-174.20453979 396.58089966 -174.20453979 396.58089966 -174.22192383 397.61987305 C-174.38879809 403.12809701 -175.50151359 407.83171136 -179.22265625 412.0546875 C-185.23915403 416.51705159 -189.23784296 417.03277071 -196.6875 416.3125 C-201.62665858 414.81633152 -204.42626691 411.85078121 -206.8737793 407.34448242 C-208.33737269 403.68967059 -208.23213897 400.13910579 -208.125 396.25 C-208.11106201 395.38511963 -208.09712402 394.52023926 -208.08276367 393.62915039 C-207.11417621 358.44134605 -195.64618086 321.77638467 -174.6875 293.3125 C-173.91792969 292.25933594 -173.14835937 291.20617187 -172.35546875 290.12109375 C-166.60915004 282.39415335 -160.32823819 275.27741623 -153.6875 268.3125 C-152.96046875 267.53261719 -152.2334375 266.75273437 -151.484375 265.94921875 C-131.38276409 244.99142812 -104.21861098 229.94877572 -76.6875 221.3125 C-76.6875 220.6525 -76.6875 219.9925 -76.6875 219.3125 C-78.15600933 217.86171915 -79.68942639 216.47625673 -81.25 215.125 C-82.17039062 214.30902344 -83.09078125 213.49304688 -84.0390625 212.65234375 C-85.53370171 211.33185867 -87.02842589 210.0114697 -88.5234375 208.69140625 C-99.28002258 198.59071051 -106.76145414 185.67583837 -112.6875 172.3125 C-113.16960937 171.23484375 -113.65171875 170.1571875 -114.1484375 169.046875 C-125.68664186 141.21532751 -126.24999994 107.16709317 -115.08203125 79.1328125 C-113.4070653 75.13273243 -111.585904 71.21085551 -109.6875 67.3125 C-109.2028125 66.31347656 -108.718125 65.31445312 -108.21875 64.28515625 C-94.06844973 36.88860267 -68.40384332 15.44840761 -39.21875 5.77734375 C-35.07123306 4.48673353 -30.91883402 3.29629827 -26.6875 2.3125 C-25.49821899 2.03321655 -25.49821899 2.03321655 -24.28491211 1.74829102 C-16.22169622 0.06154815 -8.2013359 -0.04466529 0 0 Z M-64.25 59.75 C-77.08595154 73.29905996 -85.3604788 89.98905489 -88.6875 108.3125 C-88.81898438 109.01632813 -88.95046875 109.72015625 -89.0859375 110.4453125 C-92.46444474 132.26864307 -86.55567769 154.92093596 -74.6875 173.3125 C-71.85875595 177.14210321 -68.84915092 180.75428462 -65.6875 184.3125 C-64.74777344 185.37791016 -64.74777344 185.37791016 -63.7890625 186.46484375 C-49.66016236 201.51778588 -27.44964172 212.37895046 -6.6875 213.3125 C-5.66140625 213.37566406 -4.6353125 213.43882812 -3.578125 213.50390625 C22.06309755 214.35677953 43.73075181 205.08752297 63 188.625 C79.12001759 173.44355694 89.58537073 152.02102584 90.7578125 129.87890625 C91.44017684 105.78619611 85.68491241 82.33726152 69 64.125 C67.1335026 62.1546495 65.23101716 60.23368177 63.3125 58.3125 C62.508125 57.49652344 61.70375 56.68054688 60.875 55.83984375 C48.37324324 43.85213949 30.52186272 35.47393029 13.3125 33.3125 C12.36761719 33.17972656 11.42273438 33.04695313 10.44921875 32.91015625 C-17.56636275 29.80506689 -44.11200153 40.59434292 -64.25 59.75 Z " fill="#000000" transform="translate(260.6875,15.6875)"/>
<path d="M0 0 C5.52514144 1.94403125 8.51400122 4.99390317 11.09518433 10.21549988 C12.21356556 13.65723147 12.23972951 16.55722467 12.22705078 20.17700195 C12.22734283 20.87998917 12.22763489 21.58297638 12.22793579 22.30726624 C12.22654877 24.61773262 12.2110175 26.92787159 12.1953125 29.23828125 C12.19158013 30.84539107 12.18873422 32.45250317 12.18673706 34.05961609 C12.17911821 38.2797377 12.15948483 42.49972061 12.1373291 46.7197876 C12.11683293 51.02996952 12.10772729 55.34017396 12.09765625 59.65039062 C12.07623721 68.10032391 12.04212248 76.55014468 12 85 C12.88425659 84.99111755 13.76851318 84.98223511 14.67956543 84.9730835 C23.03578961 84.89274808 31.39188303 84.83193954 39.74840546 84.79275131 C44.04402721 84.77192647 48.33932835 84.74370305 52.63476562 84.69824219 C56.78450141 84.65460102 60.9339299 84.63082455 65.08387756 84.62049103 C66.66265191 84.61313227 68.24141051 84.59876248 69.8200531 84.57707977 C85.24363084 84.37376977 85.24363084 84.37376977 92 89 C96.64305954 93.88116515 97.35728013 97.96700606 97.28125 104.49609375 C96.7247527 109.45046555 93.97706409 112.13925306 90.375 115.3125 C86.32974522 118.18675997 83.95851393 118.12196358 78.97998047 118.11352539 C78.25792419 118.11367142 77.53586792 118.11381744 76.79193115 118.1139679 C74.40031959 118.11327007 72.00878549 118.10548375 69.6171875 118.09765625 C67.96094811 118.09579161 66.30470816 118.09436792 64.64846802 118.09336853 C60.28532392 118.08954699 55.922213 118.07971978 51.55908203 118.06866455 C47.10840301 118.05844264 42.65771863 118.05386924 38.20703125 118.04882812 C29.47133892 118.0380972 20.73567359 118.02102512 12 118 C12.00999275 119.32971581 12.00999275 119.32971581 12.02018738 120.68629456 C12.08040274 129.05757093 12.12602735 137.42877412 12.15543652 145.80021763 C12.17106457 150.10364109 12.19225028 154.40688496 12.22631836 158.71020508 C12.25901427 162.86640618 12.27687452 167.02243498 12.28463173 171.17875481 C12.29015693 172.76112516 12.30094627 174.34348653 12.31719017 175.92578316 C12.33910112 178.14937536 12.34196133 180.37226376 12.34057617 182.59594727 C12.35056892 184.49123924 12.35056892 184.49123924 12.36076355 186.42481995 C11.88826019 191.10734566 10.64449685 195.13372622 7.46484375 198.7421875 C1.44834597 203.20455159 -2.55034296 203.72027071 -10 203 C-15.00111829 201.48506271 -17.71064257 198.4913337 -20.18663788 193.94050407 C-21.52085323 190.75735814 -21.47751225 187.83616604 -21.45410156 184.41235352 C-21.45468567 183.68956711 -21.45526978 182.9667807 -21.45587158 182.22209167 C-21.45310742 179.85719043 -21.42209761 177.49358447 -21.390625 175.12890625 C-21.3831566 173.47981962 -21.3774665 171.83072407 -21.37347412 170.18162537 C-21.35826475 165.85941696 -21.31902427 161.53775361 -21.2746582 157.21575928 C-21.23360349 152.79821138 -21.21544141 148.38057467 -21.1953125 143.96289062 C-21.15252473 135.30834474 -21.08433134 126.65424034 -21 118 C-21.90931274 118.01110306 -22.81862549 118.02220612 -23.75549316 118.03364563 C-32.34714672 118.13405145 -40.93860172 118.21006827 -49.53070831 118.25906086 C-53.94748573 118.2850959 -58.36377621 118.32038126 -62.78027344 118.37719727 C-67.04673512 118.43173634 -71.31273002 118.46146633 -75.57951355 118.47438622 C-77.20297081 118.48358704 -78.82640405 118.50155426 -80.44966125 118.52865028 C-95.79693221 118.77452068 -95.79693221 118.77452068 -101.65391541 114.31500244 C-104.59988529 111.43705733 -105.82643578 109.16178572 -106.43359375 105.09765625 C-106.44155637 98.91070231 -106.39977589 94.75651447 -102 90 C-96.98559021 85.47480092 -93.61768871 84.87501258 -86.95825195 84.88647461 C-85.88957886 84.88625557 -85.88957886 84.88625557 -84.79931641 84.8860321 C-82.445607 84.88672849 -80.09197683 84.89450808 -77.73828125 84.90234375 C-76.10589135 84.9042089 -74.47350089 84.90563235 -72.84111023 84.90663147 C-68.54538425 84.91044899 -64.24969211 84.92027276 -59.95397949 84.93133545 C-55.57023577 84.94156601 -51.18648659 84.94613262 -46.80273438 84.95117188 C-38.2018074 84.9618957 -29.60090791 84.97896295 -21 85 C-21.00888245 84.08624603 -21.01776489 83.17249207 -21.0269165 82.23104858 C-21.10714739 73.60930884 -21.16800763 64.98769493 -21.20724869 56.36566734 C-21.22810139 51.93323178 -21.25637633 47.50110533 -21.30175781 43.06884766 C-21.34529877 38.78944496 -21.36915454 34.51033912 -21.37950897 30.23073196 C-21.38688559 28.60006667 -21.4012906 26.96941716 -21.42292023 25.33887863 C-21.45206509 23.05027223 -21.45595156 20.76288396 -21.45410156 18.47412109 C-21.46298401 17.17284271 -21.47186646 15.87156433 -21.48101807 14.53085327 C-20.75623842 9.21069845 -18.33587961 6.17684633 -14.375 2.6875 C-9.69068224 -0.64083104 -5.6276406 -0.47618497 0 0 Z " fill="#000000" transform="translate(362,293)"/>
</svg>
